M48
; DRILL file {KiCad 9.0.9} date 2026-07-30T00:48:43+0800
; FORMAT={-:-/ absolute / metric / decimal}
; #@! TF.CreationDate,2026-07-30T00:48:43+08:00
; #@! TF.GenerationSoftware,Kicad,Pcbnew,9.0.9
; #@! TF.FileFunction,Plated,1,2,PTH
FMAT,2
METRIC
; #@! TA.AperFunction,Plated,PTH,ViaDrill
T1C0.300
; #@! TA.AperFunction,Plated,PTH,ComponentDrill
T2C0.400
; #@! TA.AperFunction,Plated,PTH,ComponentDrill
T3C0.750
; #@! TA.AperFunction,Plated,PTH,ComponentDrill
T4C0.800
; #@! TA.AperFunction,Plated,PTH,ComponentDrill
T5C1.000
; #@! TA.AperFunction,Plated,PTH,ComponentDrill
T6C1.100
; #@! TA.AperFunction,Plated,PTH,ComponentDrill
T7C3.200
%
G90
G05
T1
X72.163Y-74.045
X72.163Y-79.76
X72.163Y-87.38
X72.163Y-95.0
X72.163Y-102.62
X72.29Y-108.97
X72.29Y-115.32
X72.29Y-120.908
X72.29Y-126.496
X72.29Y-131.83
X76.1Y-129.163
X76.989Y-128.274
X79.91Y-67.695
X79.91Y-74.045
X79.91Y-78.49
X81.942Y-90.555
X82.069Y-109.224
X82.069Y-110.494
X82.069Y-111.764
X82.069Y-118.241
X82.323Y-119.892
X82.45Y-123.575
X82.45Y-124.845
X82.831Y-84.713
X82.831Y-89.793
X82.831Y-91.571
X82.831Y-97.667
X84.482Y-86.364
X84.482Y-87.634
X84.482Y-89.031
X84.543Y-94.68
X85.117Y-75.823
X85.625Y-67.695
X85.879Y-105.541
X85.879Y-107.446
X86.133Y-74.807
X87.53Y-101.35
X87.657Y-104.652
X88.038Y-113.034
X88.038Y-115.574
X88.419Y-123.829
X88.419Y-127.004
X89.181Y-118.749
X89.816Y-69.727
X90.197Y-123.067
X90.324Y-118.368
X90.705Y-113.034
X90.705Y-115.574
X90.832Y-81.792
X90.832Y-86.237
X90.832Y-90.682
X90.832Y-95.127
X90.832Y-99.572
X90.959Y-127.004
X90.959Y-128.909
X91.213Y-123.702
X91.467Y-117.987
X92.102Y-69.727
X92.737Y-67.314
X94.007Y-75.442
X95.912Y-81.792
X95.912Y-86.237
X95.912Y-90.682
X95.912Y-95.127
X95.912Y-99.572
X96.801Y-74.172
X97.563Y-75.061
X98.325Y-74.172
X98.899Y-71.82
X99.087Y-75.061
X99.849Y-74.172
X100.357Y-67.314
X100.611Y-75.061
X100.738Y-104.525
X100.992Y-81.665
X100.992Y-86.237
X100.992Y-90.682
X100.992Y-95.127
X100.992Y-99.572
X101.5Y-74.172
X104.548Y-104.398
X106.199Y-104.398
X106.961Y-70.87
X107.342Y-97.921
X107.342Y-109.605
X107.469Y-99.318
X107.593Y-81.795
X107.596Y-80.268
X107.786Y-90.111
X108.294Y-100.27
X108.612Y-67.822
X108.612Y-79.506
X108.612Y-81.03
X108.612Y-82.681
X108.866Y-119.638
X110.263Y-85.094
X111.279Y-98.683
X111.279Y-100.207
X111.279Y-101.731
X111.406Y-85.729
X111.533Y-103.255
X112.676Y-130.052
X113.946Y-116.336
X113.946Y-120.527
X113.946Y-133.989
X114.835Y-89.793
X114.962Y-98.302
X114.962Y-99.572
X114.962Y-100.842
X114.962Y-102.112
X114.962Y-103.382
X115.216Y-127.893
X115.597Y-83.189
X116.232Y-91.19
X116.359Y-84.205
X116.486Y-107.446
X116.486Y-116.971
X116.994Y-67.822
X117.629Y-116.463
X117.629Y-131.576
X117.756Y-91.825
X117.756Y-93.095
X118.391Y-112.907
X118.645Y-132.211
X119.026Y-130.687
X119.153Y-112.018
X119.28Y-91.825
X119.28Y-93.095
X119.534Y-115.447
X119.915Y-114.304
X120.423Y-116.209
X120.55Y-132.211
X121.185Y-113.669
X121.566Y-95.762
X121.82Y-132.084
X122.074Y-129.036
X122.074Y-130.433
X122.328Y-86.872
X122.582Y-119.765
X122.582Y-121.035
X122.836Y-88.142
X122.836Y-95.762
X122.836Y-105.287
X123.09Y-85.856
X123.725Y-86.999
X123.852Y-119.765
X123.852Y-121.035
X124.233Y-83.697
X124.36Y-88.142
X124.36Y-90.428
X124.36Y-97.667
X124.36Y-98.937
X124.36Y-100.207
X124.36Y-101.477
X124.36Y-102.747
X124.614Y-67.822
X125.249Y-126.496
X125.503Y-132.719
X126.011Y-105.287
X126.011Y-107.827
X126.138Y-127.766
X126.773Y-82.554
X126.9Y-81.03
X127.154Y-78.109
X127.281Y-119.638
X127.789Y-100.969
X128.17Y-118.876
X128.209Y-81.069
X128.297Y-95.889
X128.304Y-108.589
X128.678Y-109.732
X128.932Y-117.987
X128.932Y-125.607
X129.694Y-71.251
X129.757Y-112.971
X130.075Y-126.115
X130.837Y-127.004
X131.091Y-131.449
X131.218Y-89.285
X131.98Y-132.338
X132.107Y-69.346
X132.869Y-74.426
X133.377Y-122.178
X133.377Y-130.56
X133.504Y-88.396
X133.504Y-113.288
X133.758Y-115.701
X133.885Y-114.558
X133.885Y-128.528
X134.012Y-133.481
X134.647Y-69.346
X134.647Y-116.082
X134.774Y-89.158
X134.774Y-132.338
X134.901Y-129.163
X135.409Y-79.252
X135.409Y-133.481
X135.6Y-126.623
X135.79Y-87.888
X135.79Y-128.528
X136.044Y-125.48
X136.806Y-124.464
X136.806Y-133.481
X137.06Y-128.528
X137.568Y-125.48
X137.634Y-86.557
X137.949Y-79.506
X137.949Y-103.255
X138.33Y-124.591
X138.584Y-133.481
X138.965Y-74.746
X139.092Y-106.049
X139.6Y-124.591
X139.854Y-123.194
X140.235Y-132.084
X140.489Y-79.252
X140.997Y-74.807
X141.124Y-84.967
X141.378Y-123.448
X141.429Y-132.281
X141.632Y-81.792
X141.759Y-76.839
X142.756Y-133.843
X143.156Y-114.812
X143.156Y-118.114
X143.283Y-72.648
X143.791Y-132.719
X143.918Y-133.862
X144.299Y-76.839
X144.426Y-82.046
X144.426Y-117.098
X144.617Y-123.003
X145.061Y-133.354
X145.188Y-117.86
X145.95Y-117.098
X146.077Y-133.989
X146.712Y-117.86
X147.474Y-79.252
X147.474Y-84.586
X147.474Y-117.098
X147.728Y-133.989
X147.982Y-86.237
X148.046Y-88.587
X148.109Y-74.807
X148.109Y-99.572
X148.109Y-102.747
X148.109Y-105.922
X148.109Y-109.097
X148.236Y-117.86
X148.49Y-122.94
X148.744Y-81.919
X148.998Y-116.971
X149.76Y-133.862
X149.887Y-119.892
X150.014Y-92.079
X150.268Y-81.919
X150.268Y-113.542
X151.157Y-123.194
X151.411Y-116.717
X151.538Y-117.987
X151.665Y-119.384
X152.173Y-82.173
X152.173Y-90.809
X152.554Y-99.572
X152.554Y-102.747
X152.554Y-105.922
X152.554Y-109.097
X153.062Y-91.698
X153.316Y-118.114
X153.824Y-90.809
X154.332Y-84.078
X154.332Y-133.862
X154.459Y-77.601
X154.586Y-91.698
X155.348Y-90.809
X155.983Y-84.078
X156.11Y-91.698
X156.999Y-105.922
X156.999Y-109.097
X157.253Y-91.698
X157.38Y-77.601
X157.38Y-92.968
X157.38Y-94.238
X157.888Y-121.162
X159.793Y-119.257
X160.555Y-77.601
X160.936Y-119.257
X162.206Y-117.987
X162.206Y-119.257
X162.206Y-125.607
X163.222Y-127.004
X163.603Y-77.601
X163.603Y-101.858
X163.603Y-104.144
X163.73Y-89.412
X164.111Y-127.766
X164.619Y-101.096
X164.625Y-88.656
X164.746Y-106.557
X165.0Y-104.271
X165.381Y-74.807
X165.381Y-127.766
X165.508Y-105.668
X166.651Y-105.16
X166.651Y-120.527
X166.651Y-122.178
X166.778Y-76.077
X167.159Y-124.083
X168.175Y-94.238
X168.937Y-127.766
X169.064Y-71.251
X169.064Y-75.569
X169.064Y-79.252
X169.318Y-67.695
X169.445Y-102.747
X169.699Y-83.443
X169.699Y-87.253
X170.207Y-108.97
X170.207Y-127.766
X170.969Y-98.302
X171.477Y-102.747
X171.477Y-127.766
X171.858Y-75.188
X171.858Y-122.813
X172.747Y-127.766
X173.255Y-67.695
X173.255Y-71.251
X173.382Y-109.478
X173.509Y-89.793
X173.763Y-76.458
X173.763Y-79.76
X174.017Y-96.016
X174.271Y-115.701
X174.652Y-127.893
X175.033Y-111.129
X175.16Y-98.302
X175.16Y-100.522
X175.414Y-104.017
X176.303Y-115.701
X177.7Y-104.652
X178.081Y-76.458
X178.081Y-79.76
X178.208Y-67.695
X178.335Y-115.701
X178.716Y-133.481
X178.97Y-96.016
X178.97Y-109.478
X179.351Y-111.637
X179.732Y-85.602
X180.113Y-108.335
X180.367Y-132.973
X180.875Y-96.016
X181.256Y-118.241
X181.51Y-109.986
X182.145Y-133.227
X182.907Y-76.458
X182.907Y-79.76
X183.034Y-67.695
X184.685Y-133.989
X184.812Y-124.464
X184.939Y-104.017
X185.193Y-132.719
X185.32Y-91.063
X186.082Y-124.718
X187.225Y-133.354
X187.606Y-67.695
X187.733Y-76.458
X187.733Y-79.76
X187.86Y-127.385
X189.765Y-133.989
X191.67Y-111.637
X192.051Y-108.589
X192.305Y-132.719
X192.305Y-133.989
X192.432Y-67.695
X193.067Y-95.0
X193.321Y-76.458
X193.321Y-79.76
X194.083Y-90.047
X194.083Y-91.698
X194.718Y-131.576
X194.718Y-132.846
X194.845Y-118.495
X195.226Y-105.033
X195.988Y-106.176
X196.305Y-83.126
X196.496Y-67.695
X196.75Y-71.886
X197.004Y-99.572
X197.131Y-118.495
X197.258Y-130.179
X198.02Y-108.081
X198.02Y-109.986
X199.544Y-118.495
X199.925Y-78.744
X199.925Y-133.481
X200.814Y-67.695
X201.83Y-118.495
X202.211Y-122.813
X202.846Y-124.972
X203.1Y-107.827
X203.354Y-97.54
X203.608Y-121.416
X203.608Y-122.813
X203.862Y-91.825
X203.862Y-95.254
X204.116Y-84.967
X204.116Y-87.126
X204.116Y-89.539
X204.243Y-111.256
X204.243Y-114.812
X204.497Y-102.874
X204.751Y-119.892
X204.878Y-104.017
X204.878Y-106.557
X205.132Y-125.226
X205.132Y-126.623
X205.259Y-67.695
X206.402Y-99.318
X206.529Y-73.41
X206.656Y-75.442
X207.418Y-115.447
X207.545Y-78.744
X208.18Y-109.859
X208.815Y-101.858
X209.577Y-118.876
X209.704Y-120.908
X210.085Y-104.017
X210.593Y-99.699
X210.593Y-121.67
X212.371Y-124.21
X212.498Y-121.543
X213.514Y-81.284
X213.514Y-115.447
X213.768Y-97.413
X214.403Y-129.417
X215.673Y-111.002
X215.673Y-136.529
X216.308Y-97.413
X216.435Y-68.899
X216.435Y-71.444
X216.435Y-77.093
X220.626Y-111.002
X224.436Y-74.553
X224.436Y-82.681
X224.436Y-87.126
X224.436Y-95.254
X224.436Y-99.699
X225.198Y-105.922
X225.198Y-111.002
X225.198Y-116.59
X225.198Y-121.543
X225.198Y-126.75
X225.198Y-131.703
X225.198Y-135.64
X225.833Y-70.616
T3
X198.576Y-74.934
X200.576Y-74.934
X202.576Y-74.934
X204.576Y-74.934
X206.783Y-102.112
X206.783Y-104.112
X206.783Y-106.112
X206.783Y-108.112
T4
X86.006Y-129.29
X88.506Y-129.29
X99.616Y-105.647
X99.616Y-117.447
X99.616Y-120.76
X99.616Y-132.56
X108.866Y-109.097
X108.866Y-113.997
X108.866Y-124.21
X108.866Y-129.11
X109.374Y-72.32
X109.374Y-77.22
X118.624Y-68.87
X118.624Y-80.67
X127.916Y-129.925
X129.059Y-69.092
X129.059Y-79.252
X130.416Y-129.925
X150.014Y-79.125
X150.014Y-89.285
X153.062Y-116.59
X153.062Y-124.21
X155.602Y-116.59
X155.602Y-124.21
X158.142Y-116.59
X158.142Y-124.21
X160.682Y-116.59
X160.682Y-124.21
X165.762Y-92.714
X165.762Y-97.667
X168.262Y-92.714
X168.262Y-97.667
X172.493Y-84.078
X172.62Y-92.714
X173.255Y-74.172
X173.255Y-81.792
X175.033Y-84.078
X175.12Y-92.714
X175.795Y-74.172
X175.795Y-81.792
X177.573Y-84.078
X178.335Y-74.172
X178.335Y-81.792
X178.97Y-92.714
X179.732Y-69.854
X180.113Y-84.078
X181.47Y-92.714
X182.232Y-69.854
X182.653Y-84.078
X185.193Y-84.078
X185.32Y-92.714
X185.955Y-69.854
X185.955Y-74.172
X185.955Y-81.792
X187.733Y-84.078
X187.82Y-92.714
X188.455Y-69.854
X188.495Y-74.172
X188.495Y-81.792
X190.273Y-84.078
X191.035Y-74.172
X191.035Y-81.792
X191.67Y-88.269
X191.67Y-93.984
X192.178Y-115.955
X192.813Y-84.078
X193.575Y-111.002
X194.17Y-88.269
X194.17Y-93.984
X194.718Y-115.955
X196.075Y-111.002
X197.258Y-115.955
X198.655Y-85.094
X198.655Y-93.222
X200.687Y-100.207
X200.687Y-105.287
X202.155Y-85.094
X202.155Y-93.222
X202.338Y-131.703
X203.187Y-100.207
X203.187Y-105.287
X212.498Y-131.703
T5
X74.703Y-78.49
X74.703Y-81.03
X74.703Y-83.57
X74.703Y-86.11
X74.703Y-88.65
X74.703Y-91.19
X74.703Y-93.73
X74.703Y-96.27
X74.703Y-98.81
X74.703Y-101.35
X74.703Y-103.89
X74.703Y-106.43
X74.703Y-108.97
X74.703Y-111.51
X74.703Y-114.05
X74.703Y-116.59
X74.703Y-119.13
X74.703Y-121.67
X74.703Y-124.21
X74.703Y-126.75
X77.243Y-78.49
X77.243Y-81.03
X77.243Y-83.57
X77.243Y-86.11
X77.243Y-88.65
X77.243Y-91.19
X77.243Y-93.73
X77.243Y-96.27
X77.243Y-98.81
X77.243Y-101.35
X77.243Y-103.89
X77.243Y-106.43
X77.243Y-108.97
X77.243Y-111.51
X77.243Y-114.05
X77.243Y-116.59
X77.243Y-119.13
X77.243Y-121.67
X77.243Y-124.21
X77.243Y-126.75
X136.933Y-70.616
X136.933Y-73.156
X139.473Y-70.616
X139.473Y-73.156
X142.013Y-70.616
X142.013Y-73.156
X144.553Y-70.616
X144.553Y-73.156
X147.093Y-70.616
X147.093Y-73.156
X149.633Y-70.616
X149.633Y-73.156
X152.173Y-70.616
X152.173Y-73.156
X154.713Y-70.616
X154.713Y-73.156
X157.253Y-70.616
X157.253Y-73.156
X159.793Y-70.616
X159.793Y-73.156
X162.333Y-70.616
X162.333Y-73.156
X164.873Y-70.616
X164.873Y-73.156
X167.413Y-70.616
X167.413Y-73.156
X189.13Y-98.302
X189.13Y-100.842
X189.13Y-103.382
X191.67Y-98.302
X191.67Y-100.842
X191.67Y-103.382
X198.655Y-69.854
X201.195Y-69.854
X202.338Y-110.875
X202.338Y-113.415
X202.338Y-115.955
X203.735Y-69.854
X206.275Y-69.854
X211.863Y-68.076
X211.863Y-70.616
X211.863Y-73.156
X211.863Y-75.696
X211.863Y-80.776
X211.863Y-83.316
X211.863Y-85.856
X211.863Y-88.396
X211.863Y-93.349
X211.863Y-95.889
X211.863Y-98.429
X211.863Y-100.969
X217.324Y-113.923
X217.324Y-116.693
X217.324Y-119.463
X217.324Y-122.233
X217.324Y-125.003
X217.324Y-127.773
X217.324Y-130.543
X217.324Y-133.313
X220.164Y-115.308
X220.164Y-118.078
X220.164Y-120.848
X220.164Y-123.618
X220.164Y-126.388
X220.164Y-129.158
X220.164Y-131.928
T6
X185.32Y-109.732
X185.32Y-119.892
X189.13Y-109.732
X189.13Y-119.892
T7
X218.744Y-106.968
X218.744Y-140.268
T2
G00X220.698Y-67.013
M15
G01X219.698Y-67.013
M16
G05
G00X219.698Y-77.013
M15
G01X220.698Y-77.013
M16
G05
G00X220.698Y-79.586
M15
G01X219.698Y-79.586
M16
G05
G00X219.698Y-89.586
M15
G01X220.698Y-89.586
M16
G05
G00X220.698Y-92.159
M15
G01X219.698Y-92.159
M16
G05
G00X219.698Y-102.159
M15
G01X220.698Y-102.159
M16
G05
G00X225.198Y-72.513
M15
G01X225.198Y-71.513
M16
G05
G00X225.198Y-85.086
M15
G01X225.198Y-84.086
M16
G05
G00X225.198Y-97.659
M15
G01X225.198Y-96.659
M16
G05
T4
G00X180.875Y-74.172
M15
G01X183.415Y-74.172
M16
G05
G00X180.875Y-74.172
M15
G01X183.415Y-74.172
M16
G05
G00X180.875Y-81.792
M15
G01X183.415Y-81.792
M16
G05
G00X180.875Y-81.792
M15
G01X183.415Y-81.792
M16
G05
G00X220.548Y-69.513
M15
G01X219.848Y-69.513
M16
G05
G00X219.848Y-74.513
M15
G01X220.548Y-74.513
M16
G05
G00X220.548Y-82.086
M15
G01X219.848Y-82.086
M16
G05
G00X219.848Y-87.086
M15
G01X220.548Y-87.086
M16
G05
G00X220.548Y-94.659
M15
G01X219.848Y-94.659
M16
G05
G00X219.848Y-99.659
M15
G01X220.548Y-99.659
M16
G05
M30
