M48
; DRILL file {KiCad 9.0.9} date 2026-08-02T15:11:29+0800
; FORMAT={-:-/ absolute / inch / decimal}
; #@! TF.CreationDate,2026-08-02T15:11:29+08:00
; #@! TF.GenerationSoftware,Kicad,Pcbnew,9.0.9
; #@! TF.FileFunction,Plated,1,2,PTH
FMAT,2
INCH
; #@! TA.AperFunction,Plated,PTH,ViaDrill
T1C0.0118
; #@! TA.AperFunction,Plated,PTH,ComponentDrill
T2C0.0157
; #@! TA.AperFunction,Plated,PTH,ComponentDrill
T3C0.0295
; #@! TA.AperFunction,Plated,PTH,ComponentDrill
T4C0.0315
; #@! TA.AperFunction,Plated,PTH,ComponentDrill
T5C0.0394
; #@! TA.AperFunction,Plated,PTH,ComponentDrill
T6C0.0433
; #@! TA.AperFunction,Plated,PTH,ComponentDrill
T7C0.1260
%
G90
G05
T1
X2.8411Y-2.9152
X2.8411Y-3.1402
X2.8411Y-3.4402
X2.8411Y-3.7402
X2.8411Y-4.0402
X2.8461Y-4.2902
X2.8461Y-4.5402
X2.8461Y-4.7602
X2.8461Y-4.9802
X2.8461Y-5.1902
X2.9961Y-5.0852
X3.0311Y-5.0502
X3.1461Y-2.6652
X3.1461Y-2.9152
X3.1461Y-3.0902
X3.2261Y-3.5652
X3.2311Y-4.3002
X3.2311Y-4.3502
X3.2311Y-4.4002
X3.2311Y-4.6552
X3.2411Y-4.7202
X3.2461Y-4.8652
X3.2461Y-4.9152
X3.2611Y-3.3352
X3.2611Y-3.5352
X3.2611Y-3.6052
X3.2611Y-3.8452
X3.3261Y-3.4002
X3.3261Y-3.4502
X3.3261Y-3.5052
X3.3285Y-3.7276
X3.3511Y-2.9852
X3.3711Y-2.6652
X3.3811Y-4.1552
X3.3811Y-4.2302
X3.3911Y-2.9452
X3.4461Y-3.9902
X3.4511Y-4.1202
X3.4661Y-4.4502
X3.4661Y-4.5502
X3.4811Y-4.8752
X3.4811Y-5.0002
X3.5111Y-4.6752
X3.5361Y-2.7452
X3.5511Y-4.8452
X3.5561Y-4.6602
X3.5711Y-4.4502
X3.5711Y-4.5502
X3.5761Y-3.2202
X3.5761Y-3.3952
X3.5761Y-3.5702
X3.5761Y-3.7452
X3.5761Y-3.9202
X3.5811Y-5.0002
X3.5811Y-5.0752
X3.5911Y-4.8702
X3.6011Y-4.6452
X3.6261Y-2.7452
X3.6511Y-2.6502
X3.7011Y-2.9702
X3.7761Y-3.2202
X3.7761Y-3.3952
X3.7761Y-3.5702
X3.7761Y-3.7452
X3.7761Y-3.9202
X3.8111Y-2.9202
X3.8411Y-2.9552
X3.8711Y-2.9202
X3.8937Y-2.8276
X3.9011Y-2.9552
X3.9311Y-2.9202
X3.9511Y-2.6502
X3.9611Y-2.9552
X3.9661Y-4.1152
X3.9761Y-3.2152
X3.9761Y-3.3952
X3.9761Y-3.5702
X3.9761Y-3.7452
X3.9761Y-3.9202
X3.9961Y-2.9202
X4.1161Y-4.1102
X4.1811Y-4.1102
X4.2111Y-2.7902
X4.2261Y-3.8552
X4.2261Y-4.3152
X4.2311Y-3.9102
X4.2359Y-3.2203
X4.2361Y-3.1602
X4.2436Y-3.5477
X4.2636Y-3.9477
X4.2761Y-2.6702
X4.2761Y-3.1302
X4.2761Y-3.1902
X4.2761Y-3.2552
X4.2861Y-4.7102
X4.3411Y-3.3502
X4.3811Y-3.8852
X4.3811Y-3.9452
X4.3811Y-4.0052
X4.3861Y-3.3752
X4.3911Y-4.0652
X4.4361Y-5.1202
X4.4861Y-4.5802
X4.4861Y-4.7452
X4.4861Y-5.2752
X4.5211Y-3.5352
X4.5261Y-3.8702
X4.5261Y-3.9202
X4.5261Y-3.9702
X4.5261Y-4.0202
X4.5261Y-4.0702
X4.5361Y-5.0352
X4.5511Y-3.2752
X4.5761Y-3.5902
X4.5811Y-3.3152
X4.5861Y-4.2302
X4.5861Y-4.6052
X4.6061Y-2.6702
X4.6311Y-4.5852
X4.6311Y-5.1802
X4.6361Y-3.6152
X4.6361Y-3.6652
X4.6611Y-4.4452
X4.6711Y-5.2052
X4.6861Y-5.1452
X4.6911Y-4.4102
X4.6961Y-3.6152
X4.6961Y-3.6652
X4.7061Y-4.5452
X4.7211Y-4.5002
X4.7411Y-4.5752
X4.7461Y-5.2052
X4.7711Y-4.4752
X4.7861Y-3.7702
X4.7961Y-5.2002
X4.8061Y-5.0802
X4.8061Y-5.1352
X4.8161Y-3.4202
X4.8261Y-4.7152
X4.8261Y-4.7652
X4.8361Y-3.4702
X4.8361Y-3.7702
X4.8361Y-4.1452
X4.8461Y-3.3802
X4.8711Y-3.4252
X4.8761Y-4.7152
X4.8761Y-4.7652
X4.8911Y-3.2952
X4.8961Y-3.4702
X4.8961Y-3.5602
X4.8961Y-3.8452
X4.8961Y-3.8952
X4.8961Y-3.9452
X4.8961Y-3.9952
X4.8961Y-4.0452
X4.9061Y-2.6702
X4.9261Y-5.2402
X4.9311Y-4.9802
X4.9611Y-4.1452
X4.9611Y-4.2452
X4.9661Y-5.0302
X4.9911Y-3.2502
X4.9961Y-3.1902
X5.0061Y-3.0752
X5.0111Y-4.7102
X5.0311Y-3.9752
X5.0461Y-4.6802
X5.0476Y-3.1917
X5.0511Y-3.7752
X5.0513Y-4.2752
X5.0661Y-4.3202
X5.0761Y-4.6452
X5.0761Y-4.9452
X5.1061Y-2.8052
X5.1086Y-4.4477
X5.1211Y-4.9652
X5.1511Y-5.0002
X5.1611Y-5.1752
X5.1661Y-3.5152
X5.1961Y-5.2102
X5.2011Y-2.7302
X5.2311Y-2.9302
X5.2311Y-5.2352
X5.2511Y-4.8102
X5.2511Y-5.1402
X5.2561Y-3.4802
X5.2561Y-4.4602
X5.2661Y-4.5552
X5.2711Y-4.5102
X5.2711Y-5.0602
X5.2827Y-5.2102
X5.2861Y-5.2552
X5.3011Y-2.7302
X5.3011Y-4.5702
X5.3061Y-3.5102
X5.3111Y-5.0852
X5.3261Y-5.2552
X5.3311Y-3.1202
X5.3386Y-4.9852
X5.3461Y-3.4602
X5.3461Y-5.0602
X5.3561Y-4.9402
X5.3861Y-4.9002
X5.3961Y-5.0602
X5.4161Y-4.9402
X5.4187Y-3.4078
X5.4261Y-5.2552
X5.4311Y-3.1302
X5.4311Y-4.0652
X5.4461Y-4.9052
X5.4711Y-2.9428
X5.4761Y-4.1752
X5.4961Y-4.9052
X5.5061Y-4.8502
X5.5211Y-5.2002
X5.5311Y-3.1202
X5.5511Y-2.9452
X5.5561Y-3.3452
X5.5561Y-5.2079
X5.5661Y-4.8602
X5.5761Y-3.2202
X5.5778Y-5.2703
X5.5811Y-3.0252
X5.6111Y-5.2602
X5.6361Y-4.5202
X5.6361Y-4.6502
X5.6411Y-2.8602
X5.6414Y-5.2405
X5.6711Y-5.2552
X5.6811Y-3.0252
X5.6861Y-3.2302
X5.6861Y-4.6102
X5.6936Y-4.8427
X5.6961Y-5.2802
X5.7161Y-4.6402
X5.7461Y-4.6102
X5.7761Y-4.6402
X5.8061Y-3.1202
X5.8061Y-3.3302
X5.8061Y-4.6102
X5.8161Y-5.2752
X5.8261Y-3.3952
X5.8286Y-3.4877
X5.8311Y-2.9452
X5.8311Y-3.9202
X5.8311Y-4.0452
X5.8311Y-4.1702
X5.8311Y-4.2952
X5.8361Y-4.6402
X5.8461Y-4.8402
X5.8561Y-3.2252
X5.8661Y-4.6052
X5.8961Y-5.2702
X5.9011Y-4.7202
X5.9061Y-3.6252
X5.9161Y-3.2252
X5.9161Y-4.4702
X5.9511Y-4.8502
X5.9611Y-4.5952
X5.9661Y-4.6452
X5.9711Y-4.7002
X5.9911Y-3.2352
X5.9911Y-3.5752
X6.0061Y-3.9202
X6.0061Y-4.0452
X6.0061Y-4.1702
X6.0061Y-4.2952
X6.0261Y-3.6102
X6.0261Y-5.2702
X6.0361Y-4.6502
X6.0561Y-3.5752
X6.0761Y-3.3102
X6.0811Y-3.0552
X6.0861Y-3.6102
X6.1161Y-3.5752
X6.1411Y-3.3102
X6.1461Y-3.6102
X6.1811Y-4.1702
X6.1811Y-4.2952
X6.1911Y-3.6102
X6.1961Y-3.0552
X6.1961Y-3.6602
X6.1961Y-3.7102
X6.2161Y-4.7702
X6.2911Y-4.6952
X6.3211Y-3.0552
X6.3361Y-4.6952
X6.3861Y-4.6452
X6.3861Y-4.6952
X6.3861Y-4.9452
X6.4261Y-5.0002
X6.4411Y-3.0552
X6.4411Y-4.0102
X6.4411Y-4.1002
X6.4461Y-3.5202
X6.4611Y-5.0302
X6.4811Y-3.9802
X6.4813Y-3.4904
X6.4861Y-4.1952
X6.4961Y-4.1052
X6.5111Y-2.9452
X6.5111Y-5.0302
X6.5161Y-4.1602
X6.5611Y-4.1402
X6.5611Y-4.7452
X6.5611Y-4.8102
X6.5661Y-2.9952
X6.5811Y-4.8852
X6.6211Y-3.7102
X6.6511Y-5.0302
X6.6561Y-2.8052
X6.6561Y-2.9752
X6.6561Y-3.1202
X6.6661Y-2.6652
X6.6711Y-4.0452
X6.6811Y-3.2852
X6.6811Y-3.4352
X6.7011Y-4.2902
X6.7011Y-5.0302
X6.7311Y-3.8702
X6.7511Y-4.0452
X6.7511Y-5.0302
X6.7661Y-2.9602
X6.7661Y-4.8352
X6.8011Y-5.0302
X6.8211Y-2.6652
X6.8211Y-2.8052
X6.8261Y-4.3102
X6.8311Y-3.5352
X6.8411Y-3.0102
X6.8411Y-3.1402
X6.8511Y-3.7802
X6.8611Y-4.5552
X6.8761Y-5.0352
X6.8911Y-4.3752
X6.8961Y-3.8702
X6.8961Y-3.9576
X6.9061Y-4.0952
X6.9411Y-4.5552
X6.9961Y-4.1202
X7.0111Y-3.0102
X7.0111Y-3.1402
X7.0161Y-2.6652
X7.0211Y-4.5552
X7.0261Y-5.2652
X7.0461Y-3.7802
X7.0461Y-4.3102
X7.0611Y-4.3952
X7.0761Y-3.3702
X7.0811Y-5.2302
X7.0911Y-4.2652
X7.1211Y-3.7802
X7.1261Y-4.6552
X7.1261Y-5.2652
X7.1461Y-4.3302
X7.2011Y-3.0102
X7.2011Y-3.1402
X7.2011Y-5.2652
X7.2061Y-2.6652
X7.2361Y-5.2252
X7.2761Y-4.9002
X7.2811Y-4.0952
X7.2961Y-3.5852
X7.3261Y-4.9102
X7.3261Y-5.2196
X7.3861Y-2.6652
X7.3911Y-3.0102
X7.3911Y-3.1402
X7.3961Y-5.0152
X7.4261Y-5.2752
X7.5261Y-5.2752
X7.5461Y-4.3952
X7.5611Y-4.2752
X7.5711Y-5.2252
X7.5761Y-2.6652
X7.6011Y-3.7402
X7.6111Y-3.0102
X7.6111Y-3.1402
X7.6411Y-3.5452
X7.6411Y-3.6102
X7.6661Y-5.1802
X7.6661Y-5.2302
X7.6711Y-4.6652
X7.6861Y-4.1352
X7.7161Y-4.1802
X7.7286Y-3.2727
X7.7361Y-2.6652
X7.7461Y-2.8302
X7.7561Y-3.9202
X7.7611Y-4.6652
X7.7661Y-5.1252
X7.7961Y-4.2552
X7.7961Y-4.3302
X7.8261Y-5.2552
X7.8561Y-4.6652
X7.8711Y-3.1002
X7.9061Y-2.6652
X7.9461Y-4.6652
X7.9611Y-4.8352
X7.9861Y-4.9202
X7.9961Y-4.2452
X8.0061Y-3.8402
X8.0161Y-4.7802
X8.0161Y-4.8352
X8.0261Y-3.6152
X8.0261Y-3.7502
X8.0361Y-3.3452
X8.0361Y-3.4302
X8.0361Y-3.5252
X8.0411Y-4.3802
X8.0411Y-4.5202
X8.0511Y-4.0502
X8.0611Y-4.7202
X8.0661Y-4.0952
X8.0661Y-4.1952
X8.0761Y-4.9302
X8.0761Y-4.9852
X8.0811Y-2.6652
X8.1261Y-3.9102
X8.1311Y-2.8902
X8.1361Y-2.9702
X8.1661Y-4.5452
X8.1711Y-3.1002
X8.1961Y-4.3252
X8.2211Y-4.0102
X8.2511Y-4.6802
X8.2561Y-4.7602
X8.2711Y-4.0952
X8.2911Y-3.9252
X8.2911Y-4.7902
X8.3611Y-4.8902
X8.3661Y-4.7852
X8.4061Y-3.2002
X8.4061Y-4.5452
X8.4161Y-3.8352
X8.4411Y-5.0952
X8.4911Y-4.3702
X8.4911Y-5.3752
X8.5161Y-3.8352
X8.5211Y-2.7126
X8.5211Y-2.8128
X8.5211Y-3.0352
X8.6861Y-4.3702
X8.8361Y-2.9352
X8.8361Y-3.2552
X8.8361Y-3.4302
X8.8361Y-3.7502
X8.8361Y-3.9252
X8.8661Y-4.1702
X8.8661Y-4.3702
X8.8661Y-4.5902
X8.8661Y-4.7852
X8.8661Y-4.9902
X8.8661Y-5.1852
X8.8661Y-5.3402
X8.8911Y-2.7802
T3
X7.818Y-2.9502
X7.8967Y-2.9502
X7.9754Y-2.9502
X8.0542Y-2.9502
X8.1411Y-4.0202
X8.1411Y-4.0989
X8.1411Y-4.1776
X8.1411Y-4.2564
T4
X3.3861Y-5.0902
X3.4845Y-5.0902
X3.9219Y-4.1593
X3.9219Y-4.6239
X3.9219Y-4.7543
X3.9219Y-5.2189
X4.2861Y-4.2952
X4.2861Y-4.4881
X4.2861Y-4.8902
X4.2861Y-5.0831
X4.3061Y-2.8472
X4.3061Y-3.0402
X4.6702Y-2.7114
X4.6702Y-3.176
X5.0361Y-5.1152
X5.0811Y-2.7202
X5.0811Y-3.1202
X5.1345Y-5.1152
X5.9061Y-3.1152
X5.9061Y-3.5152
X6.0261Y-4.5902
X6.0261Y-4.8902
X6.1261Y-4.5902
X6.1261Y-4.8902
X6.2261Y-4.5902
X6.2261Y-4.8902
X6.3261Y-4.5902
X6.3261Y-4.8902
X6.5261Y-3.6502
X6.5261Y-3.8452
X6.6245Y-3.6502
X6.6245Y-3.8452
X6.7911Y-3.3102
X6.7961Y-3.6502
X6.8211Y-2.9202
X6.8211Y-3.2202
X6.8911Y-3.3102
X6.8945Y-3.6502
X6.9211Y-2.9202
X6.9211Y-3.2202
X6.9911Y-3.3102
X7.0211Y-2.9202
X7.0211Y-3.2202
X7.0461Y-3.6502
X7.0761Y-2.7502
X7.0911Y-3.3102
X7.1445Y-3.6502
X7.1745Y-2.7502
X7.1911Y-3.3102
X7.2911Y-3.3102
X7.2961Y-3.6502
X7.3211Y-2.7502
X7.3211Y-2.9202
X7.3211Y-3.2202
X7.3911Y-3.3102
X7.3945Y-3.6502
X7.4195Y-2.7502
X7.4211Y-2.9202
X7.4211Y-3.2202
X7.4911Y-3.3102
X7.5211Y-2.9202
X7.5211Y-3.2202
X7.5461Y-3.4752
X7.5461Y-3.7002
X7.5661Y-4.5652
X7.5911Y-3.3102
X7.6211Y-4.3702
X7.6445Y-3.4752
X7.6445Y-3.7002
X7.6661Y-4.5652
X7.7195Y-4.3702
X7.7661Y-4.5652
X7.8211Y-3.3502
X7.8211Y-3.6702
X7.8961Y-5.1902
X7.9011Y-3.9452
X7.9011Y-4.1452
X7.9589Y-3.3502
X7.9589Y-3.6702
X7.9995Y-3.9452
X7.9995Y-4.1452
X8.2961Y-5.1902
T5
X2.9411Y-3.0902
X2.9411Y-3.1902
X2.9411Y-3.2902
X2.9411Y-3.3902
X2.9411Y-3.4902
X2.9411Y-3.5902
X2.9411Y-3.6902
X2.9411Y-3.7902
X2.9411Y-3.8902
X2.9411Y-3.9902
X2.9411Y-4.0902
X2.9411Y-4.1902
X2.9411Y-4.2902
X2.9411Y-4.3902
X2.9411Y-4.4902
X2.9411Y-4.5902
X2.9411Y-4.6902
X2.9411Y-4.7902
X2.9411Y-4.8902
X2.9411Y-4.9902
X3.0411Y-3.0902
X3.0411Y-3.1902
X3.0411Y-3.2902
X3.0411Y-3.3902
X3.0411Y-3.4902
X3.0411Y-3.5902
X3.0411Y-3.6902
X3.0411Y-3.7902
X3.0411Y-3.8902
X3.0411Y-3.9902
X3.0411Y-4.0902
X3.0411Y-4.1902
X3.0411Y-4.2902
X3.0411Y-4.3902
X3.0411Y-4.4902
X3.0411Y-4.5902
X3.0411Y-4.6902
X3.0411Y-4.7902
X3.0411Y-4.8902
X3.0411Y-4.9902
X5.3911Y-2.7802
X5.3911Y-2.8802
X5.4911Y-2.7802
X5.4911Y-2.8802
X5.5911Y-2.7802
X5.5911Y-2.8802
X5.6911Y-2.7802
X5.6911Y-2.8802
X5.7911Y-2.7802
X5.7911Y-2.8802
X5.8911Y-2.7802
X5.8911Y-2.8802
X5.9911Y-2.7802
X5.9911Y-2.8802
X6.0911Y-2.7802
X6.0911Y-2.8802
X6.1911Y-2.7802
X6.1911Y-2.8802
X6.2911Y-2.7802
X6.2911Y-2.8802
X6.3911Y-2.7802
X6.3911Y-2.8802
X6.4911Y-2.7802
X6.4911Y-2.8802
X6.5911Y-2.7802
X6.5911Y-2.8802
X7.4461Y-3.8702
X7.4461Y-3.9702
X7.4461Y-4.0702
X7.5461Y-3.8702
X7.5461Y-3.9702
X7.5461Y-4.0702
X7.8211Y-2.7502
X7.9211Y-2.7502
X7.9661Y-4.3652
X7.9661Y-4.4652
X7.9661Y-4.5652
X8.0211Y-2.7502
X8.1211Y-2.7502
X8.3411Y-2.6802
X8.3411Y-2.7802
X8.3411Y-2.8802
X8.3411Y-2.9802
X8.3411Y-3.1802
X8.3411Y-3.2802
X8.3411Y-3.3802
X8.3411Y-3.4802
X8.3411Y-3.6752
X8.3411Y-3.7752
X8.3411Y-3.8752
X8.3411Y-3.9752
X8.5561Y-4.4852
X8.5561Y-4.5942
X8.5561Y-4.7033
X8.5561Y-4.8123
X8.5561Y-4.9214
X8.5561Y-5.0304
X8.5561Y-5.1395
X8.5561Y-5.2485
X8.6679Y-4.5397
X8.6679Y-4.6487
X8.6679Y-4.7578
X8.6679Y-4.8669
X8.6679Y-4.9759
X8.6679Y-5.085
X8.6679Y-5.194
T6
X7.2961Y-4.3202
X7.2961Y-4.7202
X7.4461Y-4.3202
X7.4461Y-4.7202
T7
X8.612Y-4.2113
X8.612Y-5.5224
T2
G00X8.6889Y-2.6383
M15
G01X8.6495Y-2.6383
M16
G05
G00X8.6495Y-3.032
M15
G01X8.6889Y-3.032
M16
G05
G00X8.6889Y-3.1333
M15
G01X8.6495Y-3.1333
M16
G05
G00X8.6495Y-3.527
M15
G01X8.6889Y-3.527
M16
G05
G00X8.6889Y-3.6283
M15
G01X8.6495Y-3.6283
M16
G05
G00X8.6495Y-4.022
M15
G01X8.6889Y-4.022
M16
G05
G00X8.8661Y-2.8548
M15
G01X8.8661Y-2.8155
M16
G05
G00X8.8661Y-3.3498
M15
G01X8.8661Y-3.3105
M16
G05
G00X8.8661Y-3.8448
M15
G01X8.8661Y-3.8055
M16
G05
T4
G00X7.1211Y-2.9202
M15
G01X7.2211Y-2.9202
M16
G05
G00X7.1211Y-2.9202
M15
G01X7.2211Y-2.9202
M16
G05
G00X7.1211Y-3.2202
M15
G01X7.2211Y-3.2202
M16
G05
G00X7.1211Y-3.2202
M15
G01X7.2211Y-3.2202
M16
G05
G00X8.683Y-2.7367
M15
G01X8.6554Y-2.7367
M16
G05
G00X8.6554Y-2.9336
M15
G01X8.683Y-2.9336
M16
G05
G00X8.683Y-3.2317
M15
G01X8.6554Y-3.2317
M16
G05
G00X8.6554Y-3.4286
M15
G01X8.683Y-3.4286
M16
G05
G00X8.683Y-3.7267
M15
G01X8.6554Y-3.7267
M16
G05
G00X8.6554Y-3.9236
M15
G01X8.683Y-3.9236
M16
G05
M30
