%TF.GenerationSoftware,KiCad,Pcbnew,9.0.9*%
%TF.CreationDate,2026-08-05T13:12:23+08:00*%
%TF.ProjectId,Audician 32 Plus Replica,41756469-6369-4616-9e20-333220506c75,0.1*%
%TF.SameCoordinates,Original*%
%TF.FileFunction,Copper,L2,Bot*%
%TF.FilePolarity,Positive*%
%FSLAX46Y46*%
G04 Gerber Fmt 4.6, Leading zero omitted, Abs format (unit mm)*
G04 Created by KiCad (PCBNEW 9.0.9) date 2026-08-05 13:12:23*
%MOMM*%
%LPD*%
G01*
G04 APERTURE LIST*
G04 Aperture macros list*
%AMRoundRect*
0 Rectangle with rounded corners*
0 $1 Rounding radius*
0 $2 $3 $4 $5 $6 $7 $8 $9 X,Y pos of 4 corners*
0 Add a 4 corners polygon primitive as box body*
4,1,4,$2,$3,$4,$5,$6,$7,$8,$9,$2,$3,0*
0 Add four circle primitives for the rounded corners*
1,1,$1+$1,$2,$3*
1,1,$1+$1,$4,$5*
1,1,$1+$1,$6,$7*
1,1,$1+$1,$8,$9*
0 Add four rect primitives between the rounded corners*
20,1,$1+$1,$2,$3,$4,$5,0*
20,1,$1+$1,$4,$5,$6,$7,0*
20,1,$1+$1,$6,$7,$8,$9,0*
20,1,$1+$1,$8,$9,$2,$3,0*%
%AMFreePoly0*
4,1,23,0.500000,-0.750000,0.000000,-0.750000,0.000000,-0.745722,-0.065263,-0.745722,-0.191342,-0.711940,-0.304381,-0.646677,-0.396677,-0.554381,-0.461940,-0.441342,-0.495722,-0.315263,-0.495722,-0.250000,-0.500000,-0.250000,-0.500000,0.250000,-0.495722,0.250000,-0.495722,0.315263,-0.461940,0.441342,-0.396677,0.554381,-0.304381,0.646677,-0.191342,0.711940,-0.065263,0.745722,0.000000,0.745722,
0.000000,0.750000,0.500000,0.750000,0.500000,-0.750000,0.500000,-0.750000,$1*%
%AMFreePoly1*
4,1,23,0.000000,0.745722,0.065263,0.745722,0.191342,0.711940,0.304381,0.646677,0.396677,0.554381,0.461940,0.441342,0.495722,0.315263,0.495722,0.250000,0.500000,0.250000,0.500000,-0.250000,0.495722,-0.250000,0.495722,-0.315263,0.461940,-0.441342,0.396677,-0.554381,0.304381,-0.646677,0.191342,-0.711940,0.065263,-0.745722,0.000000,-0.745722,0.000000,-0.750000,-0.500000,-0.750000,
-0.500000,0.750000,0.000000,0.750000,0.000000,0.745722,0.000000,0.745722,$1*%
G04 Aperture macros list end*
%TA.AperFunction,EtchedComponent*%
%ADD10C,0.000000*%
%TD*%
%TA.AperFunction,ComponentPad*%
%ADD11RoundRect,0.203125X0.446875X-0.446875X0.446875X0.446875X-0.446875X0.446875X-0.446875X-0.446875X0*%
%TD*%
%TA.AperFunction,ComponentPad*%
%ADD12C,1.300000*%
%TD*%
%TA.AperFunction,ComponentPad*%
%ADD13O,3.840000X1.300000*%
%TD*%
%TA.AperFunction,ComponentPad*%
%ADD14RoundRect,0.203125X-0.446875X-0.446875X0.446875X-0.446875X0.446875X0.446875X-0.446875X0.446875X0*%
%TD*%
%TA.AperFunction,ComponentPad*%
%ADD15C,1.500000*%
%TD*%
%TA.AperFunction,ComponentPad*%
%ADD16RoundRect,0.250000X-0.350000X0.350000X-0.350000X-0.350000X0.350000X-0.350000X0.350000X0.350000X0*%
%TD*%
%TA.AperFunction,ComponentPad*%
%ADD17RoundRect,0.220589X-0.529411X-0.529411X0.529411X-0.529411X0.529411X0.529411X-0.529411X0.529411X0*%
%TD*%
%TA.AperFunction,ComponentPad*%
%ADD18O,2.200000X1.200000*%
%TD*%
%TA.AperFunction,ComponentPad*%
%ADD19O,2.300000X1.600000*%
%TD*%
%TA.AperFunction,ComponentPad*%
%ADD20O,1.200000X2.200000*%
%TD*%
%TA.AperFunction,ComponentPad*%
%ADD21O,2.500000X1.600000*%
%TD*%
%TA.AperFunction,ComponentPad*%
%ADD22RoundRect,0.216667X0.433333X0.433333X-0.433333X0.433333X-0.433333X-0.433333X0.433333X-0.433333X0*%
%TD*%
%TA.AperFunction,ComponentPad*%
%ADD23C,4.000000*%
%TD*%
%TA.AperFunction,ComponentPad*%
%ADD24RoundRect,0.250000X0.550000X-0.550000X0.550000X0.550000X-0.550000X0.550000X-0.550000X-0.550000X0*%
%TD*%
%TA.AperFunction,ComponentPad*%
%ADD25C,1.600000*%
%TD*%
%TA.AperFunction,ComponentPad*%
%ADD26RoundRect,0.250000X-0.600000X-0.600000X0.600000X-0.600000X0.600000X0.600000X-0.600000X0.600000X0*%
%TD*%
%TA.AperFunction,ComponentPad*%
%ADD27C,1.700000*%
%TD*%
%TA.AperFunction,ComponentPad*%
%ADD28R,1.700000X1.700000*%
%TD*%
%TA.AperFunction,ConnectorPad*%
%ADD29O,1.574800X7.620000*%
%TD*%
%TA.AperFunction,ComponentPad*%
%ADD30RoundRect,0.250000X0.350000X0.625000X-0.350000X0.625000X-0.350000X-0.625000X0.350000X-0.625000X0*%
%TD*%
%TA.AperFunction,ComponentPad*%
%ADD31O,1.200000X1.750000*%
%TD*%
%TA.AperFunction,ComponentPad*%
%ADD32RoundRect,0.250000X0.350000X-0.350000X0.350000X0.350000X-0.350000X0.350000X-0.350000X-0.350000X0*%
%TD*%
%TA.AperFunction,ComponentPad*%
%ADD33RoundRect,0.181818X-0.618182X0.618182X-0.618182X-0.618182X0.618182X-0.618182X0.618182X0.618182X0*%
%TD*%
%TA.AperFunction,ComponentPad*%
%ADD34RoundRect,0.220588X-0.529412X0.529412X-0.529412X-0.529412X0.529412X-0.529412X0.529412X0.529412X0*%
%TD*%
%TA.AperFunction,ComponentPad*%
%ADD35RoundRect,0.250000X0.625000X-0.350000X0.625000X0.350000X-0.625000X0.350000X-0.625000X-0.350000X0*%
%TD*%
%TA.AperFunction,ComponentPad*%
%ADD36O,1.750000X1.200000*%
%TD*%
%TA.AperFunction,ComponentPad*%
%ADD37RoundRect,0.250000X0.600000X-0.600000X0.600000X0.600000X-0.600000X0.600000X-0.600000X-0.600000X0*%
%TD*%
%TA.AperFunction,SMDPad,CuDef*%
%ADD38FreePoly0,90.000000*%
%TD*%
%TA.AperFunction,SMDPad,CuDef*%
%ADD39FreePoly1,90.000000*%
%TD*%
%TA.AperFunction,ViaPad*%
%ADD40C,0.600000*%
%TD*%
%TA.AperFunction,Conductor*%
%ADD41C,0.500000*%
%TD*%
%TA.AperFunction,Conductor*%
%ADD42C,1.574800*%
%TD*%
%TA.AperFunction,Conductor*%
%ADD43C,1.000000*%
%TD*%
%TA.AperFunction,Conductor*%
%ADD44C,0.200000*%
%TD*%
%TA.AperFunction,Conductor*%
%ADD45C,0.300000*%
%TD*%
G04 APERTURE END LIST*
D10*
%TA.AperFunction,EtchedComponent*%
%TO.C,SJL5*%
G36*
X223593000Y-103124000D02*
G01*
X222993000Y-103124000D01*
X222993000Y-102624000D01*
X223593000Y-102624000D01*
X223593000Y-103124000D01*
G37*
%TD.AperFunction*%
%TA.AperFunction,EtchedComponent*%
%TO.C,SJL6*%
G36*
X217243000Y-103124000D02*
G01*
X216643000Y-103124000D01*
X216643000Y-102624000D01*
X217243000Y-102624000D01*
X217243000Y-103124000D01*
G37*
%TD.AperFunction*%
%TD*%
D11*
%TO.P,U5,1,BRIDGE*%
%TO.N,GNDA*%
X173255000Y-81792000D03*
D12*
%TO.P,U5,2,OUT.2*%
%TO.N,/Amplifier/AMP_OUTL*%
X175795000Y-81792000D03*
%TO.P,U5,3,BOOT.2*%
%TO.N,Net-(U5-BOOT.2)*%
X178335000Y-81792000D03*
D13*
%TO.P,U5,4,GND*%
%TO.N,GNDA*%
X182145000Y-81792000D03*
%TO.P,U5,5,GND*%
X182145000Y-81792000D03*
D12*
%TO.P,U5,6,FEEDBACK*%
%TO.N,Net-(R18-Pad2)*%
X185955000Y-81792000D03*
%TO.P,U5,7,IN.2(+)*%
%TO.N,/Amplifier/AMP_INL*%
X188495000Y-81792000D03*
%TO.P,U5,8,SVR*%
%TO.N,/Amplifier/SVRR*%
X191035000Y-81792000D03*
%TO.P,U5,9,GND_(SUB.)*%
%TO.N,GNDA*%
X191035000Y-74172000D03*
%TO.P,U5,10,IN.1_(+)*%
%TO.N,/Amplifier/AMP_INR*%
X188495000Y-74172000D03*
%TO.P,U5,11,FEEDBACK*%
%TO.N,Net-(R7-Pad2)*%
X185955000Y-74172000D03*
D13*
%TO.P,U5,12,GND*%
%TO.N,GNDA*%
X182145000Y-74172000D03*
%TO.P,U5,13,GND*%
X182145000Y-74172000D03*
D12*
%TO.P,U5,14,BOOT.1*%
%TO.N,Net-(U5-BOOT.1)*%
X178335000Y-74172000D03*
%TO.P,U5,15,OUT.1*%
%TO.N,/Amplifier/AMP_OUTR*%
X175795000Y-74172000D03*
%TO.P,U5,16,+VS*%
%TO.N,AMPVDD2*%
X173255000Y-74172000D03*
%TD*%
D14*
%TO.P,CT13,1*%
%TO.N,+5VA*%
X200687000Y-105287000D03*
D12*
%TO.P,CT13,2*%
%TO.N,GNDA*%
X203187000Y-105287000D03*
%TD*%
D14*
%TO.P,CT9,1*%
%TO.N,SJ4_3*%
X191670000Y-93984000D03*
D12*
%TO.P,CT9,2*%
%TO.N,Net-(CT9-Pad2)*%
X194170000Y-93984000D03*
%TD*%
D14*
%TO.P,CT7,1*%
%TO.N,Net-(U5-BOOT.2)*%
X178970000Y-92714000D03*
D12*
%TO.P,CT7,2*%
%TO.N,/Amplifier/AMP_OUTL*%
X181470000Y-92714000D03*
%TD*%
D14*
%TO.P,CT1,1*%
%TO.N,Net-(U5-BOOT.1)*%
X179732000Y-69854000D03*
D12*
%TO.P,CT1,2*%
%TO.N,/Amplifier/AMP_OUTR*%
X182232000Y-69854000D03*
%TD*%
D11*
%TO.P,U9,1,CS*%
%TO.N,/ROM_CS*%
X153062000Y-124210000D03*
D12*
%TO.P,U9,2,SCLK*%
%TO.N,/ROM_CLK*%
X155602000Y-124210000D03*
%TO.P,U9,3,DI*%
%TO.N,/ROM_DO*%
X158142000Y-124210000D03*
%TO.P,U9,4,DO*%
%TO.N,/ROM_DI*%
X160682000Y-124210000D03*
%TO.P,U9,5,GND*%
%TO.N,GND*%
X160682000Y-116590000D03*
%TO.P,U9,6,ORG*%
%TO.N,+5V*%
X158142000Y-116590000D03*
%TO.P,U9,7,NC*%
%TO.N,unconnected-(U9-NC-Pad7)*%
X155602000Y-116590000D03*
%TO.P,U9,8,VCC*%
%TO.N,+5V*%
X153062000Y-116590000D03*
%TD*%
D14*
%TO.P,CT2,1*%
%TO.N,Net-(CT2-Pad1)*%
X185955000Y-69854000D03*
D12*
%TO.P,CT2,2*%
%TO.N,GNDA*%
X188455000Y-69854000D03*
%TD*%
D14*
%TO.P,CT8,1*%
%TO.N,Net-(CT8-Pad1)*%
X185320000Y-92714000D03*
D12*
%TO.P,CT8,2*%
%TO.N,GNDA*%
X187820000Y-92714000D03*
%TD*%
D15*
%TO.P,X2,1,1*%
%TO.N,/X33I*%
X108866000Y-109097000D03*
%TO.P,X2,2,2*%
%TO.N,/33M*%
X108866000Y-113997000D03*
D16*
%TO.P,X2,3,3*%
%TO.N,GND*%
X99616000Y-105647000D03*
X99616000Y-117447000D03*
%TD*%
D17*
%TO.P,CN1,1,Pin_1*%
%TO.N,~{RESET}*%
X74703000Y-78490000D03*
D15*
%TO.P,CN1,2,Pin_2*%
%TO.N,GND*%
X77243000Y-78490000D03*
%TO.P,CN1,3,Pin_3*%
%TO.N,D7*%
X74703000Y-81030000D03*
%TO.P,CN1,4,Pin_4*%
%TO.N,D8*%
X77243000Y-81030000D03*
%TO.P,CN1,5,Pin_5*%
%TO.N,D6*%
X74703000Y-83570000D03*
%TO.P,CN1,6,Pin_6*%
%TO.N,D9*%
X77243000Y-83570000D03*
%TO.P,CN1,7,Pin_7*%
%TO.N,D5*%
X74703000Y-86110000D03*
%TO.P,CN1,8,Pin_8*%
%TO.N,D10*%
X77243000Y-86110000D03*
%TO.P,CN1,9,Pin_9*%
%TO.N,D4*%
X74703000Y-88650000D03*
%TO.P,CN1,10,Pin_10*%
%TO.N,D11*%
X77243000Y-88650000D03*
%TO.P,CN1,11,Pin_11*%
%TO.N,D3*%
X74703000Y-91190000D03*
%TO.P,CN1,12,Pin_12*%
%TO.N,D12*%
X77243000Y-91190000D03*
%TO.P,CN1,13,Pin_13*%
%TO.N,D2*%
X74703000Y-93730000D03*
%TO.P,CN1,14,Pin_14*%
%TO.N,D13*%
X77243000Y-93730000D03*
%TO.P,CN1,15,Pin_15*%
%TO.N,D1*%
X74703000Y-96270000D03*
%TO.P,CN1,16,Pin_16*%
%TO.N,D14*%
X77243000Y-96270000D03*
%TO.P,CN1,17,Pin_17*%
%TO.N,D0*%
X74703000Y-98810000D03*
%TO.P,CN1,18,Pin_18*%
%TO.N,D15*%
X77243000Y-98810000D03*
%TO.P,CN1,19,Pin_19*%
%TO.N,GND*%
X74703000Y-101350000D03*
%TO.P,CN1,20,Pin_20*%
%TO.N,unconnected-(CN1-Pin_20-Pad20)*%
X77243000Y-101350000D03*
%TO.P,CN1,21,Pin_21*%
%TO.N,unconnected-(CN1-Pin_21-Pad21)*%
X74703000Y-103890000D03*
%TO.P,CN1,22,Pin_22*%
%TO.N,GND*%
X77243000Y-103890000D03*
%TO.P,CN1,23,Pin_23*%
%TO.N,~{IOW}*%
X74703000Y-106430000D03*
%TO.P,CN1,24,Pin_24*%
%TO.N,GND*%
X77243000Y-106430000D03*
%TO.P,CN1,25,Pin_25*%
%TO.N,~{IOR}*%
X74703000Y-108970000D03*
%TO.P,CN1,26,Pin_26*%
%TO.N,GND*%
X77243000Y-108970000D03*
%TO.P,CN1,27,Pin_27*%
%TO.N,unconnected-(CN1-Pin_27-Pad27)*%
X74703000Y-111510000D03*
%TO.P,CN1,28,Pin_28*%
%TO.N,unconnected-(CN1-Pin_28-Pad28)*%
X77243000Y-111510000D03*
%TO.P,CN1,29,Pin_29*%
%TO.N,unconnected-(CN1-Pin_29-Pad29)*%
X74703000Y-114050000D03*
%TO.P,CN1,30,Pin_30*%
%TO.N,GND*%
X77243000Y-114050000D03*
%TO.P,CN1,31,Pin_31*%
%TO.N,CDIRQ*%
X74703000Y-116590000D03*
%TO.P,CN1,32,Pin_32*%
%TO.N,~{IOCS16}*%
X77243000Y-116590000D03*
%TO.P,CN1,33,Pin_33*%
%TO.N,A1*%
X74703000Y-119130000D03*
%TO.P,CN1,34,Pin_34*%
%TO.N,unconnected-(CN1-Pin_34-Pad34)*%
X77243000Y-119130000D03*
%TO.P,CN1,35,Pin_35*%
%TO.N,A0*%
X74703000Y-121670000D03*
%TO.P,CN1,36,Pin_36*%
%TO.N,A2*%
X77243000Y-121670000D03*
%TO.P,CN1,37,Pin_37*%
%TO.N,~{CDCS0}*%
X74703000Y-124210000D03*
%TO.P,CN1,38,Pin_38*%
%TO.N,~{CDCS1}*%
X77243000Y-124210000D03*
%TO.P,CN1,39,Pin_39*%
%TO.N,unconnected-(CN1-Pin_39-Pad39)*%
X74703000Y-126750000D03*
%TO.P,CN1,40,Pin_40*%
%TO.N,GND*%
X77243000Y-126750000D03*
%TD*%
D18*
%TO.P,J4,R*%
%TO.N,unconnected-(J4-PadR)*%
X220198000Y-102159000D03*
D19*
%TO.P,J4,RN*%
%TO.N,GNDA*%
X220198000Y-99659000D03*
D20*
%TO.P,J4,S*%
X225198000Y-97159000D03*
D18*
%TO.P,J4,T*%
%TO.N,Net-(J13-Pin_1)*%
X220198000Y-92159000D03*
D21*
%TO.P,J4,TN*%
%TO.N,GNDA*%
X220198000Y-94659000D03*
%TD*%
D22*
%TO.P,Q1,1,VO*%
%TO.N,+5VA*%
X197258000Y-115955000D03*
D12*
%TO.P,Q1,2,GND*%
%TO.N,GND*%
X194718000Y-115955000D03*
%TO.P,Q1,3,VI*%
%TO.N,AMPVDD1*%
X192178000Y-115955000D03*
%TD*%
D14*
%TO.P,CT4,1*%
%TO.N,/Amplifier/SVRR*%
X191670000Y-88269000D03*
D12*
%TO.P,CT4,2*%
%TO.N,GNDA*%
X194170000Y-88269000D03*
%TD*%
D23*
%TO.P,J5,0,PAD*%
%TO.N,GND*%
X218744000Y-140268000D03*
X218744000Y-106968000D03*
D24*
%TO.P,J5,1,1*%
%TO.N,+5VL*%
X217324000Y-113923000D03*
D25*
%TO.P,J5,2,2*%
%TO.N,GP4*%
X217324000Y-116693000D03*
%TO.P,J5,3,3*%
%TO.N,Net-(RP2B-R2.2)*%
X217324000Y-119463000D03*
%TO.P,J5,4,4*%
%TO.N,GND*%
X217324000Y-122233000D03*
%TO.P,J5,5,5*%
X217324000Y-125003000D03*
%TO.P,J5,6,6*%
%TO.N,Net-(RP2D-R4.2)*%
X217324000Y-127773000D03*
%TO.P,J5,7,7*%
%TO.N,GP5*%
X217324000Y-130543000D03*
%TO.P,J5,8,8*%
%TO.N,+5VL*%
X217324000Y-133313000D03*
%TO.P,J5,9,P9*%
X220164000Y-115308000D03*
%TO.P,J5,10,P10*%
%TO.N,GP6*%
X220164000Y-118078000D03*
%TO.P,J5,11,P111*%
%TO.N,Net-(J5-P111)*%
X220164000Y-120848000D03*
%TO.P,J5,12,P12*%
%TO.N,Net-(J5-P12)*%
X220164000Y-123618000D03*
%TO.P,J5,13,P13*%
%TO.N,Net-(J5-P13)*%
X220164000Y-126388000D03*
%TO.P,J5,14,P14*%
%TO.N,GP7*%
X220164000Y-129158000D03*
%TO.P,J5,15,P15*%
%TO.N,Net-(J5-P15)*%
X220164000Y-131928000D03*
%TD*%
D14*
%TO.P,CT14,1*%
%TO.N,AMPVDD1*%
X193575000Y-111002000D03*
D12*
%TO.P,CT14,2*%
%TO.N,GNDA*%
X196075000Y-111002000D03*
%TD*%
%TO.P,L1,1*%
%TO.N,GND*%
X129059000Y-79252000D03*
%TO.P,L1,2*%
%TO.N,GNDA*%
X129059000Y-69092000D03*
%TD*%
D26*
%TO.P,JP2,1,Pin_1*%
%TO.N,GNDA*%
X202338000Y-110875000D03*
D27*
%TO.P,JP2,2,Pin_2*%
%TO.N,Net-(JP2-Pin_2)*%
X202338000Y-113415000D03*
%TO.P,JP2,3,Pin_3*%
%TO.N,+5VA*%
X202338000Y-115955000D03*
%TD*%
D11*
%TO.P,U4,1,NON-INV_IN1*%
%TO.N,/Amplifier/AMP_INR*%
X172493000Y-84078000D03*
D12*
%TO.P,U4,2,SGND*%
%TO.N,GNDA*%
X175033000Y-84078000D03*
%TO.P,U4,3,SVRR*%
%TO.N,/Amplifier/SVRR*%
X177573000Y-84078000D03*
%TO.P,U4,4,OUT1*%
%TO.N,/Amplifier/AMP_OUTR*%
X180113000Y-84078000D03*
%TO.P,U4,5,PGND*%
%TO.N,GNDA*%
X182653000Y-84078000D03*
%TO.P,U4,6,OUT2*%
%TO.N,/Amplifier/AMP_OUTL*%
X185193000Y-84078000D03*
%TO.P,U4,7,VP*%
%TO.N,AMPVDD1*%
X187733000Y-84078000D03*
%TO.P,U4,8,M/SS*%
X190273000Y-84078000D03*
%TO.P,U4,9,NON-INV_IN2*%
%TO.N,/Amplifier/AMP_INL*%
X192813000Y-84078000D03*
%TD*%
D28*
%TO.P,JP1,1,Pin_1*%
%TO.N,SJ4_3*%
X189130000Y-98302000D03*
D27*
%TO.P,JP1,2,Pin_2*%
%TO.N,OUTPUT_L*%
X189130000Y-100842000D03*
%TO.P,JP1,3,Pin_3*%
%TO.N,/Amplifier/AMP_OUTL*%
X189130000Y-103382000D03*
%TO.P,JP1,4,Pin_4*%
%TO.N,SJ3_3*%
X191670000Y-98302000D03*
%TO.P,JP1,5,Pin_5*%
%TO.N,OUTPUT_R*%
X191670000Y-100842000D03*
%TO.P,JP1,6,Pin_6*%
%TO.N,/Amplifier/AMP_OUTR*%
X191670000Y-103382000D03*
%TD*%
D26*
%TO.P,J8,1,Pin_1*%
%TO.N,Net-(J8-Pin_1)*%
X211863000Y-80776000D03*
D27*
%TO.P,J8,2,Pin_2*%
%TO.N,GNDA*%
X211863000Y-83316000D03*
%TO.P,J8,3,Pin_3*%
X211863000Y-85856000D03*
%TO.P,J8,4,Pin_4*%
%TO.N,Net-(J8-Pin_4)*%
X211863000Y-88396000D03*
%TD*%
D26*
%TO.P,J9,1,Pin_1*%
%TO.N,Net-(J13-Pin_1)*%
X211863000Y-93349000D03*
D27*
%TO.P,J9,2,Pin_2*%
%TO.N,GNDA*%
X211863000Y-95889000D03*
%TO.P,J9,3,Pin_3*%
X211863000Y-98429000D03*
%TO.P,J9,4,Pin_4*%
%TO.N,unconnected-(J9-Pin_4-Pad4)*%
X211863000Y-100969000D03*
%TD*%
D29*
%TO.P,J1,1,GND*%
%TO.N,GND*%
X201322000Y-138815000D03*
%TO.P,J1,2,RESET*%
%TO.N,RESET*%
X198782000Y-138815000D03*
%TO.P,J1,3,+5V*%
%TO.N,+5V*%
X196242000Y-138815000D03*
%TO.P,J1,4,IRQ2*%
%TO.N,IRQ9*%
X193702000Y-138815000D03*
%TO.P,J1,7,-12V*%
%TO.N,-12V*%
X186082000Y-138815000D03*
%TO.P,J1,9,+12V*%
%TO.N,+12V*%
X181002000Y-138815000D03*
%TO.P,J1,10,GND*%
%TO.N,GND*%
X178462000Y-138815000D03*
%TO.P,J1,13,~{IOW}*%
%TO.N,~{IOW}*%
X170842000Y-138815000D03*
%TO.P,J1,14,~{IOR}*%
%TO.N,~{IOR}*%
X168302000Y-138815000D03*
%TO.P,J1,15,~{DACK3}*%
%TO.N,~{DACK3}*%
X165762000Y-138815000D03*
%TO.P,J1,16,DRQ3*%
%TO.N,DRQ3*%
X163222000Y-138815000D03*
%TO.P,J1,17,~{DACK1}*%
%TO.N,~{DACK1}*%
X160682000Y-138815000D03*
%TO.P,J1,18,DRQ1*%
%TO.N,DRQ1*%
X158142000Y-138815000D03*
%TO.P,J1,21,IRQ7*%
%TO.N,IRQ7*%
X150522000Y-138815000D03*
%TO.P,J1,23,IRQ5*%
%TO.N,IRQ5*%
X145442000Y-138815000D03*
%TO.P,J1,25,IRQ3*%
%TO.N,IRQ3*%
X140362000Y-138815000D03*
%TO.P,J1,29,VCC*%
%TO.N,+5V*%
X130202000Y-138815000D03*
%TO.P,J1,30,OSC*%
%TO.N,BUSCLK*%
X127662000Y-138815000D03*
%TO.P,J1,31,GND*%
%TO.N,GND*%
X125122000Y-138815000D03*
%TO.P,J1,64,~{IOCS16}*%
%TO.N,~{IOCS16}*%
X112422000Y-138815000D03*
%TO.P,J1,65,IRQ10*%
%TO.N,IRQ10*%
X109882000Y-138815000D03*
%TO.P,J1,66,IRQ11*%
%TO.N,IRQ11*%
X107342000Y-138815000D03*
%TO.P,J1,70,~{DACK0}*%
%TO.N,~{DACK0}*%
X97182000Y-138815000D03*
%TO.P,J1,71,DRQ0*%
%TO.N,DRQ0*%
X94642000Y-138815000D03*
%TO.P,J1,78,+5V*%
%TO.N,+5V*%
X76862000Y-138815000D03*
%TO.P,J1,80,GND*%
%TO.N,GND*%
X71782000Y-138815000D03*
%TD*%
D12*
%TO.P,L2,1*%
%TO.N,+5V*%
X150014000Y-79125000D03*
%TO.P,L2,2*%
%TO.N,+5VD*%
X150014000Y-89285000D03*
%TD*%
D14*
%TO.P,CT5,1*%
%TO.N,Net-(U6-VREFI)*%
X165762000Y-92714000D03*
D12*
%TO.P,CT5,2*%
%TO.N,GNDA*%
X168262000Y-92714000D03*
%TD*%
D14*
%TO.P,CT3,1*%
%TO.N,OUTPUT_R*%
X198655000Y-85094000D03*
D12*
%TO.P,CT3,2*%
%TO.N,Net-(J7-Pin_4)*%
X202155000Y-85094000D03*
%TD*%
D30*
%TO.P,J11,1,Pin_1*%
%TO.N,Net-(J10-Pin_4)*%
X198576000Y-74934000D03*
D31*
%TO.P,J11,2,Pin_2*%
%TO.N,GNDA*%
X200576000Y-74934000D03*
%TO.P,J11,3,Pin_3*%
%TO.N,Net-(J10-Pin_1)*%
X202576000Y-74934000D03*
%TO.P,J11,4,Pin_4*%
%TO.N,GNDA*%
X204576000Y-74934000D03*
%TD*%
D15*
%TO.P,X1,1,1*%
%TO.N,/Wavetable/X24I_WT*%
X109374000Y-77220000D03*
%TO.P,X1,2,2*%
%TO.N,Net-(C1-Pad1)*%
X109374000Y-72320000D03*
D32*
%TO.P,X1,3,3*%
%TO.N,GND*%
X118624000Y-80670000D03*
X118624000Y-68870000D03*
%TD*%
D14*
%TO.P,CT10,1*%
%TO.N,OUTPUT_L*%
X198655000Y-93222000D03*
D12*
%TO.P,CT10,2*%
%TO.N,Net-(J7-Pin_1)*%
X202155000Y-93222000D03*
%TD*%
D15*
%TO.P,X3,1,1*%
%TO.N,/X24I*%
X108866000Y-124210000D03*
%TO.P,X3,2,2*%
%TO.N,/24M*%
X108866000Y-129110000D03*
D16*
%TO.P,X3,3,3*%
%TO.N,GND*%
X99616000Y-120760000D03*
X99616000Y-132560000D03*
%TD*%
D33*
%TO.P,D2,1,K*%
%TO.N,AMPVDD2*%
X185320000Y-109732000D03*
D25*
%TO.P,D2,2,A*%
%TO.N,AMPVDD1*%
X185320000Y-119892000D03*
%TD*%
D14*
%TO.P,CT11,1*%
%TO.N,Net-(U6-VREFO)*%
X165762000Y-97667000D03*
D12*
%TO.P,CT11,2*%
%TO.N,GNDA*%
X168262000Y-97667000D03*
%TD*%
D34*
%TO.P,CN2,1,Pin_1*%
%TO.N,GND*%
X167413000Y-70616000D03*
D15*
%TO.P,CN2,2,Pin_2*%
%TO.N,unconnected-(CN2-Pin_2-Pad2)*%
X167413000Y-73156000D03*
%TO.P,CN2,3,Pin_3*%
%TO.N,GND*%
X164873000Y-70616000D03*
%TO.P,CN2,4,Pin_4*%
%TO.N,TXD*%
X164873000Y-73156000D03*
%TO.P,CN2,5,Pin_5*%
%TO.N,GND*%
X162333000Y-70616000D03*
%TO.P,CN2,6,Pin_6*%
%TO.N,+5V*%
X162333000Y-73156000D03*
%TO.P,CN2,7,Pin_7*%
%TO.N,GND*%
X159793000Y-70616000D03*
%TO.P,CN2,8,Pin_8*%
%TO.N,unconnected-(CN2-Pin_8-Pad8)*%
X159793000Y-73156000D03*
%TO.P,CN2,9,Pin_9*%
%TO.N,GND*%
X157253000Y-70616000D03*
%TO.P,CN2,10,Pin_10*%
%TO.N,+5V*%
X157253000Y-73156000D03*
%TO.P,CN2,11,Pin_11*%
%TO.N,GND*%
X154713000Y-70616000D03*
%TO.P,CN2,12,Pin_12*%
%TO.N,unconnected-(CN2-Pin_12-Pad12)*%
X154713000Y-73156000D03*
%TO.P,CN2,13,Pin_13*%
%TO.N,unconnected-(CN2-Pin_13-Pad13)*%
X152173000Y-70616000D03*
%TO.P,CN2,14,Pin_14*%
%TO.N,+5V*%
X152173000Y-73156000D03*
%TO.P,CN2,15,Pin_15*%
%TO.N,GNDA*%
X149633000Y-70616000D03*
%TO.P,CN2,16,Pin_16*%
%TO.N,unconnected-(CN2-Pin_16-Pad16)*%
X149633000Y-73156000D03*
%TO.P,CN2,17,Pin_17*%
%TO.N,GNDA*%
X147093000Y-70616000D03*
%TO.P,CN2,18,Pin_18*%
%TO.N,+12V*%
X147093000Y-73156000D03*
%TO.P,CN2,19,Pin_19*%
%TO.N,GNDA*%
X144553000Y-70616000D03*
%TO.P,CN2,20,Pin_20*%
%TO.N,/Wavetable/WT_ROUT*%
X144553000Y-73156000D03*
%TO.P,CN2,21,Pin_21*%
%TO.N,GNDA*%
X142013000Y-70616000D03*
%TO.P,CN2,22,Pin_22*%
%TO.N,-12V*%
X142013000Y-73156000D03*
%TO.P,CN2,23,Pin_23*%
%TO.N,GNDA*%
X139473000Y-70616000D03*
%TO.P,CN2,24,Pin_24*%
%TO.N,/Wavetable/WT_LOUT*%
X139473000Y-73156000D03*
%TO.P,CN2,25,Pin_25*%
%TO.N,GNDA*%
X136933000Y-70616000D03*
%TO.P,CN2,26,Pin_26*%
%TO.N,~{RESET}*%
X136933000Y-73156000D03*
%TD*%
D14*
%TO.P,CT15,1*%
%TO.N,+5V*%
X86006000Y-129290000D03*
D12*
%TO.P,CT15,2*%
%TO.N,GND*%
X88506000Y-129290000D03*
%TD*%
D14*
%TO.P,CT6,1*%
%TO.N,SJ3_3*%
X172620000Y-92714000D03*
D12*
%TO.P,CT6,2*%
%TO.N,Net-(CT6-Pad2)*%
X175120000Y-92714000D03*
%TD*%
D33*
%TO.P,D1,1,K*%
%TO.N,AMPVDD1*%
X189130000Y-109732000D03*
D25*
%TO.P,D1,2,A*%
%TO.N,+12V*%
X189130000Y-119892000D03*
%TD*%
D18*
%TO.P,J3,R*%
%TO.N,Net-(J8-Pin_4)*%
X220198000Y-89586000D03*
D19*
%TO.P,J3,RN*%
%TO.N,GNDA*%
X220198000Y-87086000D03*
D20*
%TO.P,J3,S*%
X225198000Y-84586000D03*
D18*
%TO.P,J3,T*%
%TO.N,Net-(J8-Pin_1)*%
X220198000Y-79586000D03*
D21*
%TO.P,J3,TN*%
%TO.N,GNDA*%
X220198000Y-82086000D03*
%TD*%
D35*
%TO.P,J13,1,Pin_1*%
%TO.N,Net-(J13-Pin_1)*%
X206783000Y-102112000D03*
D36*
%TO.P,J13,2,Pin_2*%
%TO.N,GNDA*%
X206783000Y-104112000D03*
%TO.P,J13,3,Pin_3*%
X206783000Y-106112000D03*
%TO.P,J13,4,Pin_4*%
%TO.N,Net-(J13-Pin_4)*%
X206783000Y-108112000D03*
%TD*%
D26*
%TO.P,J7,1,Pin_1*%
%TO.N,Net-(J7-Pin_1)*%
X211863000Y-68076000D03*
D27*
%TO.P,J7,2,Pin_2*%
%TO.N,GNDA*%
X211863000Y-70616000D03*
%TO.P,J7,3,Pin_3*%
X211863000Y-73156000D03*
%TO.P,J7,4,Pin_4*%
%TO.N,Net-(J7-Pin_4)*%
X211863000Y-75696000D03*
%TD*%
D14*
%TO.P,CT12,1*%
%TO.N,Net-(CT12-Pad1)*%
X200687000Y-100207000D03*
D12*
%TO.P,CT12,2*%
%TO.N,GNDA*%
X203187000Y-100207000D03*
%TD*%
D18*
%TO.P,J2,R*%
%TO.N,Net-(J7-Pin_4)*%
X220198000Y-77013000D03*
D19*
%TO.P,J2,RN*%
%TO.N,unconnected-(J2-PadRN)*%
X220198000Y-74513000D03*
D20*
%TO.P,J2,S*%
%TO.N,GNDA*%
X225198000Y-72013000D03*
D18*
%TO.P,J2,T*%
%TO.N,Net-(J7-Pin_1)*%
X220198000Y-67013000D03*
D21*
%TO.P,J2,TN*%
%TO.N,unconnected-(J2-PadTN)*%
X220198000Y-69513000D03*
%TD*%
D14*
%TO.P,CT16,1*%
%TO.N,+5V*%
X127916000Y-129925000D03*
D12*
%TO.P,CT16,2*%
%TO.N,GND*%
X130416000Y-129925000D03*
%TD*%
%TO.P,L3,1*%
%TO.N,+5V*%
X200560000Y-131830000D03*
%TO.P,L3,2*%
%TO.N,+5VL*%
X210720000Y-131830000D03*
%TD*%
D37*
%TO.P,J10,1,Pin_1*%
%TO.N,Net-(J10-Pin_1)*%
X198655000Y-69854000D03*
D27*
%TO.P,J10,2,Pin_2*%
%TO.N,GNDA*%
X201195000Y-69854000D03*
%TO.P,J10,3,Pin_3*%
X203735000Y-69854000D03*
%TO.P,J10,4,Pin_4*%
%TO.N,Net-(J10-Pin_4)*%
X206275000Y-69854000D03*
%TD*%
D38*
%TO.P,SJL5,1,A*%
%TO.N,GND*%
X223293000Y-103524000D03*
D39*
%TO.P,SJL5,2,B*%
%TO.N,GNDA*%
X223293000Y-102224000D03*
%TD*%
D38*
%TO.P,SJL6,1,A*%
%TO.N,GND*%
X216943000Y-103524000D03*
D39*
%TO.P,SJL6,2,B*%
%TO.N,GNDA*%
X216943000Y-102224000D03*
%TD*%
D40*
%TO.N,GND*%
X116994000Y-67822000D03*
X140489000Y-79252000D03*
X197131000Y-118495000D03*
X147474000Y-84586000D03*
X127789000Y-100969000D03*
X215673000Y-136529000D03*
X225198000Y-126750000D03*
X92737000Y-67314000D03*
X126011000Y-107827000D03*
X85879000Y-105541000D03*
X90959000Y-127004000D03*
X148109000Y-99572000D03*
X214403000Y-129417000D03*
X100992000Y-86237000D03*
X90832000Y-81792000D03*
X72163000Y-102620000D03*
X90705000Y-113034000D03*
X209577000Y-118876000D03*
X225198000Y-111002000D03*
X95912000Y-99572000D03*
X72163000Y-74045000D03*
X147982000Y-86237000D03*
X92102000Y-69727000D03*
X205132000Y-126623000D03*
X90705000Y-115574000D03*
X90832000Y-99572000D03*
X156999000Y-109097000D03*
X95912000Y-86237000D03*
X128297000Y-95889000D03*
X208180000Y-109859000D03*
X122836000Y-95762000D03*
X95912000Y-90682000D03*
X85625000Y-67695000D03*
X174271000Y-115701000D03*
X204243000Y-114812000D03*
X176303000Y-115701000D03*
X207418000Y-115447000D03*
X98899000Y-71820000D03*
X199544000Y-118495000D03*
X178335000Y-115701000D03*
X72290000Y-108970000D03*
X72163000Y-79760000D03*
X100992000Y-81665000D03*
X127154000Y-78109000D03*
X79910000Y-78490000D03*
X121566000Y-95762000D03*
X89816000Y-69727000D03*
X220626000Y-111002000D03*
X72163000Y-95000000D03*
X90832000Y-86237000D03*
X124614000Y-67822000D03*
X100992000Y-99572000D03*
X88419000Y-127004000D03*
X213514000Y-115447000D03*
X152554000Y-102747000D03*
X201830000Y-118495000D03*
X90959000Y-128909000D03*
X72290000Y-131830000D03*
X204243000Y-111256000D03*
X178462000Y-133735000D03*
X116486000Y-107446000D03*
X72163000Y-87380000D03*
X167159000Y-124083000D03*
X148109000Y-109097000D03*
X137949000Y-103255000D03*
X225198000Y-116590000D03*
X95912000Y-95127000D03*
X215673000Y-111002000D03*
X148109000Y-105922000D03*
X205132000Y-125226000D03*
X72290000Y-126496000D03*
X113946000Y-116336000D03*
X125249000Y-126496000D03*
X88038000Y-113034000D03*
X148109000Y-102747000D03*
X194845000Y-118495000D03*
X95912000Y-81792000D03*
X108612000Y-67822000D03*
X84543000Y-94680000D03*
X132869000Y-74426000D03*
X106961000Y-70870000D03*
X100992000Y-95127000D03*
X79910000Y-74045000D03*
X72290000Y-115320000D03*
X162206000Y-125607000D03*
X88038000Y-115574000D03*
X122836000Y-105287000D03*
X156999000Y-105922000D03*
X111533000Y-103255000D03*
X147474000Y-79252000D03*
X225198000Y-121543000D03*
X90832000Y-95127000D03*
X85879000Y-107446000D03*
X100992000Y-90682000D03*
X115216000Y-127893000D03*
X225198000Y-131703000D03*
X87530000Y-101350000D03*
X152173000Y-82173000D03*
X212371000Y-124210000D03*
X152554000Y-99572000D03*
X152554000Y-109097000D03*
X79910000Y-67695000D03*
X225198000Y-135640000D03*
X90832000Y-90682000D03*
X126138000Y-127766000D03*
X225198000Y-105922000D03*
X125122000Y-133100000D03*
X152554000Y-105922000D03*
X72290000Y-120908000D03*
X100357000Y-67314000D03*
X126011000Y-105287000D03*
%TO.N,/Wavetable/WT_LOUT*%
X143283000Y-72648000D03*
%TO.N,GNDA*%
X183034000Y-67695000D03*
X137634000Y-86557000D03*
X205259000Y-67695000D03*
X174017000Y-96016000D03*
X157380000Y-77601000D03*
X178081000Y-79760000D03*
X199925000Y-78744000D03*
X178970000Y-96016000D03*
X213768000Y-97413000D03*
X169064000Y-71251000D03*
X224436000Y-87126000D03*
X180875000Y-96016000D03*
X163603000Y-77601000D03*
X203100000Y-107827000D03*
X141124000Y-84967000D03*
X193321000Y-76458000D03*
X173763000Y-79760000D03*
X144299000Y-76839000D03*
X187733000Y-79760000D03*
X213514000Y-81284000D03*
X173255000Y-67695000D03*
X193321000Y-79760000D03*
X135409000Y-79252000D03*
X225833000Y-70616000D03*
X224436000Y-74553000D03*
X198020000Y-109986000D03*
X203862000Y-91825000D03*
X178081000Y-76458000D03*
X196496000Y-67695000D03*
X192432000Y-67695000D03*
X216308000Y-97413000D03*
X224436000Y-99699000D03*
X210085000Y-104017000D03*
X198020000Y-108081000D03*
X191670000Y-111637000D03*
X173255000Y-71251000D03*
X182907000Y-79760000D03*
X169064000Y-79252000D03*
X216435000Y-77093000D03*
X206529000Y-73410000D03*
X200814000Y-67695000D03*
X134647000Y-69346000D03*
X204878000Y-106557000D03*
X173509000Y-89793000D03*
X173382000Y-109478000D03*
X141759000Y-76839000D03*
X206656000Y-75442000D03*
X194083000Y-90047000D03*
X160555000Y-77601000D03*
X169064000Y-75569000D03*
X204116000Y-84967000D03*
X182907000Y-76458000D03*
X187733000Y-76458000D03*
X207545000Y-78744000D03*
X169699000Y-83443000D03*
X154459000Y-77601000D03*
X216435000Y-68899000D03*
X169699000Y-87253000D03*
X135790000Y-87888000D03*
X216435000Y-71444000D03*
X132107000Y-69346000D03*
X203862000Y-95254000D03*
X173763000Y-76458000D03*
X181510000Y-109986000D03*
X178208000Y-67695000D03*
X204116000Y-89539000D03*
X187606000Y-67695000D03*
X224436000Y-82681000D03*
X194083000Y-91698000D03*
X175033000Y-111129000D03*
X204116000Y-87126000D03*
X203354000Y-97540000D03*
X129694000Y-71251000D03*
X224436000Y-95254000D03*
X141632000Y-81792000D03*
X169318000Y-67695000D03*
X178970000Y-109478000D03*
%TO.N,AUX2L*%
X163730000Y-89412000D03*
X144426000Y-82046000D03*
%TO.N,/Wavetable/WT_ROUT*%
X138965000Y-74746000D03*
%TO.N,AUX2R*%
X164624999Y-88655999D03*
X137949000Y-79506000D03*
%TO.N,+5VA*%
X163603000Y-104144000D03*
X155983000Y-84078000D03*
X175160000Y-100522000D03*
X154332000Y-84078000D03*
%TO.N,AUX1L*%
X165508000Y-105668000D03*
X195226000Y-105033000D03*
%TO.N,AUX1R*%
X195988000Y-106176000D03*
X164746000Y-106557000D03*
%TO.N,LINEL*%
X204497000Y-102874000D03*
X165000000Y-104271000D03*
%TO.N,LINER*%
X166651000Y-105160000D03*
X204878000Y-104017000D03*
%TO.N,MIC*%
X164619000Y-101096000D03*
X210593000Y-99699000D03*
%TO.N,SJ4_3*%
X175160000Y-98302000D03*
X170969000Y-98302000D03*
%TO.N,SJ3_3*%
X192051000Y-108589000D03*
X170207000Y-108970000D03*
X180113000Y-108335000D03*
X168175000Y-94238000D03*
%TO.N,/Amplifier/AMP_OUTL*%
X179732000Y-85602000D03*
X184939000Y-104017000D03*
%TO.N,/Amplifier/AMP_OUTR*%
X196750000Y-71886000D03*
X196305500Y-83125500D03*
%TO.N,/X33I*%
X145950000Y-117098000D03*
X117629000Y-116463000D03*
%TO.N,/X24I*%
X144426000Y-117098000D03*
X119153000Y-112018000D03*
%TO.N,MONO_IN*%
X163603000Y-101858000D03*
X208815000Y-101858000D03*
%TO.N,GP4*%
X155348000Y-90809000D03*
X202211000Y-122813000D03*
%TO.N,GP2*%
X203608000Y-121416000D03*
X157253000Y-91698000D03*
%TO.N,GP0*%
X157380000Y-94238000D03*
X204751000Y-119892000D03*
%TO.N,GP3*%
X203608000Y-122813000D03*
X156110000Y-91698000D03*
%TO.N,GP1*%
X209704000Y-120908000D03*
X157380000Y-92968000D03*
%TO.N,GP6*%
X153824000Y-90809000D03*
%TO.N,GP7*%
X153062000Y-91698000D03*
X212498000Y-121543000D03*
%TO.N,GP5*%
X154586000Y-91698000D03*
X210593000Y-121670000D03*
%TO.N,Net-(U6-RESET)*%
X152173000Y-90809000D03*
X148045500Y-88586500D03*
X184812000Y-124464000D03*
%TO.N,+5V_WT*%
X104548000Y-104398000D03*
X100738000Y-104525000D03*
X86133000Y-74807000D03*
X82831000Y-97667000D03*
X116232000Y-91190000D03*
X82831000Y-91571000D03*
X87657000Y-104652000D03*
X85117000Y-75823000D03*
X116359000Y-84205000D03*
X82831000Y-89793000D03*
X106199000Y-104398000D03*
X124233000Y-83697000D03*
X82831000Y-84713000D03*
X108612000Y-82681000D03*
X115597000Y-83189000D03*
X107786500Y-90110500D03*
%TO.N,-12V*%
X166778000Y-76077000D03*
X186082000Y-132578000D03*
X140997000Y-74807000D03*
%TO.N,+12V*%
X181002000Y-133735000D03*
X148109000Y-74807000D03*
X165381000Y-74807000D03*
X181002000Y-118241000D03*
%TO.N,+5VD*%
X139092000Y-106049000D03*
X150014000Y-92079000D03*
X150268000Y-113542000D03*
%TO.N,+5V*%
X119280000Y-91825000D03*
X119280000Y-93095000D03*
X123852000Y-121035000D03*
X122582000Y-121035000D03*
X148744000Y-81919000D03*
X157888000Y-121162000D03*
X108866000Y-119638000D03*
X166651000Y-120527000D03*
X117756000Y-91825000D03*
X122582000Y-119765000D03*
X112676000Y-130052000D03*
X174652000Y-127893000D03*
X113946000Y-120527000D03*
X117756000Y-93095000D03*
X122074000Y-129036000D03*
X150268000Y-81919000D03*
X166651000Y-122178000D03*
X123852000Y-119765000D03*
X122074000Y-130433000D03*
X187860000Y-127385000D03*
%TO.N,D1*%
X182907000Y-133735000D03*
X136044000Y-125480000D03*
%TO.N,~{RESET}*%
X81942000Y-90555000D03*
X186082000Y-124718000D03*
X128304000Y-108589000D03*
%TO.N,D4*%
X191162000Y-133989000D03*
X138330000Y-124591000D03*
%TO.N,D6*%
X194718000Y-132846000D03*
X139854000Y-123194000D03*
%TO.N,A2*%
X91213000Y-123702000D03*
X91467000Y-117987000D03*
X147474000Y-117098000D03*
X128932000Y-117987000D03*
%TO.N,A1*%
X90197000Y-123067000D03*
X148236000Y-117860000D03*
X90324000Y-118368000D03*
X128170000Y-118876000D03*
%TO.N,~{IOW}*%
X128932000Y-125607000D03*
X76989000Y-128274000D03*
%TO.N,D2*%
X136806000Y-124464000D03*
X183796000Y-132719000D03*
%TO.N,~{IOR}*%
X76100000Y-129163000D03*
X130075000Y-126115000D03*
%TO.N,CDIRQ*%
X82069000Y-111764000D03*
X160936000Y-119257000D03*
X151538000Y-117987000D03*
X82323000Y-119892000D03*
%TO.N,D0*%
X179859000Y-132846000D03*
X135599500Y-126623000D03*
%TO.N,D5*%
X139600000Y-124591000D03*
X192305000Y-132719000D03*
%TO.N,A0*%
X89181000Y-118749000D03*
X148998000Y-116971000D03*
X88419000Y-123829000D03*
X127281000Y-119638000D03*
%TO.N,~{CDCS1}*%
X162206000Y-119257000D03*
X82450000Y-123575000D03*
X82069000Y-110494000D03*
X151411000Y-116717000D03*
%TO.N,~{IOCS16}*%
X113946000Y-133989000D03*
X82069000Y-118241000D03*
%TO.N,D7*%
X194718000Y-131576000D03*
X141378000Y-123448000D03*
%TO.N,D3*%
X137568000Y-125480000D03*
X188622000Y-133989000D03*
%TO.N,~{CDCS0}*%
X153316000Y-118114000D03*
X82069000Y-109224000D03*
X82450000Y-124845000D03*
X162206000Y-117987000D03*
%TO.N,OUTPUT_R*%
X197004000Y-99572000D03*
%TO.N,Net-(CT9-Pad2)*%
X185320000Y-91063000D03*
%TO.N,OUTPUT_L*%
X193067000Y-95000000D03*
%TO.N,Net-(CT12-Pad1)*%
X206402000Y-99318000D03*
%TO.N,IRQ3*%
X132869000Y-132973000D03*
%TO.N,A3*%
X143291607Y-133108607D03*
X134266000Y-133481000D03*
%TO.N,DRQ0*%
X119534000Y-115447000D03*
X133758000Y-115701000D03*
X117629000Y-131576000D03*
%TO.N,AEN*%
X172747000Y-127766000D03*
X148490000Y-122940000D03*
%TO.N,A7*%
X144045000Y-133481000D03*
X141124000Y-132281000D03*
%TO.N,~{DACK0}*%
X120423000Y-116209000D03*
X134647000Y-116082000D03*
X118645000Y-132211000D03*
%TO.N,IRQ9*%
X133377000Y-122178000D03*
%TO.N,DRQ1*%
X133885000Y-128528000D03*
%TO.N,A15*%
X171477000Y-127766000D03*
X163222000Y-127004000D03*
%TO.N,A9*%
X131980000Y-132338000D03*
X147728000Y-133989000D03*
%TO.N,IRQ5*%
X134179471Y-132338000D03*
%TO.N,A8*%
X144680000Y-134116000D03*
X140235000Y-132084000D03*
%TO.N,A10*%
X149760000Y-133862000D03*
X131091000Y-131449000D03*
%TO.N,A13*%
X165381000Y-127766000D03*
X168937000Y-127766000D03*
%TO.N,DRQ3*%
X135790000Y-128528000D03*
%TO.N,~{DACK1}*%
X134901000Y-129163000D03*
%TO.N,~{DACK3}*%
X137060000Y-128528000D03*
%TO.N,A14*%
X170207000Y-127766000D03*
X164111000Y-127766000D03*
%TO.N,A4*%
X142521000Y-133608000D03*
X135282000Y-133481000D03*
%TO.N,IRQ10*%
X121185000Y-113669000D03*
X121820000Y-132084000D03*
X133504000Y-113288000D03*
%TO.N,RESET*%
X198782000Y-133481000D03*
%TO.N,A11*%
X153062000Y-133862000D03*
X130837000Y-127004000D03*
%TO.N,BUSCLK*%
X119026000Y-130687000D03*
%TO.N,A5*%
X141675179Y-133865159D03*
X137822000Y-133481000D03*
%TO.N,IRQ7*%
X133377000Y-130560000D03*
%TO.N,IRQ11*%
X133885000Y-114558000D03*
X120550000Y-132211000D03*
X119915000Y-114304000D03*
%TO.N,Net-(JP2-Pin_2)*%
X179351000Y-111637000D03*
%TO.N,/Wavetable/BITCLK*%
X131218000Y-89285000D03*
X84482000Y-87634000D03*
%TO.N,/Amplifier/AMP_INR*%
X171858000Y-75188000D03*
%TO.N,/X33O*%
X116486000Y-116971000D03*
X146712000Y-117860000D03*
%TO.N,/AEN\u002A*%
X143156000Y-118114000D03*
X129757500Y-112970500D03*
X149887000Y-119892000D03*
X171858000Y-122813000D03*
%TO.N,/X24O*%
X145188000Y-117860000D03*
X118391000Y-112907000D03*
%TO.N,TXD*%
X128678000Y-109732000D03*
X202846000Y-124972000D03*
X143156000Y-114812000D03*
X107342000Y-109605000D03*
%TO.N,RXD*%
X197258000Y-130179000D03*
X144616500Y-123003500D03*
%TO.N,CLKO*%
X159793000Y-119257000D03*
X151665000Y-119384000D03*
%TO.N,SJ3_1*%
X177700000Y-104652000D03*
X169445000Y-102747000D03*
%TO.N,SJ4_1*%
X171477000Y-102747000D03*
X175414000Y-104017000D03*
%TO.N,/Wavetable/ROM_A14*%
X123725000Y-86999000D03*
X100611000Y-75061000D03*
%TO.N,/Wavetable/SHDATA*%
X134774000Y-89158000D03*
X84482000Y-89031000D03*
%TO.N,/Wavetable/ROM_A13*%
X124360000Y-88142000D03*
X101500000Y-74172000D03*
%TO.N,/Wavetable/ROM_A17*%
X98325000Y-74172000D03*
X123090000Y-85856000D03*
%TO.N,/Wavetable/ROM_A8*%
X124360000Y-90428000D03*
X114835000Y-89793000D03*
%TO.N,/Wavetable/ROM_D6*%
X124360000Y-98937000D03*
X114962000Y-99572000D03*
%TO.N,/Wavetable/ROM_D3*%
X124360000Y-102747000D03*
X114962000Y-103382000D03*
%TO.N,/Wavetable/ROM_A15*%
X111406000Y-85729000D03*
X99849000Y-74172000D03*
%TO.N,/Wavetable/ROM_A10*%
X108612000Y-81030000D03*
X128209000Y-81069000D03*
%TO.N,/Wavetable/ROM_A18*%
X122328000Y-86872000D03*
X97563000Y-75061000D03*
%TO.N,/Wavetable/ROM_A11*%
X107596000Y-80268000D03*
X126900000Y-81030000D03*
%TO.N,/Wavetable/ROM_D5*%
X114962000Y-100842000D03*
X124360000Y-100207000D03*
%TO.N,/Wavetable/ROM_A19*%
X96801000Y-74172000D03*
X108612000Y-79506000D03*
%TO.N,/Wavetable/ROM_A9*%
X107593000Y-81795000D03*
X126773000Y-82554000D03*
%TO.N,/Wavetable/ROM_D2*%
X108294500Y-100270500D03*
X111279000Y-101731000D03*
%TO.N,/Wavetable/ROM_D4*%
X114962000Y-102112000D03*
X124360000Y-101477000D03*
%TO.N,/Wavetable/ROM_A16*%
X110263000Y-85094000D03*
X99087000Y-75061000D03*
%TO.N,/Wavetable/ROM_D0*%
X111279000Y-98683000D03*
X107342000Y-97921000D03*
%TO.N,/Wavetable/WORDCLK*%
X133504000Y-88396000D03*
X84482000Y-86364000D03*
%TO.N,/Wavetable/ROM_CS*%
X94007000Y-75442000D03*
X122836000Y-88142000D03*
%TO.N,/Wavetable/ROM_D1*%
X111279000Y-100207000D03*
X107469000Y-99318000D03*
%TO.N,/Wavetable/ROM_D7*%
X114962000Y-98302000D03*
X124360000Y-97667000D03*
%TO.N,/ROM_DO*%
X151157000Y-123194000D03*
%TD*%
D41*
%TO.N,GND*%
X77243000Y-126750000D02*
X76481000Y-126750000D01*
D42*
X201322000Y-138815000D02*
X201322000Y-134624000D01*
D41*
X77243000Y-103890000D02*
X75973000Y-105160000D01*
X75973000Y-115320000D02*
X73052000Y-115320000D01*
X75973000Y-105160000D02*
X73179000Y-105160000D01*
X77243000Y-114050000D02*
X75973000Y-115320000D01*
D43*
X163730000Y-124083000D02*
X162206000Y-125607000D01*
D41*
X77243000Y-108970000D02*
X75973000Y-110240000D01*
X76481000Y-126750000D02*
X73687000Y-129544000D01*
X75973000Y-110240000D02*
X73179000Y-110240000D01*
D43*
X77243000Y-103890000D02*
X74703000Y-101350000D01*
D41*
X75973000Y-107700000D02*
X73179000Y-107700000D01*
D42*
X71782000Y-138815000D02*
X71782000Y-133608000D01*
D41*
X77243000Y-106430000D02*
X75973000Y-107700000D01*
D42*
X178462000Y-138815000D02*
X178462000Y-133735000D01*
D41*
X217324000Y-125003000D02*
X221876200Y-125003000D01*
X147474000Y-79252000D02*
X140489000Y-79252000D01*
X77243000Y-114050000D02*
X75973000Y-112780000D01*
X75973000Y-112780000D02*
X73052000Y-112780000D01*
D43*
X77243000Y-103890000D02*
X77243000Y-106430000D01*
D41*
X217324000Y-122233000D02*
X221942600Y-122233000D01*
D43*
X77243000Y-106430000D02*
X77243000Y-108970000D01*
D42*
X125122000Y-133100000D02*
X125122000Y-138815000D01*
X201322000Y-134624000D02*
X203100000Y-132846000D01*
D43*
X167159000Y-124083000D02*
X163730000Y-124083000D01*
D44*
%TO.N,/Wavetable/WT_LOUT*%
X140523000Y-72106000D02*
X139473000Y-73156000D01*
X143283000Y-72648000D02*
X142741000Y-72106000D01*
X142741000Y-72106000D02*
X140523000Y-72106000D01*
D45*
%TO.N,AUX2L*%
X154967000Y-80649000D02*
X145823000Y-80649000D01*
X145823000Y-80649000D02*
X144426000Y-82046000D01*
X163730000Y-89412000D02*
X154967000Y-80649000D01*
D44*
%TO.N,/Wavetable/WT_ROUT*%
X143189529Y-71706000D02*
X144553000Y-73069471D01*
X139367365Y-71706000D02*
X143189529Y-71706000D01*
X138965000Y-74746000D02*
X138373000Y-74154000D01*
X144553000Y-73069471D02*
X144553000Y-73156000D01*
X138373000Y-74154000D02*
X138373000Y-72700365D01*
X138373000Y-72700365D02*
X139367365Y-71706000D01*
D45*
%TO.N,AUX2R*%
X164624999Y-88655999D02*
X164619000Y-88650000D01*
X164111000Y-88650000D02*
X155602000Y-80141000D01*
X164619000Y-88650000D02*
X164111000Y-88650000D01*
X155602000Y-80141000D02*
X138584000Y-80141000D01*
X138584000Y-80141000D02*
X137949000Y-79506000D01*
%TO.N,AUX1L*%
X168175000Y-106049000D02*
X165889000Y-106049000D01*
X195226000Y-105033000D02*
X193448000Y-106811000D01*
X165889000Y-106049000D02*
X165508000Y-105668000D01*
X168937000Y-106811000D02*
X168175000Y-106049000D01*
X193448000Y-106811000D02*
X168937000Y-106811000D01*
%TO.N,AUX1R*%
X167659000Y-106549000D02*
X164754000Y-106549000D01*
X195988000Y-106176000D02*
X194845000Y-107319000D01*
X194845000Y-107319000D02*
X168429000Y-107319000D01*
X168429000Y-107319000D02*
X167659000Y-106549000D01*
X164754000Y-106549000D02*
X164746000Y-106557000D01*
%TO.N,LINEL*%
X168556000Y-104271000D02*
X165000000Y-104271000D01*
X169826000Y-105541000D02*
X168556000Y-104271000D01*
X194074164Y-103382000D02*
X191915164Y-105541000D01*
X203989000Y-103382000D02*
X194074164Y-103382000D01*
X191915164Y-105541000D02*
X169826000Y-105541000D01*
X204497000Y-102874000D02*
X203989000Y-103382000D01*
%TO.N,LINER*%
X204878000Y-104017000D02*
X194146269Y-104017000D01*
X191987269Y-106176000D02*
X169318000Y-106176000D01*
X168302000Y-105160000D02*
X166651000Y-105160000D01*
X169318000Y-106176000D02*
X168302000Y-105160000D01*
X194146269Y-104017000D02*
X191987269Y-106176000D01*
%TO.N,MIC*%
X173382000Y-101096000D02*
X164619000Y-101096000D01*
X174017000Y-101731000D02*
X173382000Y-101096000D01*
X188044000Y-102042000D02*
X187733000Y-101731000D01*
X202766214Y-102042000D02*
X188044000Y-102042000D01*
X204728214Y-100080000D02*
X202766214Y-102042000D01*
X210593000Y-99699000D02*
X210212000Y-100080000D01*
X187733000Y-101731000D02*
X174017000Y-101731000D01*
X210212000Y-100080000D02*
X204728214Y-100080000D01*
%TO.N,SJ4_3*%
X175160000Y-98302000D02*
X170969000Y-98302000D01*
X189130000Y-98302000D02*
X175160000Y-98302000D01*
%TO.N,SJ3_3*%
X191797000Y-108335000D02*
X180113000Y-108335000D01*
X170842000Y-108335000D02*
X170207000Y-108970000D01*
X171096000Y-94238000D02*
X172620000Y-92714000D01*
X180113000Y-108335000D02*
X170842000Y-108335000D01*
X192051000Y-108589000D02*
X191797000Y-108335000D01*
X168175000Y-94238000D02*
X171096000Y-94238000D01*
%TO.N,/Amplifier/AMP_OUTL*%
X188495000Y-104017000D02*
X184939000Y-104017000D01*
X189130000Y-103382000D02*
X188495000Y-104017000D01*
X177192000Y-85602000D02*
X176303000Y-84713000D01*
X176303000Y-82300000D02*
X175795000Y-81792000D01*
X176303000Y-84713000D02*
X176303000Y-82300000D01*
X179732000Y-85602000D02*
X177192000Y-85602000D01*
%TO.N,/Amplifier/AMP_OUTR*%
X196305500Y-83125500D02*
X194353000Y-85078000D01*
X181113000Y-85078000D02*
X180113000Y-84078000D01*
X184264000Y-71886000D02*
X182232000Y-69854000D01*
X196750000Y-71886000D02*
X184264000Y-71886000D01*
X194353000Y-85078000D02*
X181113000Y-85078000D01*
D44*
%TO.N,/X33I*%
X139600000Y-116717000D02*
X127281000Y-116717000D01*
X127027000Y-116971000D02*
X118137000Y-116971000D01*
X145182529Y-118714000D02*
X141597000Y-118714000D01*
X145950000Y-117098000D02*
X145950000Y-117946529D01*
X145950000Y-117946529D02*
X145182529Y-118714000D01*
X141597000Y-118714000D02*
X139600000Y-116717000D01*
X127281000Y-116717000D02*
X127027000Y-116971000D01*
X118137000Y-116971000D02*
X117629000Y-116463000D01*
%TO.N,/X24I*%
X144426000Y-117098000D02*
X144280000Y-116952000D01*
X144280000Y-116952000D02*
X141532058Y-116952000D01*
X136433056Y-111853000D02*
X119318000Y-111853000D01*
X141532058Y-116952000D02*
X136433056Y-111853000D01*
X119318000Y-111853000D02*
X119153000Y-112018000D01*
D45*
%TO.N,MONO_IN*%
X194129057Y-102620000D02*
X191843057Y-104906000D01*
X163857000Y-102112000D02*
X163603000Y-101858000D01*
X165381000Y-102112000D02*
X163857000Y-102112000D01*
X181629000Y-102231000D02*
X173809893Y-102231000D01*
X184304000Y-104906000D02*
X181629000Y-102231000D01*
X205005000Y-100715000D02*
X203100000Y-102620000D01*
X208815000Y-101858000D02*
X207672000Y-100715000D01*
X203100000Y-102620000D02*
X194129057Y-102620000D01*
X173809893Y-102231000D02*
X173174894Y-101596000D01*
X207672000Y-100715000D02*
X205005000Y-100715000D01*
X191843057Y-104906000D02*
X184304000Y-104906000D01*
X165897000Y-101596000D02*
X165381000Y-102112000D01*
X173174894Y-101596000D02*
X165897000Y-101596000D01*
D44*
%TO.N,GP4*%
X151096426Y-111542000D02*
X145335372Y-111542000D01*
X176306110Y-122597000D02*
X169931110Y-116222000D01*
X143594000Y-109800628D02*
X143594000Y-98268259D01*
X202211000Y-122813000D02*
X201995000Y-122597000D01*
X151273058Y-96581000D02*
X155348000Y-92506056D01*
X145281257Y-96581000D02*
X151273058Y-96581000D01*
X155348000Y-92506056D02*
X155348000Y-90809000D01*
X162311110Y-113174000D02*
X152728428Y-113174000D01*
X145335372Y-111542000D02*
X143594000Y-109800628D01*
X152728428Y-113174000D02*
X151096426Y-111542000D01*
X201995000Y-122597000D02*
X176306110Y-122597000D01*
X169931110Y-116222000D02*
X165359115Y-116222000D01*
X143594000Y-98268259D02*
X145281257Y-96581000D01*
X165359115Y-116222000D02*
X162311110Y-113174000D01*
%TO.N,GP2*%
X145612629Y-97381000D02*
X151604430Y-97381000D01*
X145666744Y-110742000D02*
X144394000Y-109469254D01*
X144394000Y-98599628D02*
X145612629Y-97381000D01*
X203227000Y-121797000D02*
X201957000Y-121797000D01*
X176632486Y-121792000D02*
X170262480Y-115422000D01*
X201952000Y-121792000D02*
X176632486Y-121792000D01*
X162642480Y-112374000D02*
X153059799Y-112374000D01*
X157253000Y-91732426D02*
X157253000Y-91698000D01*
X151427796Y-110742000D02*
X145666744Y-110742000D01*
X151604430Y-97381000D02*
X157253000Y-91732426D01*
X144394000Y-109469254D02*
X144394000Y-98599628D01*
X153059799Y-112374000D02*
X151427796Y-110742000D01*
X165690485Y-115422000D02*
X162642480Y-112374000D01*
X170262480Y-115422000D02*
X165690485Y-115422000D01*
X203608000Y-121416000D02*
X203227000Y-121797000D01*
X201957000Y-121797000D02*
X201952000Y-121792000D01*
%TO.N,GP0*%
X151759166Y-109942000D02*
X145998116Y-109942000D01*
X202508000Y-120992000D02*
X176963858Y-120992000D01*
X170593850Y-114622000D02*
X166021855Y-114622000D01*
X145194000Y-98931000D02*
X145944000Y-98181000D01*
X162973850Y-111574000D02*
X153391169Y-111574000D01*
X153391169Y-111574000D02*
X151759166Y-109942000D01*
X145944000Y-98181000D02*
X153437000Y-98181000D01*
X145998116Y-109942000D02*
X145194000Y-109137884D01*
X204751000Y-119892000D02*
X203608000Y-119892000D01*
X203608000Y-119892000D02*
X202508000Y-120992000D01*
X145194000Y-109137884D02*
X145194000Y-98931000D01*
X153437000Y-98181000D02*
X157380000Y-94238000D01*
X176963858Y-120992000D02*
X170593850Y-114622000D01*
X166021855Y-114622000D02*
X162973850Y-111574000D01*
%TO.N,GP3*%
X201595000Y-122197000D02*
X202992000Y-122197000D01*
X152894114Y-112774000D02*
X162476795Y-112774000D01*
X201590000Y-122192000D02*
X201595000Y-122197000D01*
X202992000Y-122197000D02*
X203608000Y-122813000D01*
X162476795Y-112774000D02*
X165524799Y-115822000D01*
X176466800Y-122192000D02*
X201590000Y-122192000D01*
X156110000Y-92309741D02*
X151438744Y-96981000D01*
X151438744Y-96981000D02*
X145446943Y-96981000D01*
X165524799Y-115822000D02*
X170096795Y-115822000D01*
X143994000Y-98433944D02*
X143994000Y-109634942D01*
X145501058Y-111142000D02*
X151262111Y-111142000D01*
X151262111Y-111142000D02*
X152894114Y-112774000D01*
X156110000Y-91698000D02*
X156110000Y-92309741D01*
X145446943Y-96981000D02*
X143994000Y-98433944D01*
X170096795Y-115822000D02*
X176466800Y-122192000D01*
X143994000Y-109634942D02*
X145501058Y-111142000D01*
%TO.N,GP1*%
X203249686Y-120816000D02*
X202673685Y-121392000D01*
X209704000Y-120908000D02*
X209612000Y-120816000D01*
X153225484Y-111974000D02*
X151593481Y-110342000D01*
X144794000Y-109303569D02*
X144794000Y-98765314D01*
X162808165Y-111974000D02*
X153225484Y-111974000D01*
X165856170Y-115022000D02*
X162808165Y-111974000D01*
X170428165Y-115022000D02*
X165856170Y-115022000D01*
X144794000Y-98765314D02*
X145778314Y-97781000D01*
X176798172Y-121392000D02*
X170428165Y-115022000D01*
X145832430Y-110342000D02*
X144794000Y-109303569D01*
X145778314Y-97781000D02*
X152567000Y-97781000D01*
X151593481Y-110342000D02*
X145832430Y-110342000D01*
X209612000Y-120816000D02*
X203249686Y-120816000D01*
X152567000Y-97781000D02*
X157380000Y-92968000D01*
X202673685Y-121392000D02*
X176798172Y-121392000D01*
%TO.N,GP6*%
X161979740Y-113974000D02*
X162702371Y-114696629D01*
X169599740Y-117022000D02*
X175974742Y-123397000D01*
X205316686Y-122559000D02*
X210847000Y-122559000D01*
X142794000Y-97936886D02*
X142794000Y-110132000D01*
X210847000Y-122559000D02*
X211482000Y-121924000D01*
X162702371Y-114696629D02*
X165027744Y-117022000D01*
X211482000Y-121924000D02*
X211482000Y-121289000D01*
X150765056Y-112342000D02*
X152397057Y-113974000D01*
X153824000Y-90809000D02*
X153824000Y-92898685D01*
X214693000Y-118078000D02*
X220164000Y-118078000D01*
X142794000Y-110132000D02*
X145004000Y-112342000D01*
X150941686Y-95781000D02*
X144949885Y-95781000D01*
X165027744Y-117022000D02*
X169599740Y-117022000D01*
X145004000Y-112342000D02*
X150765056Y-112342000D01*
X201213314Y-123397000D02*
X201629314Y-123813000D01*
X144949885Y-95781000D02*
X142794000Y-97936886D01*
X175974742Y-123397000D02*
X201213314Y-123397000D01*
X153824000Y-92898685D02*
X150941686Y-95781000D01*
X152397057Y-113974000D02*
X161979740Y-113974000D01*
X211482000Y-121289000D02*
X214693000Y-118078000D01*
X204062685Y-123813000D02*
X205316686Y-122559000D01*
X201629314Y-123813000D02*
X204062685Y-123813000D01*
%TO.N,GP7*%
X175809056Y-123797000D02*
X201047628Y-123797000D01*
X150776000Y-95381000D02*
X144784199Y-95381000D01*
X144762957Y-112742000D02*
X150599371Y-112742000D01*
X152231371Y-114374000D02*
X160174000Y-114374001D01*
X164862058Y-117422000D02*
X169434055Y-117422000D01*
X153062000Y-91698000D02*
X153062000Y-93095000D01*
X153062000Y-93095000D02*
X150776000Y-95381000D01*
X211082000Y-122959000D02*
X212498000Y-121543000D01*
X161814055Y-114374000D02*
X164862058Y-117422000D01*
X144784199Y-95381000D02*
X142394000Y-97771201D01*
X142394000Y-97771201D02*
X142394000Y-110373044D01*
X204228370Y-124213000D02*
X205482372Y-122959000D01*
X169434055Y-117422000D02*
X175809056Y-123797000D01*
X205482372Y-122959000D02*
X211082000Y-122959000D01*
X201047628Y-123797000D02*
X201463628Y-124213000D01*
X150599371Y-112742000D02*
X152231371Y-114374000D01*
X160174000Y-114374001D02*
X161814055Y-114374000D01*
X142394000Y-110373044D02*
X144762957Y-112742000D01*
X201463628Y-124213000D02*
X204228370Y-124213000D01*
%TO.N,GP5*%
X169765425Y-116622000D02*
X176140428Y-122997000D01*
X143194000Y-109966314D02*
X145169686Y-111942000D01*
X176140428Y-122997000D02*
X201379000Y-122997000D01*
X150930741Y-111942000D02*
X152562743Y-113574000D01*
X162145425Y-113574000D02*
X165193430Y-116622000D01*
X145115571Y-96181000D02*
X143194000Y-98102572D01*
X201795000Y-123413000D02*
X203897000Y-123413000D01*
X201379000Y-122997000D02*
X201795000Y-123413000D01*
X154586000Y-91698000D02*
X154586000Y-92702371D01*
X205640000Y-121670000D02*
X210593000Y-121670000D01*
X152562743Y-113574000D02*
X162145425Y-113574000D01*
X165193430Y-116622000D02*
X169765425Y-116622000D01*
X203897000Y-123413000D02*
X205640000Y-121670000D01*
X145169686Y-111942000D02*
X150930741Y-111942000D01*
X151107372Y-96181000D02*
X145115571Y-96181000D01*
X143194000Y-98102572D02*
X143194000Y-109966314D01*
X154586000Y-92702371D02*
X151107372Y-96181000D01*
D45*
%TO.N,Net-(J10-Pin_4)*%
X206275000Y-69854000D02*
X206275000Y-70743000D01*
X205259000Y-71759000D02*
X200941000Y-71759000D01*
X206275000Y-70743000D02*
X205259000Y-71759000D01*
X198576000Y-74124000D02*
X198576000Y-74934000D01*
X200941000Y-71759000D02*
X198576000Y-74124000D01*
D44*
%TO.N,Net-(U6-RESET)*%
X141786174Y-113812000D02*
X137695000Y-109720828D01*
X140108000Y-95635000D02*
X147156500Y-88586500D01*
X137695000Y-109720828D02*
X137695000Y-105414000D01*
X140108000Y-103001000D02*
X140108000Y-95635000D01*
X184812000Y-124464000D02*
X175910370Y-124464000D01*
X164696372Y-117822000D02*
X162771686Y-115897314D01*
X143570214Y-113812000D02*
X141786174Y-113812000D01*
X162771686Y-115897314D02*
X161648370Y-114774000D01*
X137695000Y-105414000D02*
X140108000Y-103001000D01*
X161648370Y-114774000D02*
X151153426Y-114774000D01*
X169268370Y-117822000D02*
X164696372Y-117822000D01*
X175910370Y-124464000D02*
X169268370Y-117822000D01*
X144129216Y-114371001D02*
X143570214Y-113812000D01*
X147156500Y-88586500D02*
X148045500Y-88586500D01*
X148998000Y-87634000D02*
X148045500Y-88586500D01*
X152173000Y-89285000D02*
X150522000Y-87634000D01*
X151153426Y-114774000D02*
X150750425Y-114371000D01*
X150750425Y-114371000D02*
X144129216Y-114371001D01*
X150522000Y-87634000D02*
X148998000Y-87634000D01*
X152173000Y-90809000D02*
X152173000Y-89285000D01*
D41*
%TO.N,+5V_WT*%
X108866000Y-91190000D02*
X107786500Y-90110500D01*
X116232000Y-91190000D02*
X108866000Y-91190000D01*
D43*
%TO.N,-12V*%
X147681944Y-76077000D02*
X146411944Y-74807000D01*
X146411944Y-74807000D02*
X140997000Y-74807000D01*
X166778000Y-76077000D02*
X147681944Y-76077000D01*
D42*
X186082000Y-138815000D02*
X186082000Y-132578000D01*
D43*
%TO.N,+12V*%
X186463000Y-118241000D02*
X188114000Y-119892000D01*
D42*
X181002000Y-138815000D02*
X181002000Y-133735000D01*
D43*
X188114000Y-119892000D02*
X189130000Y-119892000D01*
X148109000Y-74807000D02*
X165381000Y-74807000D01*
X186463000Y-118241000D02*
X181002000Y-118241000D01*
%TO.N,+5VD*%
X150268000Y-113542000D02*
X144431586Y-113542000D01*
X144431586Y-113542000D02*
X143901585Y-113012000D01*
D41*
%TO.N,+5V*%
X154162000Y-117690000D02*
X153062000Y-116590000D01*
D42*
X196242000Y-133735000D02*
X199290000Y-130687000D01*
X78640000Y-132846000D02*
X79783000Y-132846000D01*
X76862000Y-138815000D02*
X76862000Y-134624000D01*
X130202000Y-138815000D02*
X130202000Y-133735000D01*
X76862000Y-134624000D02*
X78640000Y-132846000D01*
D41*
X157042000Y-117690000D02*
X154162000Y-117690000D01*
X158142000Y-116590000D02*
X157042000Y-117690000D01*
D42*
X196242000Y-138815000D02*
X196242000Y-133735000D01*
D44*
%TO.N,D1*%
X109466611Y-122760000D02*
X102349427Y-122760000D01*
X75973000Y-97540000D02*
X74703000Y-96270000D01*
X78386000Y-97540000D02*
X75973000Y-97540000D01*
X156745000Y-129648200D02*
X156485797Y-129389000D01*
X182907000Y-133735000D02*
X181138000Y-131966000D01*
X149298445Y-129389000D02*
X146390440Y-126481000D01*
X146390440Y-126481000D02*
X137045000Y-126481000D01*
X102349427Y-122760000D02*
X101439425Y-123670000D01*
X78942000Y-112879644D02*
X78942000Y-98096000D01*
X181138000Y-131966000D02*
X159062800Y-131966000D01*
X159062800Y-131966000D02*
X156745000Y-129648200D01*
X78942000Y-98096000D02*
X78386000Y-97540000D01*
X101118998Y-123669999D02*
X96552571Y-123670000D01*
X96552571Y-123670000D02*
X94829572Y-121947000D01*
X136044000Y-125480000D02*
X131858587Y-125480000D01*
X130985586Y-124607000D02*
X111313611Y-124607000D01*
X156485797Y-129389000D02*
X149298445Y-129389000D01*
X94829572Y-121947000D02*
X88009355Y-121947000D01*
X131858587Y-125480000D02*
X130985586Y-124607000D01*
X137045000Y-126481000D02*
X136044000Y-125480000D01*
X101439425Y-123670000D02*
X101118998Y-123669999D01*
X88009355Y-121947000D02*
X78942000Y-112879644D01*
X111313611Y-124607000D02*
X109466611Y-122760000D01*
%TO.N,~{RESET}*%
X81742000Y-90755000D02*
X81742000Y-108008000D01*
X186082000Y-124718000D02*
X185720000Y-125080000D01*
X81942000Y-90555000D02*
X81742000Y-90755000D01*
X175960685Y-125080000D02*
X169102685Y-118222000D01*
X128551000Y-108589000D02*
X128304000Y-108589000D01*
X161482685Y-115174000D02*
X150987741Y-115174000D01*
X185720000Y-125080000D02*
X175960685Y-125080000D01*
X148744000Y-114771001D02*
X143963530Y-114771001D01*
X169102685Y-118222000D02*
X164530686Y-118222000D01*
X107446000Y-108047000D02*
X109300925Y-108047000D01*
X127110000Y-109783000D02*
X128304000Y-108589000D01*
X111036925Y-109783000D02*
X127110000Y-109783000D01*
X150987741Y-115174000D02*
X150584740Y-114771000D01*
X109300925Y-108047000D02*
X111036925Y-109783000D01*
X129745000Y-109783000D02*
X128551000Y-108589000D01*
X78513000Y-79760000D02*
X75973000Y-79760000D01*
X81942000Y-90555000D02*
X81742000Y-90355000D01*
X105310000Y-110183000D02*
X107446000Y-108047000D01*
X164530686Y-118222000D02*
X161482685Y-115174000D01*
X150584740Y-114771000D02*
X148744000Y-114771001D01*
X81742000Y-90355000D02*
X81742000Y-82989000D01*
X143404529Y-114212000D02*
X141620488Y-114212000D01*
X141620488Y-114212000D02*
X137191487Y-109783000D01*
X83917000Y-110183000D02*
X105310000Y-110183000D01*
X75973000Y-79760000D02*
X74703000Y-78490000D01*
X143963530Y-114771001D02*
X143404529Y-114212000D01*
X81742000Y-108008000D02*
X83917000Y-110183000D01*
X81742000Y-82989000D02*
X78513000Y-79760000D01*
X137191487Y-109783000D02*
X129745000Y-109783000D01*
%TO.N,D4*%
X100942370Y-122470000D02*
X97049629Y-122470000D01*
X137163214Y-123407000D02*
X111810668Y-123407000D01*
X156982851Y-128189000D02*
X149795502Y-128189000D01*
X80142000Y-112382584D02*
X80142000Y-91549000D01*
X80142000Y-91549000D02*
X78513000Y-89920000D01*
X139020000Y-125281000D02*
X138330000Y-124591000D01*
X187939000Y-130766000D02*
X159559856Y-130766000D01*
X88506413Y-120747000D02*
X80142000Y-112382584D01*
X78513000Y-89920000D02*
X75973000Y-89920000D01*
X75973000Y-89920000D02*
X74703000Y-88650000D01*
X149795502Y-128189000D02*
X146887499Y-125281000D01*
X191162000Y-133989000D02*
X187939000Y-130766000D01*
X138330000Y-124591000D02*
X138330000Y-124573785D01*
X101852371Y-121560000D02*
X100942370Y-122470000D01*
X138330000Y-124573785D02*
X137163214Y-123407000D01*
X95326629Y-120747000D02*
X88506413Y-120747000D01*
X109963665Y-121560000D02*
X101852371Y-121560000D01*
X97049629Y-122470000D02*
X95326629Y-120747000D01*
X111810668Y-123407000D02*
X109963665Y-121560000D01*
X159559856Y-130766000D02*
X156982851Y-128189000D01*
X146887499Y-125281000D02*
X139020000Y-125281000D01*
%TO.N,D6*%
X101521000Y-120760000D02*
X100611000Y-121670000D01*
X160056913Y-129566000D02*
X157479910Y-126989000D01*
X133128471Y-121578000D02*
X132099471Y-122607000D01*
X139854000Y-123194000D02*
X139727000Y-123194000D01*
X78513000Y-84840000D02*
X75973000Y-84840000D01*
X112142038Y-122607000D02*
X110295035Y-120760000D01*
X140724000Y-124064000D02*
X139854000Y-123194000D01*
X97381000Y-121670000D02*
X95658000Y-119947000D01*
X100611000Y-121670000D02*
X97381000Y-121670000D01*
X191438000Y-129566000D02*
X160056913Y-129566000D01*
X95658000Y-119947000D02*
X88837785Y-119947000D01*
X75973000Y-84840000D02*
X74703000Y-83570000D01*
X147367559Y-124064000D02*
X140724000Y-124064000D01*
X157479910Y-126989000D02*
X150292559Y-126989000D01*
X194718000Y-132846000D02*
X191438000Y-129566000D01*
X88837785Y-119947000D02*
X80942000Y-112051214D01*
X110295035Y-120760000D02*
X101521000Y-120760000D01*
X132099471Y-122607000D02*
X112142038Y-122607000D01*
X138111000Y-121578000D02*
X133128471Y-121578000D01*
X80942000Y-87269000D02*
X78513000Y-84840000D01*
X139727000Y-123194000D02*
X138111000Y-121578000D01*
X150292559Y-126989000D02*
X147367559Y-124064000D01*
X80942000Y-112051214D02*
X80942000Y-87269000D01*
%TO.N,A2*%
X106728000Y-118347000D02*
X91827000Y-118347000D01*
X147474000Y-117098000D02*
X147474000Y-117987000D01*
X141281628Y-119530000D02*
X139268628Y-117517000D01*
X91213000Y-123702000D02*
X89521529Y-123702000D01*
X89521529Y-123702000D02*
X89048529Y-123229000D01*
X128932000Y-117987000D02*
X107088000Y-117987000D01*
X147474000Y-117987000D02*
X145931000Y-119530000D01*
X89048529Y-123229000D02*
X85279000Y-123229000D01*
X107088000Y-117987000D02*
X106728000Y-118347000D01*
X83720000Y-121670000D02*
X77243000Y-121670000D01*
X139268628Y-117517000D02*
X129402000Y-117517000D01*
X85279000Y-123229000D02*
X83720000Y-121670000D01*
X129402000Y-117517000D02*
X128932000Y-117987000D01*
X145931000Y-119530000D02*
X141281628Y-119530000D01*
X91827000Y-118347000D02*
X91467000Y-117987000D01*
%TO.N,A1*%
X90197000Y-123067000D02*
X89452214Y-123067000D01*
X141115942Y-119930000D02*
X139102942Y-117917000D01*
X128170000Y-118876000D02*
X127681000Y-118387000D01*
X89214214Y-122829000D02*
X85879000Y-122829000D01*
X129891000Y-117917000D02*
X128932000Y-118876000D01*
X89452214Y-123067000D02*
X89214214Y-122829000D01*
X90703000Y-118747000D02*
X90324000Y-118368000D01*
X127681000Y-118387000D02*
X107253686Y-118387000D01*
X106893685Y-118747000D02*
X90703000Y-118747000D01*
X76065000Y-120492000D02*
X74703000Y-119130000D01*
X128932000Y-118876000D02*
X128170000Y-118876000D01*
X148236000Y-117860000D02*
X146166000Y-119930000D01*
X146166000Y-119930000D02*
X141115942Y-119930000D01*
X139102942Y-117917000D02*
X129891000Y-117917000D01*
X85879000Y-122829000D02*
X83542000Y-120492000D01*
X107253686Y-118387000D02*
X106893685Y-118747000D01*
X83542000Y-120492000D02*
X76065000Y-120492000D01*
%TO.N,~{IOW}*%
X168603000Y-132766000D02*
X158731428Y-132766000D01*
X146059070Y-127281000D02*
X132528215Y-127281000D01*
X82777000Y-125407000D02*
X82215000Y-125969000D01*
X156154426Y-130189000D02*
X148967073Y-130189000D01*
X170842000Y-138815000D02*
X170842000Y-135005000D01*
X79576843Y-125969000D02*
X77271843Y-128274000D01*
X128732000Y-125407000D02*
X82777000Y-125407000D01*
X132528215Y-127281000D02*
X130762215Y-125515000D01*
X77271843Y-128274000D02*
X76989000Y-128274000D01*
X128932000Y-125607000D02*
X128732000Y-125407000D01*
X82215000Y-125969000D02*
X79576843Y-125969000D01*
X170842000Y-135005000D02*
X168603000Y-132766000D01*
X158731428Y-132766000D02*
X156154426Y-130189000D01*
X130762215Y-125515000D02*
X129024000Y-125515000D01*
X148967073Y-130189000D02*
X146059070Y-127281000D01*
X129024000Y-125515000D02*
X128932000Y-125607000D01*
%TO.N,D2*%
X79342000Y-95829000D02*
X78513000Y-95000000D01*
X109632295Y-122360000D02*
X102183742Y-122360000D01*
X156651482Y-128989000D02*
X149464130Y-128989000D01*
X131151271Y-124207000D02*
X111479297Y-124207000D01*
X96718257Y-123270000D02*
X94995257Y-121547000D01*
X137280000Y-126081000D02*
X136806000Y-125607000D01*
X183796000Y-132719000D02*
X182643000Y-131566000D01*
X149464130Y-128989000D02*
X146556129Y-126081000D01*
X102183742Y-122360000D02*
X101273740Y-123270000D01*
X79342000Y-112713955D02*
X79342000Y-95829000D01*
X94995257Y-121547000D02*
X88175041Y-121547000D01*
X146556129Y-126081000D02*
X137280000Y-126081000D01*
X136806000Y-124464000D02*
X131408272Y-124464000D01*
X101273740Y-123270000D02*
X96718257Y-123270000D01*
X111479297Y-124207000D02*
X109632295Y-122360000D01*
X182643000Y-131566000D02*
X159228486Y-131566000D01*
X159228486Y-131566000D02*
X156651482Y-128989000D01*
X136806000Y-125607000D02*
X136806000Y-124464000D01*
X131408272Y-124464000D02*
X131151271Y-124207000D01*
X75973000Y-95000000D02*
X74703000Y-93730000D01*
X78513000Y-95000000D02*
X75973000Y-95000000D01*
X88175041Y-121547000D02*
X79342000Y-112713955D01*
%TO.N,~{IOR}*%
X128170000Y-125807000D02*
X82942686Y-125807000D01*
X76948529Y-129163000D02*
X76100000Y-129163000D01*
X148801387Y-130589000D02*
X145893384Y-127681000D01*
X129948000Y-126242000D02*
X128605000Y-126242000D01*
X155988741Y-130589000D02*
X148801387Y-130589000D01*
X128605000Y-126242000D02*
X128170000Y-125807000D01*
X168302000Y-135005000D02*
X166463000Y-133166000D01*
X132362529Y-127681000D02*
X130796529Y-126115000D01*
X82942686Y-125807000D02*
X82380685Y-126369000D01*
X166463000Y-133166000D02*
X158565744Y-133166000D01*
X79742529Y-126369000D02*
X76948529Y-129163000D01*
X145893384Y-127681000D02*
X132362529Y-127681000D01*
X158565744Y-133166000D02*
X155988741Y-130589000D01*
X130075000Y-126115000D02*
X129948000Y-126242000D01*
X130796529Y-126115000D02*
X130075000Y-126115000D01*
X82380685Y-126369000D02*
X79742529Y-126369000D01*
X168302000Y-138815000D02*
X168302000Y-135005000D01*
%TO.N,CDIRQ*%
X136563744Y-111418000D02*
X116832000Y-111418000D01*
X160336000Y-118657000D02*
X158850000Y-118657000D01*
X149922000Y-116371000D02*
X141516744Y-116371000D01*
X106239000Y-112947000D02*
X104675000Y-111383000D01*
X141516744Y-116371000D02*
X136563744Y-111418000D01*
X158850000Y-118657000D02*
X158323000Y-119184000D01*
X80291000Y-117860000D02*
X75973000Y-117860000D01*
X160936000Y-119257000D02*
X160336000Y-118657000D01*
X115303000Y-112947000D02*
X106239000Y-112947000D01*
X75973000Y-117860000D02*
X74703000Y-116590000D01*
X151538000Y-117987000D02*
X149922000Y-116371000D01*
X116832000Y-111418000D02*
X115303000Y-112947000D01*
X82323000Y-119892000D02*
X80291000Y-117860000D01*
X82450000Y-111383000D02*
X82069000Y-111764000D01*
X104675000Y-111383000D02*
X82450000Y-111383000D01*
X158323000Y-119184000D02*
X152735000Y-119184000D01*
X152735000Y-119184000D02*
X151538000Y-117987000D01*
%TO.N,D0*%
X78005000Y-100080000D02*
X75973000Y-100080000D01*
X111147925Y-125007000D02*
X109300925Y-123160000D01*
X94663886Y-122347000D02*
X87843669Y-122347000D01*
X179859000Y-132846000D02*
X179379000Y-132366000D01*
X156320112Y-129789000D02*
X149132759Y-129789000D01*
X132693901Y-126881000D02*
X130819901Y-125007000D01*
X135599500Y-126623000D02*
X135341500Y-126881000D01*
X149132759Y-129789000D02*
X146224755Y-126881000D01*
X135341500Y-126881000D02*
X132693901Y-126881000D01*
X78542000Y-113045329D02*
X78542000Y-100617000D01*
X158897114Y-132366000D02*
X156320112Y-129789000D01*
X146224755Y-126881000D02*
X135857500Y-126881000D01*
X101605109Y-124070000D02*
X96386886Y-124070000D01*
X96386886Y-124070000D02*
X94663886Y-122347000D01*
X130819901Y-125007000D02*
X111147925Y-125007000D01*
X87843669Y-122347000D02*
X78542000Y-113045329D01*
X78542000Y-100617000D02*
X78005000Y-100080000D01*
X179379000Y-132366000D02*
X158897114Y-132366000D01*
X102515112Y-123160000D02*
X101605109Y-124070000D01*
X75973000Y-100080000D02*
X74703000Y-98810000D01*
X109300925Y-123160000D02*
X102515112Y-123160000D01*
X135857500Y-126881000D02*
X135599500Y-126623000D01*
%TO.N,D5*%
X100776685Y-122070000D02*
X97215314Y-122070000D01*
X159725541Y-130366000D02*
X157148540Y-127789000D01*
X95492315Y-120347000D02*
X88672099Y-120347000D01*
X139600000Y-124591000D02*
X139178529Y-124591000D01*
X75973000Y-87380000D02*
X74703000Y-86110000D01*
X101686685Y-121160000D02*
X100776685Y-122070000D01*
X78513000Y-87380000D02*
X75973000Y-87380000D01*
X111976352Y-123007000D02*
X110129350Y-121160000D01*
X137594529Y-123007000D02*
X111976352Y-123007000D01*
X192305000Y-132719000D02*
X189952000Y-130366000D01*
X80542000Y-89409000D02*
X78513000Y-87380000D01*
X147053184Y-124881000D02*
X139890000Y-124881000D01*
X88672099Y-120347000D02*
X80542000Y-112216899D01*
X149961188Y-127789000D02*
X147053184Y-124881000D01*
X80542000Y-112216899D02*
X80542000Y-89409000D01*
X157148540Y-127789000D02*
X149961188Y-127789000D01*
X110129350Y-121160000D02*
X101686685Y-121160000D01*
X139890000Y-124881000D02*
X139600000Y-124591000D01*
X189952000Y-130366000D02*
X159725541Y-130366000D01*
X139178529Y-124591000D02*
X137594529Y-123007000D01*
X97215314Y-122070000D02*
X95492315Y-120347000D01*
%TO.N,A0*%
X148998000Y-117987000D02*
X146655000Y-120330000D01*
X89579000Y-119147000D02*
X89181000Y-118749000D01*
X88419000Y-123829000D02*
X84990000Y-123829000D01*
X138937256Y-118317000D02*
X130056686Y-118317000D01*
X126430000Y-118787000D02*
X107419371Y-118787000D01*
X130056686Y-118317000D02*
X128735686Y-119638000D01*
X127281000Y-119638000D02*
X126430000Y-118787000D01*
X107419371Y-118787000D02*
X107059370Y-119147000D01*
X148998000Y-116971000D02*
X148998000Y-117987000D01*
X146655000Y-120330000D02*
X140950256Y-120330000D01*
X75973000Y-122940000D02*
X74703000Y-121670000D01*
X84101000Y-122940000D02*
X75973000Y-122940000D01*
X128735686Y-119638000D02*
X127281000Y-119638000D01*
X140950256Y-120330000D02*
X138937256Y-118317000D01*
X107059370Y-119147000D02*
X89579000Y-119147000D01*
X84990000Y-123829000D02*
X84101000Y-122940000D01*
%TO.N,~{CDCS1}*%
X141682430Y-115971000D02*
X136729429Y-111018000D01*
X152173000Y-117733000D02*
X151411000Y-116971000D01*
X82558000Y-110983000D02*
X82069000Y-110494000D01*
X106404686Y-112547000D02*
X104840685Y-110983000D01*
X150087685Y-115971000D02*
X141682430Y-115971000D01*
X161206000Y-118257000D02*
X158684314Y-118257000D01*
X162206000Y-119257000D02*
X161206000Y-118257000D01*
X158684314Y-118257000D02*
X158157314Y-118784000D01*
X82450000Y-123575000D02*
X81815000Y-124210000D01*
X81815000Y-124210000D02*
X77243000Y-124210000D01*
X151411000Y-116717000D02*
X150833686Y-116717000D01*
X150833686Y-116717000D02*
X150087685Y-115971000D01*
X115137315Y-112547000D02*
X106404686Y-112547000D01*
X158157314Y-118784000D02*
X152900686Y-118784000D01*
X152173000Y-118056314D02*
X152173000Y-117733000D01*
X116666314Y-111018000D02*
X115137315Y-112547000D01*
X151411000Y-116971000D02*
X151411000Y-116717000D01*
X152900686Y-118784000D02*
X152173000Y-118056314D01*
X104840685Y-110983000D02*
X82558000Y-110983000D01*
X136729429Y-111018000D02*
X116666314Y-111018000D01*
%TO.N,~{IOCS16}*%
X113438000Y-133989000D02*
X112422000Y-135005000D01*
X112422000Y-135005000D02*
X112422000Y-138815000D01*
X80418000Y-116590000D02*
X77243000Y-116590000D01*
X113946000Y-133989000D02*
X113438000Y-133989000D01*
X82069000Y-118241000D02*
X80418000Y-116590000D01*
%TO.N,D7*%
X107060500Y-119547000D02*
X89003471Y-119547000D01*
X192308000Y-129166000D02*
X160222599Y-129166000D01*
X107873500Y-120360000D02*
X107060500Y-119547000D01*
X141594000Y-123664000D02*
X141378000Y-123448000D01*
X131933785Y-122207000D02*
X112307722Y-122207000D01*
X150458245Y-126589000D02*
X147533244Y-123664000D01*
X139108000Y-121178000D02*
X132962785Y-121178000D01*
X112307722Y-122207000D02*
X110460720Y-120360000D01*
X75973000Y-82300000D02*
X74703000Y-81030000D01*
X157645595Y-126589000D02*
X150458245Y-126589000D01*
X81342000Y-111885529D02*
X81342000Y-85129000D01*
X81342000Y-85129000D02*
X78513000Y-82300000D01*
X160222599Y-129166000D02*
X157645595Y-126589000D01*
X78513000Y-82300000D02*
X75973000Y-82300000D01*
X110460720Y-120360000D02*
X107873500Y-120360000D01*
X132962785Y-121178000D02*
X131933785Y-122207000D01*
X141378000Y-123448000D02*
X139108000Y-121178000D01*
X147533244Y-123664000D02*
X141594000Y-123664000D01*
X194718000Y-131576000D02*
X192308000Y-129166000D01*
X89003471Y-119547000D02*
X81342000Y-111885529D01*
%TO.N,D3*%
X149629816Y-128589000D02*
X146721814Y-125681000D01*
X137568000Y-125480000D02*
X137568000Y-124377471D01*
X78513000Y-92460000D02*
X75973000Y-92460000D01*
X111644983Y-123807000D02*
X109797980Y-121960000D01*
X96883943Y-122870000D02*
X95160943Y-121147000D01*
X186942000Y-131166000D02*
X159394171Y-131166000D01*
X88340727Y-121147000D02*
X79742000Y-112548270D01*
X156817167Y-128589000D02*
X156251482Y-128589001D01*
X109797980Y-121960000D02*
X102018057Y-121960000D01*
X102018057Y-121960000D02*
X101108055Y-122870000D01*
X188622000Y-133989000D02*
X188622000Y-132846000D01*
X79742000Y-112548270D02*
X79742000Y-93689000D01*
X75973000Y-92460000D02*
X74703000Y-91190000D01*
X137769000Y-125681000D02*
X137568000Y-125480000D01*
X95160943Y-121147000D02*
X88340727Y-121147000D01*
X188622000Y-132846000D02*
X186942000Y-131166000D01*
X156251482Y-128589001D02*
X149629816Y-128589000D01*
X146721814Y-125681000D02*
X137769000Y-125681000D01*
X159394171Y-131166000D02*
X156817167Y-128589000D01*
X79742000Y-93689000D02*
X78513000Y-92460000D01*
X137568000Y-124377471D02*
X136997529Y-123807000D01*
X136997529Y-123807000D02*
X111644983Y-123807000D01*
X101108055Y-122870000D02*
X96883943Y-122870000D01*
%TO.N,~{CDCS0}*%
X150253370Y-115571000D02*
X141848116Y-115571000D01*
X162076000Y-117857000D02*
X158518628Y-117857000D01*
X162206000Y-117987000D02*
X162076000Y-117857000D01*
X152011000Y-116468471D02*
X151630343Y-116087814D01*
X157991628Y-118384000D02*
X153586000Y-118384000D01*
X141848116Y-115571000D02*
X136895114Y-110618000D01*
X136563743Y-110618000D02*
X136528743Y-110583000D01*
X153316000Y-118114000D02*
X153242497Y-118114000D01*
X152011000Y-116882503D02*
X152011000Y-116468471D01*
X82450000Y-124845000D02*
X81815000Y-125480000D01*
X158518628Y-117857000D02*
X157991628Y-118384000D01*
X151630343Y-116087814D02*
X150770186Y-116087814D01*
X150770186Y-116087814D02*
X150253370Y-115571000D01*
X136528743Y-110583000D02*
X83428000Y-110583000D01*
X81815000Y-125480000D02*
X75973000Y-125480000D01*
X153242497Y-118114000D02*
X152011000Y-116882503D01*
X136895114Y-110618000D02*
X136563743Y-110618000D01*
X83428000Y-110583000D02*
X82069000Y-109224000D01*
X75973000Y-125480000D02*
X74703000Y-124210000D01*
X153586000Y-118384000D02*
X153316000Y-118114000D01*
D45*
%TO.N,OUTPUT_R*%
X195734000Y-100842000D02*
X191670000Y-100842000D01*
X197004000Y-99572000D02*
X195734000Y-100842000D01*
%TO.N,/Amplifier/SVRR*%
X178859000Y-82792000D02*
X177573000Y-84078000D01*
X190035000Y-82792000D02*
X178859000Y-82792000D01*
X191035000Y-81792000D02*
X190035000Y-82792000D01*
%TO.N,Net-(CT9-Pad2)*%
X191249000Y-91063000D02*
X185320000Y-91063000D01*
X194170000Y-93984000D02*
X191249000Y-91063000D01*
%TO.N,OUTPUT_L*%
X196877000Y-95000000D02*
X193067000Y-95000000D01*
X198655000Y-93222000D02*
X196877000Y-95000000D01*
%TO.N,Net-(CT12-Pad1)*%
X201957000Y-98937000D02*
X200687000Y-100207000D01*
X206402000Y-99318000D02*
X206021000Y-98937000D01*
X206021000Y-98937000D02*
X201957000Y-98937000D01*
D43*
%TO.N,AMPVDD1*%
X192305000Y-109732000D02*
X193575000Y-111002000D01*
X189130000Y-109732000D02*
X192305000Y-109732000D01*
D44*
%TO.N,IRQ3*%
X139438000Y-134081000D02*
X140362000Y-135005000D01*
X133977000Y-134081000D02*
X139438000Y-134081000D01*
X140362000Y-135005000D02*
X140362000Y-138815000D01*
X132869000Y-132973000D02*
X133977000Y-134081000D01*
%TO.N,A3*%
X141534529Y-132719000D02*
X141372529Y-132881000D01*
X139398215Y-132881000D02*
X138998214Y-132481000D01*
X143291607Y-133108607D02*
X142902000Y-132719000D01*
X142902000Y-132719000D02*
X141534529Y-132719000D01*
X141372529Y-132881000D02*
X139398215Y-132881000D01*
X135266000Y-132481000D02*
X134266000Y-133481000D01*
X138998214Y-132481000D02*
X135266000Y-132481000D01*
%TO.N,DRQ0*%
X117629000Y-131576000D02*
X117016000Y-132189000D01*
X96187000Y-133460000D02*
X94642000Y-135005000D01*
X111692628Y-133460000D02*
X96187000Y-133460000D01*
X117016000Y-132189000D02*
X112963628Y-132189000D01*
X94642000Y-135005000D02*
X94642000Y-138815000D01*
X133504000Y-115447000D02*
X119534000Y-115447000D01*
X112963628Y-132189000D02*
X111692628Y-133460000D01*
X133758000Y-115701000D02*
X133504000Y-115447000D01*
%TO.N,AEN*%
X172147000Y-128366000D02*
X160553969Y-128366000D01*
X160553969Y-128366000D02*
X157976968Y-125789000D01*
X157633999Y-125789001D02*
X151339001Y-125789001D01*
X157976968Y-125789000D02*
X157633999Y-125789001D01*
X172747000Y-127766000D02*
X172147000Y-128366000D01*
X151339001Y-125789001D02*
X148490000Y-122940000D01*
%TO.N,A7*%
X144045000Y-133481000D02*
X144045000Y-133013471D01*
X143312529Y-132281000D02*
X141124000Y-132281000D01*
X144045000Y-133013471D02*
X143312529Y-132281000D01*
%TO.N,~{DACK0}*%
X120515000Y-116301000D02*
X120423000Y-116209000D01*
X113129314Y-132589000D02*
X111858314Y-133860000D01*
X134428000Y-116301000D02*
X120515000Y-116301000D01*
X98327000Y-133860000D02*
X97182000Y-135005000D01*
X118267000Y-132589000D02*
X113129314Y-132589000D01*
X97182000Y-135005000D02*
X97182000Y-138815000D01*
X118645000Y-132211000D02*
X118267000Y-132589000D01*
X111858314Y-133860000D02*
X98327000Y-133860000D01*
X134647000Y-116082000D02*
X134428000Y-116301000D01*
%TO.N,IRQ9*%
X146870498Y-124464000D02*
X140321529Y-124464000D01*
X157314225Y-127389000D02*
X150126874Y-127389000D01*
X146887498Y-124481000D02*
X146870498Y-124464000D01*
X139092000Y-123829000D02*
X137441000Y-122178000D01*
X140321529Y-124464000D02*
X139686529Y-123829000D01*
X193702000Y-132973000D02*
X190695000Y-129966000D01*
X147218869Y-124481000D02*
X146887498Y-124481000D01*
X137441000Y-122178000D02*
X133377000Y-122178000D01*
X150126874Y-127389000D02*
X147218869Y-124481000D01*
X190695000Y-129966000D02*
X159891227Y-129966000D01*
X193702000Y-138815000D02*
X193702000Y-132973000D01*
X159891227Y-129966000D02*
X157314225Y-127389000D01*
X139686529Y-123829000D02*
X139092000Y-123829000D01*
%TO.N,DRQ1*%
X158142000Y-135005000D02*
X155326000Y-132189000D01*
X158142000Y-138815000D02*
X158142000Y-135005000D01*
X148138644Y-132189000D02*
X145230639Y-129281000D01*
X133885000Y-129163000D02*
X133885000Y-128528000D01*
X134803000Y-130081000D02*
X133885000Y-129163000D01*
X155326000Y-132189000D02*
X148138644Y-132189000D01*
X145230639Y-129281000D02*
X139361041Y-129281000D01*
X139361041Y-129281000D02*
X138561042Y-130081000D01*
X138561042Y-130081000D02*
X134803000Y-130081000D01*
%TO.N,A15*%
X170461000Y-126750000D02*
X163476000Y-126750000D01*
X163476000Y-126750000D02*
X163222000Y-127004000D01*
X171477000Y-127766000D02*
X170461000Y-126750000D01*
%TO.N,A9*%
X147728000Y-133989000D02*
X147675900Y-133989000D01*
X140023785Y-130881000D02*
X139223785Y-131681000D01*
X147675900Y-133989000D02*
X144567899Y-130881000D01*
X144567899Y-130881000D02*
X140023785Y-130881000D01*
X139223785Y-131681000D02*
X132636999Y-131681001D01*
X132636999Y-131681001D02*
X131980000Y-132338000D01*
%TO.N,IRQ5*%
X140189471Y-131281000D02*
X144402214Y-131281000D01*
X134179471Y-132338000D02*
X134436470Y-132081001D01*
X138711000Y-132081001D02*
X139389471Y-132081000D01*
X134436470Y-132081001D02*
X138711000Y-132081001D01*
X139389471Y-132081000D02*
X140189471Y-131281000D01*
X144402214Y-131281000D02*
X145442000Y-132320786D01*
X145442000Y-132320786D02*
X145442000Y-138815000D01*
%TO.N,A8*%
X140638000Y-131681000D02*
X140235000Y-132084000D01*
X143769000Y-131681000D02*
X140638000Y-131681000D01*
X144680000Y-134116000D02*
X144680000Y-132592000D01*
X144680000Y-132592000D02*
X143769000Y-131681000D01*
%TO.N,A10*%
X131258999Y-131281001D02*
X131091000Y-131449000D01*
X139858099Y-130481000D02*
X139058100Y-131281000D01*
X149287000Y-133389000D02*
X147641586Y-133389000D01*
X147641586Y-133389000D02*
X144733584Y-130481000D01*
X144733584Y-130481000D02*
X139858099Y-130481000D01*
X149760000Y-133862000D02*
X149287000Y-133389000D01*
X139058100Y-131281000D02*
X131258999Y-131281001D01*
%TO.N,A13*%
X168937000Y-127766000D02*
X165381000Y-127766000D01*
%TO.N,DRQ3*%
X163222000Y-138815000D02*
X163222000Y-135005000D01*
X136543000Y-129281000D02*
X135790000Y-128528000D01*
X162183000Y-133966000D02*
X158234372Y-133966000D01*
X158234372Y-133966000D02*
X155657370Y-131389000D01*
X148470015Y-131389000D02*
X145562013Y-128481000D01*
X139029669Y-128481000D02*
X138229670Y-129281000D01*
X145562013Y-128481000D02*
X139029669Y-128481000D01*
X163222000Y-135005000D02*
X162183000Y-133966000D01*
X155657370Y-131389000D02*
X148470015Y-131389000D01*
X138229670Y-129281000D02*
X136543000Y-129281000D01*
%TO.N,~{DACK1}*%
X138395356Y-129681000D02*
X135419000Y-129681000D01*
X158068686Y-134366000D02*
X155491685Y-131789000D01*
X135419000Y-129681000D02*
X134901000Y-129163000D01*
X145396328Y-128881000D02*
X139195355Y-128881000D01*
X148304328Y-131789000D02*
X145396328Y-128881000D01*
X155491685Y-131789000D02*
X148304328Y-131789000D01*
X160043000Y-134366000D02*
X158068686Y-134366000D01*
X139195355Y-128881000D02*
X138395356Y-129681000D01*
X160682000Y-138815000D02*
X160682000Y-135005000D01*
X160682000Y-135005000D02*
X160043000Y-134366000D01*
%TO.N,~{DACK3}*%
X165762000Y-138815000D02*
X165762000Y-135005000D01*
X138416983Y-128528000D02*
X137060000Y-128528000D01*
X158400058Y-133566000D02*
X155823055Y-130989000D01*
X155823055Y-130989000D02*
X148635701Y-130989000D01*
X138863983Y-128081000D02*
X138416983Y-128528000D01*
X148635701Y-130989000D02*
X145727699Y-128081000D01*
X145727699Y-128081000D02*
X138863983Y-128081000D01*
X165762000Y-135005000D02*
X164323000Y-133566000D01*
X164323000Y-133566000D02*
X158400058Y-133566000D01*
%TO.N,A14*%
X169607000Y-127166000D02*
X164711000Y-127166000D01*
X170207000Y-127766000D02*
X169607000Y-127166000D01*
X164711000Y-127166000D02*
X164111000Y-127766000D01*
%TO.N,A4*%
X141538214Y-133281000D02*
X139232530Y-133281000D01*
X135882000Y-132881000D02*
X135282000Y-133481000D01*
X142156000Y-133243000D02*
X141576215Y-133243000D01*
X141576215Y-133243000D02*
X141538214Y-133281000D01*
X142521000Y-133608000D02*
X142156000Y-133243000D01*
X139232530Y-133281000D02*
X138832529Y-132881000D01*
X138832529Y-132881000D02*
X135882000Y-132881000D01*
%TO.N,IRQ10*%
X121820000Y-132084000D02*
X120515000Y-133389000D01*
X133123000Y-113669000D02*
X121185000Y-113669000D01*
X113472314Y-133389000D02*
X112237314Y-134624000D01*
X110227000Y-134660000D02*
X109882000Y-135005000D01*
X133504000Y-113288000D02*
X133123000Y-113669000D01*
X109882000Y-135005000D02*
X109882000Y-138815000D01*
X112189685Y-134660000D02*
X110227000Y-134660000D01*
X112237314Y-134624000D02*
X112225686Y-134624000D01*
X120515000Y-133389000D02*
X113472314Y-133389000D01*
X112225686Y-134624000D02*
X112189685Y-134660000D01*
D45*
%TO.N,RESET*%
X198782000Y-133481000D02*
X198782000Y-138815000D01*
D44*
%TO.N,A11*%
X138726728Y-130481000D02*
X134146530Y-130481001D01*
X151789000Y-132589000D02*
X147972958Y-132589000D01*
X153062000Y-133862000D02*
X151789000Y-132589000D01*
X134146530Y-130481001D02*
X130837000Y-127171471D01*
X145064954Y-129681000D02*
X139526727Y-129681000D01*
X147972958Y-132589000D02*
X145064954Y-129681000D01*
X130837000Y-127171471D02*
X130837000Y-127004000D01*
X139526727Y-129681000D02*
X138726728Y-130481000D01*
%TO.N,BUSCLK*%
X127662000Y-133340184D02*
X125643816Y-131322000D01*
X127662000Y-138815000D02*
X127662000Y-133340184D01*
X125643816Y-131322000D02*
X119661000Y-131322000D01*
X119661000Y-131322000D02*
X119026000Y-130687000D01*
%TO.N,A5*%
X141491020Y-133681000D02*
X138784000Y-133681000D01*
X138584000Y-133481000D02*
X137822000Y-133481000D01*
X138784000Y-133681000D02*
X138584000Y-133481000D01*
X141675179Y-133865159D02*
X141491020Y-133681000D01*
%TO.N,IRQ7*%
X147807272Y-132989000D02*
X144899269Y-130081000D01*
X149776000Y-132989000D02*
X147807272Y-132989000D01*
X133698001Y-130881001D02*
X133377000Y-130560000D01*
X150522000Y-133735000D02*
X149776000Y-132989000D01*
X139692413Y-130081000D02*
X138892414Y-130881000D01*
X144899269Y-130081000D02*
X139692413Y-130081000D01*
X138892414Y-130881000D02*
X133698001Y-130881001D01*
X150522000Y-138815000D02*
X150522000Y-133735000D01*
%TO.N,IRQ11*%
X120169000Y-114558000D02*
X119915000Y-114304000D01*
X119772000Y-132989000D02*
X113295000Y-132989000D01*
X107342000Y-135005000D02*
X107342000Y-138815000D01*
X108087000Y-134260000D02*
X107342000Y-135005000D01*
X133885000Y-114558000D02*
X120169000Y-114558000D01*
X112024000Y-134260000D02*
X108087000Y-134260000D01*
X113295000Y-132989000D02*
X112024000Y-134260000D01*
X120550000Y-132211000D02*
X119772000Y-132989000D01*
D45*
%TO.N,Net-(JP2-Pin_2)*%
X179605000Y-111891000D02*
X179351000Y-111637000D01*
X191416000Y-113034000D02*
X190273000Y-111891000D01*
X190273000Y-111891000D02*
X179605000Y-111891000D01*
X201449000Y-113034000D02*
X191416000Y-113034000D01*
X201830000Y-113415000D02*
X201449000Y-113034000D01*
X202338000Y-113415000D02*
X201830000Y-113415000D01*
D44*
%TO.N,/Wavetable/BITCLK*%
X131218000Y-89285000D02*
X120923629Y-89285000D01*
X120923629Y-89285000D02*
X120292315Y-88653685D01*
X85501685Y-88653685D02*
X84482000Y-87634000D01*
X120292315Y-88653685D02*
X85501685Y-88653685D01*
D45*
%TO.N,/Amplifier/AMP_INR*%
X171858000Y-73283000D02*
X171858000Y-75188000D01*
X172493000Y-72648000D02*
X171858000Y-73283000D01*
X188495000Y-74172000D02*
X186971000Y-72648000D01*
X186971000Y-72648000D02*
X172493000Y-72648000D01*
D44*
%TO.N,/X33O*%
X145442000Y-119130000D02*
X141447314Y-119130000D01*
X141447314Y-119130000D02*
X139434314Y-117117000D01*
X139434314Y-117117000D02*
X127446686Y-117117000D01*
X116994000Y-117479000D02*
X116486000Y-116971000D01*
X127084686Y-117479000D02*
X116994000Y-117479000D01*
X146712000Y-117860000D02*
X145442000Y-119130000D01*
X127446686Y-117117000D02*
X127084686Y-117479000D01*
%TO.N,/AEN\u002A*%
X163095000Y-119511000D02*
X168556000Y-119511000D01*
X149887000Y-119892000D02*
X149979000Y-119984000D01*
X143156000Y-118114000D02*
X141562686Y-118114000D01*
X168556000Y-119511000D02*
X171858000Y-122813000D01*
X136101686Y-112653000D02*
X130075000Y-112653000D01*
X149979000Y-119984000D02*
X162622000Y-119984000D01*
X141562686Y-118114000D02*
X136101686Y-112653000D01*
X162622000Y-119984000D02*
X163095000Y-119511000D01*
X130075000Y-112653000D02*
X129757500Y-112970500D01*
%TO.N,/X24O*%
X145188000Y-117860000D02*
X143750529Y-117860000D01*
X136267371Y-112253000D02*
X119807000Y-112253000D01*
X119807000Y-112253000D02*
X119153000Y-112907000D01*
X143750529Y-117860000D02*
X143242529Y-117352000D01*
X141366372Y-117352000D02*
X136267371Y-112253000D01*
X119153000Y-112907000D02*
X118391000Y-112907000D01*
X143242529Y-117352000D02*
X141366372Y-117352000D01*
%TO.N,TXD*%
X202338000Y-125480000D02*
X175795000Y-125480000D01*
X164365000Y-118622000D02*
X161317000Y-115574000D01*
X128678000Y-109732000D02*
X128227000Y-110183000D01*
X137025802Y-110183000D02*
X129129000Y-110183000D01*
X107920000Y-110183000D02*
X107342000Y-109605000D01*
X143515000Y-115171000D02*
X143156000Y-114812000D01*
X150419055Y-115171000D02*
X143515000Y-115171000D01*
X129129000Y-110183000D02*
X128678000Y-109732000D01*
X128227000Y-110183000D02*
X107920000Y-110183000D01*
X143156000Y-114812000D02*
X142797000Y-115171000D01*
X168937000Y-118622000D02*
X164365000Y-118622000D01*
X202846000Y-124972000D02*
X202338000Y-125480000D01*
X175795000Y-125480000D02*
X168937000Y-118622000D01*
X161317000Y-115574000D02*
X150822056Y-115574000D01*
X142013802Y-115171000D02*
X137025802Y-110183000D01*
X150822056Y-115574000D02*
X150419055Y-115171000D01*
X142797000Y-115171000D02*
X142013802Y-115171000D01*
%TO.N,RXD*%
X197258000Y-130179000D02*
X195845000Y-128766000D01*
X160388284Y-128766000D02*
X157811280Y-126189000D01*
X150623931Y-126189000D02*
X147698929Y-123264000D01*
X147698929Y-123264000D02*
X144877000Y-123264000D01*
X144877000Y-123264000D02*
X144616500Y-123003500D01*
X157811280Y-126189000D02*
X150623931Y-126189000D01*
X195845000Y-128766000D02*
X160388284Y-128766000D01*
%TO.N,CLKO*%
X159466000Y-119584000D02*
X159793000Y-119257000D01*
X151665000Y-119384000D02*
X151865000Y-119584000D01*
X151865000Y-119584000D02*
X159466000Y-119584000D01*
D45*
%TO.N,SJ3_1*%
X177685000Y-104667000D02*
X171365000Y-104667000D01*
X177700000Y-104652000D02*
X177685000Y-104667000D01*
X171365000Y-104667000D02*
X169445000Y-102747000D01*
%TO.N,SJ4_1*%
X172747000Y-104017000D02*
X171477000Y-102747000D01*
X175414000Y-104017000D02*
X172747000Y-104017000D01*
D44*
%TO.N,/Wavetable/ROM_A14*%
X100611000Y-76989256D02*
X100611000Y-75061000D01*
X110936685Y-83805000D02*
X107426744Y-83805000D01*
X112733685Y-85602000D02*
X110936685Y-83805000D01*
X121312000Y-85602000D02*
X112733685Y-85602000D01*
X123725000Y-85602000D02*
X123217000Y-85094000D01*
X121820000Y-85094000D02*
X121312000Y-85602000D01*
X123725000Y-86999000D02*
X123725000Y-85602000D01*
X123217000Y-85094000D02*
X121820000Y-85094000D01*
X107426744Y-83805000D02*
X100611000Y-76989256D01*
%TO.N,/Wavetable/SHDATA*%
X134012000Y-89920000D02*
X125122000Y-89920000D01*
X120126629Y-89053685D02*
X84504685Y-89053685D01*
X84504685Y-89053685D02*
X84482000Y-89031000D01*
X134774000Y-89158000D02*
X134012000Y-89920000D01*
X120757943Y-89684999D02*
X120126629Y-89053685D01*
X125122000Y-89920000D02*
X124887000Y-89685000D01*
X124887000Y-89685000D02*
X120757943Y-89684999D01*
%TO.N,/Wavetable/ROM_A13*%
X111102370Y-83405000D02*
X107592430Y-83405000D01*
X124360000Y-88142000D02*
X124360000Y-85671315D01*
X123382685Y-84694000D02*
X121654314Y-84694000D01*
X101500000Y-77312570D02*
X101500000Y-74172000D01*
X124360000Y-85671315D02*
X123382685Y-84694000D01*
X112899371Y-85202000D02*
X111102370Y-83405000D01*
X121146314Y-85202000D02*
X112899371Y-85202000D01*
X107592430Y-83405000D02*
X101500000Y-77312570D01*
X121654314Y-84694000D02*
X121146314Y-85202000D01*
%TO.N,/Wavetable/ROM_A17*%
X121312000Y-86472000D02*
X108396686Y-86472000D01*
X123090000Y-85856000D02*
X121928000Y-85856000D01*
X98325000Y-76400314D02*
X98325000Y-74172000D01*
X108396686Y-86472000D02*
X98325000Y-76400314D01*
X121928000Y-85856000D02*
X121312000Y-86472000D01*
%TO.N,/Wavetable/ROM_A8*%
X120298129Y-89790871D02*
X120296000Y-89793000D01*
X120296000Y-89793000D02*
X114835000Y-89793000D01*
X124360000Y-90428000D02*
X120935258Y-90428000D01*
X120935258Y-90428000D02*
X120298129Y-89790871D01*
%TO.N,/Wavetable/ROM_D6*%
X115597000Y-98937000D02*
X114962000Y-99572000D01*
X124360000Y-98937000D02*
X115597000Y-98937000D01*
%TO.N,/Wavetable/ROM_D3*%
X115597000Y-102747000D02*
X114962000Y-103382000D01*
X124360000Y-102747000D02*
X115597000Y-102747000D01*
%TO.N,/Wavetable/ROM_A15*%
X110771000Y-84205000D02*
X107261058Y-84205000D01*
X107261058Y-84205000D02*
X99849000Y-76792942D01*
X111406000Y-84840000D02*
X110771000Y-84205000D01*
X111406000Y-85729000D02*
X111406000Y-84840000D01*
X99849000Y-76792942D02*
X99849000Y-74172000D01*
%TO.N,/Wavetable/ROM_A10*%
X126011000Y-81792000D02*
X125649000Y-82154000D01*
X116797686Y-81030000D02*
X108612000Y-81030000D01*
X125649000Y-82154000D02*
X117921686Y-82154000D01*
X117921686Y-82154000D02*
X116797686Y-81030000D01*
X128209000Y-81069000D02*
X127486000Y-81792000D01*
X127486000Y-81792000D02*
X126011000Y-81792000D01*
%TO.N,/Wavetable/ROM_A18*%
X122328000Y-86872000D02*
X108231000Y-86872000D01*
X97563000Y-76204000D02*
X97563000Y-75061000D01*
X108231000Y-86872000D02*
X97563000Y-76204000D01*
%TO.N,/Wavetable/ROM_A11*%
X126900000Y-81030000D02*
X126207314Y-81030000D01*
X118087372Y-81754000D02*
X116601372Y-80268000D01*
X126207314Y-81030000D02*
X125483315Y-81754000D01*
X125483315Y-81754000D02*
X118087372Y-81754000D01*
X116601372Y-80268000D02*
X107596000Y-80268000D01*
%TO.N,/Wavetable/ROM_D5*%
X124360000Y-100207000D02*
X115597000Y-100207000D01*
X115597000Y-100207000D02*
X114962000Y-100842000D01*
%TO.N,/Wavetable/ROM_A19*%
X108612000Y-79506000D02*
X104259116Y-79506000D01*
X102389000Y-77635884D02*
X102389000Y-74045000D01*
X97563000Y-73410000D02*
X96801000Y-74172000D01*
X101754000Y-73410000D02*
X97563000Y-73410000D01*
X104259116Y-79506000D02*
X102389000Y-77635884D01*
X102389000Y-74045000D02*
X101754000Y-73410000D01*
%TO.N,/Wavetable/ROM_A9*%
X126773000Y-82554000D02*
X117756000Y-82554000D01*
X117756000Y-82554000D02*
X116997000Y-81795000D01*
X116997000Y-81795000D02*
X107593000Y-81795000D01*
%TO.N,/Wavetable/ROM_D2*%
X109818500Y-100270500D02*
X111279000Y-101731000D01*
X108294500Y-100270500D02*
X109818500Y-100270500D01*
%TO.N,/Wavetable/ROM_D4*%
X124360000Y-101477000D02*
X115597000Y-101477000D01*
X115597000Y-101477000D02*
X114962000Y-102112000D01*
%TO.N,/Wavetable/ROM_A16*%
X110263000Y-85094000D02*
X107584372Y-85094000D01*
X99087000Y-76596628D02*
X99087000Y-75061000D01*
X107584372Y-85094000D02*
X99087000Y-76596628D01*
%TO.N,/Wavetable/ROM_D0*%
X110517000Y-97921000D02*
X111279000Y-98683000D01*
X107342000Y-97921000D02*
X110517000Y-97921000D01*
%TO.N,/Wavetable/WORDCLK*%
X86260000Y-88142000D02*
X84482000Y-86364000D01*
X133504000Y-88396000D02*
X130075000Y-88396000D01*
X129659000Y-88742000D02*
X120946314Y-88742000D01*
X120346315Y-88142000D02*
X86260000Y-88142000D01*
X130075000Y-88396000D02*
X129694000Y-88777000D01*
X129694000Y-88777000D02*
X129659000Y-88742000D01*
X120946314Y-88742000D02*
X120346315Y-88142000D01*
%TO.N,/Wavetable/ROM_CS*%
X122836000Y-88142000D02*
X120912000Y-88142000D01*
X120912000Y-88142000D02*
X120042000Y-87272000D01*
X108065314Y-87272000D02*
X96235314Y-75442000D01*
X120042000Y-87272000D02*
X108065314Y-87272000D01*
X96235314Y-75442000D02*
X94007000Y-75442000D01*
%TO.N,/Wavetable/ROM_D1*%
X107469000Y-99318000D02*
X110390000Y-99318000D01*
X110390000Y-99318000D02*
X111279000Y-100207000D01*
%TO.N,/Wavetable/ROM_D7*%
X115597000Y-97667000D02*
X114962000Y-98302000D01*
X124360000Y-97667000D02*
X115597000Y-97667000D01*
%TO.N,/ROM_DO*%
X151157000Y-123194000D02*
X157126000Y-123194000D01*
X157126000Y-123194000D02*
X158142000Y-124210000D01*
%TD*%
%TA.AperFunction,Conductor*%
%TO.N,GND*%
G36*
X152444183Y-81683907D02*
G01*
X152455996Y-81693996D01*
X152652004Y-81890004D01*
X152679781Y-81944521D01*
X152681000Y-81960008D01*
X152681000Y-84840000D01*
X153824000Y-85983000D01*
X156703992Y-85983000D01*
X156762183Y-86001907D01*
X156773996Y-86011996D01*
X160399004Y-89637004D01*
X160426781Y-89691521D01*
X160428000Y-89707008D01*
X160428000Y-108335000D01*
X161190000Y-109097000D01*
X165974992Y-109097000D01*
X166033183Y-109115907D01*
X166044996Y-109125996D01*
X168683000Y-111764000D01*
X171943992Y-111764000D01*
X172002183Y-111782907D01*
X172013996Y-111792996D01*
X174652000Y-114431000D01*
X188961992Y-114431000D01*
X189020183Y-114449907D01*
X189031996Y-114459996D01*
X191543000Y-116971000D01*
X192812999Y-116971000D01*
X192813000Y-116971000D01*
X194308004Y-115475996D01*
X194362521Y-115448219D01*
X194378008Y-115447000D01*
X195057992Y-115447000D01*
X195116183Y-115465907D01*
X195127996Y-115475996D01*
X196750000Y-117098000D01*
X203226999Y-117098000D01*
X203227000Y-117098000D01*
X203735000Y-116590000D01*
X203735000Y-109900008D01*
X203753907Y-109841817D01*
X203763996Y-109830004D01*
X204468004Y-109125996D01*
X204522521Y-109098219D01*
X204538008Y-109097000D01*
X210846999Y-109097000D01*
X210847000Y-109097000D01*
X216152004Y-103791996D01*
X216206521Y-103764219D01*
X216222008Y-103763000D01*
X224775992Y-103763000D01*
X224834183Y-103781907D01*
X224845996Y-103791996D01*
X226693004Y-105639004D01*
X226720781Y-105693521D01*
X226722000Y-105709008D01*
X226722000Y-141186953D01*
X226703093Y-141245144D01*
X226692957Y-141257003D01*
X225709586Y-142239052D01*
X225655053Y-142266792D01*
X225639632Y-142268000D01*
X213174008Y-142268000D01*
X213115817Y-142249093D01*
X213104004Y-142239004D01*
X212526996Y-141661996D01*
X212499219Y-141607479D01*
X212498000Y-141591992D01*
X212498000Y-136021001D01*
X212498000Y-136021000D01*
X210212000Y-133735000D01*
X210211999Y-133735000D01*
X202437000Y-133735000D01*
X202378809Y-133716093D01*
X202342845Y-133666593D01*
X202338000Y-133636000D01*
X202338000Y-131746230D01*
X209869500Y-131746230D01*
X209869500Y-131913769D01*
X209902183Y-132078079D01*
X209902185Y-132078085D01*
X209966296Y-132232862D01*
X209966297Y-132232863D01*
X210059374Y-132372162D01*
X210177838Y-132490626D01*
X210317137Y-132583703D01*
X210471918Y-132647816D01*
X210636233Y-132680500D01*
X210636234Y-132680500D01*
X210803766Y-132680500D01*
X210803767Y-132680500D01*
X210968082Y-132647816D01*
X211122863Y-132583703D01*
X211262162Y-132490626D01*
X211380626Y-132372162D01*
X211473703Y-132232863D01*
X211537816Y-132078082D01*
X211570500Y-131913767D01*
X211570500Y-131746233D01*
X211537816Y-131581918D01*
X211473703Y-131427137D01*
X211380626Y-131287838D01*
X211262162Y-131169374D01*
X211169084Y-131107181D01*
X211122862Y-131076296D01*
X210968085Y-131012185D01*
X210968079Y-131012183D01*
X210803769Y-130979500D01*
X210803767Y-130979500D01*
X210636233Y-130979500D01*
X210636230Y-130979500D01*
X210471920Y-131012183D01*
X210471914Y-131012185D01*
X210317137Y-131076296D01*
X210177838Y-131169374D01*
X210177834Y-131169377D01*
X210059377Y-131287834D01*
X210059374Y-131287838D01*
X209966296Y-131427137D01*
X209902185Y-131581914D01*
X209902183Y-131581920D01*
X209869500Y-131746230D01*
X202338000Y-131746230D01*
X202338000Y-127045008D01*
X202356907Y-126986817D01*
X202366996Y-126975004D01*
X205738004Y-123603996D01*
X205792521Y-123576219D01*
X205808008Y-123575000D01*
X211735999Y-123575000D01*
X211736000Y-123575000D01*
X213387000Y-121924000D01*
X213387000Y-120568008D01*
X213405907Y-120509817D01*
X213415996Y-120498004D01*
X213993004Y-119920996D01*
X214047521Y-119893219D01*
X214063008Y-119892000D01*
X216012992Y-119892000D01*
X216071183Y-119910907D01*
X216082996Y-119920996D01*
X218057004Y-121895004D01*
X218084781Y-121949521D01*
X218086000Y-121965008D01*
X218086000Y-125565991D01*
X218067093Y-125624182D01*
X218057004Y-125635995D01*
X216726020Y-126966978D01*
X216711020Y-126979288D01*
X216686220Y-126995859D01*
X216546858Y-127135221D01*
X216530287Y-127160022D01*
X216517976Y-127175023D01*
X216308000Y-127384999D01*
X216308000Y-127385000D01*
X216308000Y-133735000D01*
X217324000Y-134751000D01*
X219355999Y-134751000D01*
X219356000Y-134751000D01*
X221642000Y-132465000D01*
X221642000Y-114812000D01*
X219483000Y-112653000D01*
X219482999Y-112653000D01*
X216816001Y-112653000D01*
X216816000Y-112653000D01*
X216181000Y-113288000D01*
X216181000Y-113288001D01*
X216181000Y-115786992D01*
X216162093Y-115845183D01*
X216152004Y-115856996D01*
X211891996Y-120117004D01*
X211837479Y-120144781D01*
X211821992Y-120146000D01*
X206062008Y-120146000D01*
X206003817Y-120127093D01*
X205992004Y-120117004D01*
X205767000Y-119892000D01*
X205132000Y-119257000D01*
X205131999Y-119257000D01*
X203100001Y-119257000D01*
X203100000Y-119257000D01*
X202465000Y-119892000D01*
X202239996Y-120117004D01*
X202185479Y-120144781D01*
X202169992Y-120146000D01*
X191711008Y-120146000D01*
X191652817Y-120127093D01*
X191641004Y-120117004D01*
X191416000Y-119892000D01*
X190019000Y-118495000D01*
X190018999Y-118495000D01*
X188536008Y-118495000D01*
X188477817Y-118476093D01*
X188466004Y-118466004D01*
X186971000Y-116971000D01*
X186970999Y-116971000D01*
X173931008Y-116971000D01*
X173872817Y-116952093D01*
X173861004Y-116942004D01*
X172366000Y-115447000D01*
X170842000Y-113923000D01*
X170841999Y-113923000D01*
X166438008Y-113923000D01*
X166379817Y-113904093D01*
X166368004Y-113894004D01*
X165127000Y-112653000D01*
X163476000Y-111002000D01*
X163475999Y-111002000D01*
X153992008Y-111002000D01*
X153933817Y-110983093D01*
X153922004Y-110973004D01*
X152300000Y-109351000D01*
X152299999Y-109351000D01*
X146626008Y-109351000D01*
X146567817Y-109332093D01*
X146556004Y-109322004D01*
X145978996Y-108744996D01*
X145951219Y-108690479D01*
X145950000Y-108674992D01*
X145950000Y-99359008D01*
X145968907Y-99300817D01*
X145978996Y-99289004D01*
X146429004Y-98838996D01*
X146483521Y-98811219D01*
X146499008Y-98810000D01*
X153696999Y-98810000D01*
X153697000Y-98810000D01*
X158142000Y-94365000D01*
X158142000Y-91317000D01*
X156999000Y-90174000D01*
X156998999Y-90174000D01*
X153992008Y-90174000D01*
X153933817Y-90155093D01*
X153922004Y-90145004D01*
X153316000Y-89539000D01*
X150776000Y-86999000D01*
X150775999Y-86999000D01*
X147728001Y-86999000D01*
X147728000Y-86999000D01*
X139600000Y-95127000D01*
X139600000Y-95127001D01*
X139600000Y-102705992D01*
X139581093Y-102764183D01*
X139571004Y-102775996D01*
X137187000Y-105160000D01*
X137187000Y-108674992D01*
X137168093Y-108733183D01*
X137158004Y-108744996D01*
X136707996Y-109195004D01*
X136653479Y-109222781D01*
X136637992Y-109224000D01*
X130243008Y-109224000D01*
X130184817Y-109205093D01*
X130173004Y-109195004D01*
X129652992Y-108674992D01*
X128805000Y-107827000D01*
X128804999Y-107827000D01*
X127789001Y-107827000D01*
X127789000Y-107827000D01*
X126941008Y-108674992D01*
X126420996Y-109195004D01*
X126366479Y-109222781D01*
X126350992Y-109224000D01*
X111320008Y-109224000D01*
X111261817Y-109205093D01*
X111250004Y-109195004D01*
X110389999Y-108334999D01*
X109501000Y-107446000D01*
X109500999Y-107446000D01*
X107215001Y-107446000D01*
X107215000Y-107446000D01*
X106326001Y-108334999D01*
X105465996Y-109195004D01*
X105411479Y-109222781D01*
X105395992Y-109224000D01*
X84523008Y-109224000D01*
X84464817Y-109205093D01*
X84453004Y-109195004D01*
X83240996Y-107982996D01*
X83213219Y-107928479D01*
X83212000Y-107912992D01*
X83212000Y-104566008D01*
X83230907Y-104507817D01*
X83240996Y-104496004D01*
X83691004Y-104045996D01*
X83745521Y-104018219D01*
X83761008Y-104017000D01*
X85075992Y-104017000D01*
X85134183Y-104035907D01*
X85145996Y-104045996D01*
X86514000Y-105414000D01*
X106452999Y-105414000D01*
X106453000Y-105414000D01*
X107088000Y-104779000D01*
X107088000Y-103001000D01*
X106453000Y-102366000D01*
X106452999Y-102366000D01*
X87190008Y-102366000D01*
X87131817Y-102347093D01*
X87120004Y-102337004D01*
X84129996Y-99346996D01*
X84102219Y-99292479D01*
X84101000Y-99276992D01*
X84101000Y-97794000D01*
X106580000Y-97794000D01*
X106580000Y-100588000D01*
X107088000Y-101096000D01*
X109586992Y-101096000D01*
X109645183Y-101114907D01*
X109656996Y-101124996D01*
X110898000Y-102366000D01*
X110898001Y-102366000D01*
X111786999Y-102366000D01*
X111787000Y-102366000D01*
X112295000Y-101858000D01*
X112295000Y-98556000D01*
X111914000Y-98175000D01*
X113946000Y-98175000D01*
X113946000Y-103636000D01*
X114454000Y-104144000D01*
X114454001Y-104144000D01*
X115596999Y-104144000D01*
X115597000Y-104144000D01*
X116330004Y-103410996D01*
X116384521Y-103383219D01*
X116400008Y-103382000D01*
X124740999Y-103382000D01*
X124741000Y-103382000D01*
X125249000Y-102874000D01*
X125249000Y-97540000D01*
X124741000Y-97032000D01*
X115089000Y-97032000D01*
X113946000Y-98175000D01*
X111914000Y-98175000D01*
X111025000Y-97286000D01*
X107088000Y-97286000D01*
X106580000Y-97794000D01*
X84101000Y-97794000D01*
X84101000Y-90723008D01*
X84119907Y-90664817D01*
X84129996Y-90653004D01*
X85215004Y-89567996D01*
X85269521Y-89540219D01*
X85285008Y-89539000D01*
X105141992Y-89539000D01*
X105200183Y-89557907D01*
X105211996Y-89567996D01*
X107723000Y-92079000D01*
X115301992Y-92079000D01*
X115360183Y-92097907D01*
X115371996Y-92107996D01*
X117502000Y-94238000D01*
X136805999Y-94238000D01*
X136806000Y-94238000D01*
X147191004Y-83852996D01*
X147245521Y-83825219D01*
X147261008Y-83824000D01*
X150648999Y-83824000D01*
X150649000Y-83824000D01*
X151411000Y-83062000D01*
X151411000Y-81960008D01*
X151429907Y-81901817D01*
X151439996Y-81890004D01*
X151636004Y-81693996D01*
X151690521Y-81666219D01*
X151706008Y-81665000D01*
X152385992Y-81665000D01*
X152444183Y-81683907D01*
G37*
%TD.AperFunction*%
%TD*%
%TA.AperFunction,Conductor*%
%TO.N,+5V_WT*%
G36*
X86277183Y-74063907D02*
G01*
X86288996Y-74073996D01*
X86739004Y-74524004D01*
X86766781Y-74578521D01*
X86768000Y-74594008D01*
X86768000Y-75146992D01*
X86749093Y-75205183D01*
X86739004Y-75216996D01*
X83466000Y-78490000D01*
X83466000Y-99445000D01*
X86895000Y-102874000D01*
X106284992Y-102874000D01*
X106343183Y-102892907D01*
X106354996Y-102902996D01*
X106678004Y-103226004D01*
X106705781Y-103280521D01*
X106707000Y-103296008D01*
X106707000Y-104483992D01*
X106688093Y-104542183D01*
X106678004Y-104553996D01*
X106354996Y-104877004D01*
X106300479Y-104904781D01*
X106284992Y-104906000D01*
X100525008Y-104906000D01*
X100466817Y-104887093D01*
X100455005Y-104877004D01*
X100103000Y-104525000D01*
X99087000Y-104525000D01*
X99086999Y-104525000D01*
X98734995Y-104877004D01*
X98680479Y-104904781D01*
X98664992Y-104906000D01*
X86682008Y-104906000D01*
X86623817Y-104887093D01*
X86612004Y-104877004D01*
X82097996Y-100362996D01*
X82070219Y-100308479D01*
X82069000Y-100292992D01*
X82069000Y-91485007D01*
X82087907Y-91426816D01*
X82097990Y-91415009D01*
X82577000Y-90936000D01*
X82577000Y-90047000D01*
X82097996Y-89567996D01*
X82070219Y-89513479D01*
X82069000Y-89497992D01*
X82069000Y-77515008D01*
X82087907Y-77456817D01*
X82097996Y-77445004D01*
X85469004Y-74073996D01*
X85523521Y-74046219D01*
X85539008Y-74045000D01*
X86218992Y-74045000D01*
X86277183Y-74063907D01*
G37*
%TD.AperFunction*%
%TD*%
%TA.AperFunction,Conductor*%
%TO.N,+5VD*%
G36*
X150412183Y-88541907D02*
G01*
X150423996Y-88551996D01*
X151255004Y-89383004D01*
X151282781Y-89437521D01*
X151284000Y-89453008D01*
X151284000Y-93688992D01*
X151265093Y-93747183D01*
X151255004Y-93758996D01*
X150296996Y-94717004D01*
X150242479Y-94744781D01*
X150226992Y-94746000D01*
X144299000Y-94746000D01*
X142013000Y-97032000D01*
X142013000Y-110494000D01*
X144101997Y-112582997D01*
X144129773Y-112637512D01*
X144120202Y-112697944D01*
X144101996Y-112723003D01*
X143565996Y-113259004D01*
X143511479Y-113286781D01*
X143495992Y-113288000D01*
X142054008Y-113288000D01*
X141995817Y-113269093D01*
X141984004Y-113259004D01*
X138231996Y-109506996D01*
X138204219Y-109452479D01*
X138203000Y-109436992D01*
X138203000Y-105709007D01*
X138221907Y-105650816D01*
X138231990Y-105639009D01*
X140616000Y-103255000D01*
X140616000Y-96057008D01*
X140634907Y-95998817D01*
X140644996Y-95987004D01*
X147064004Y-89567996D01*
X147118521Y-89540219D01*
X147134008Y-89539000D01*
X148108999Y-89539000D01*
X148109000Y-89539000D01*
X149096004Y-88551996D01*
X149150521Y-88524219D01*
X149166008Y-88523000D01*
X150353992Y-88523000D01*
X150412183Y-88541907D01*
G37*
%TD.AperFunction*%
%TD*%
%TA.AperFunction,Conductor*%
%TO.N,GNDA*%
G36*
X217595183Y-63903907D02*
G01*
X217606996Y-63913996D01*
X218184004Y-64491004D01*
X218211781Y-64545521D01*
X218213000Y-64561008D01*
X218213000Y-80268000D01*
X218213000Y-81157000D01*
X221895999Y-81157000D01*
X221896000Y-81157000D01*
X222785000Y-80268000D01*
X222785000Y-74340007D01*
X222803907Y-74281816D01*
X222813990Y-74270009D01*
X224817000Y-72267000D01*
X224817000Y-70149008D01*
X224835907Y-70090817D01*
X224845996Y-70079004D01*
X225169004Y-69755996D01*
X225223521Y-69728219D01*
X225239008Y-69727000D01*
X226172992Y-69727000D01*
X226231183Y-69745907D01*
X226242996Y-69755996D01*
X226693004Y-70206004D01*
X226720781Y-70260521D01*
X226722000Y-70276008D01*
X226722000Y-74892992D01*
X226703093Y-74951183D01*
X226693004Y-74962996D01*
X226115996Y-75540004D01*
X226061479Y-75567781D01*
X226045992Y-75569000D01*
X224436000Y-75569000D01*
X223928000Y-76077000D01*
X223928000Y-80395000D01*
X224436000Y-80903000D01*
X226172992Y-80903000D01*
X226231183Y-80921907D01*
X226242996Y-80931996D01*
X226693004Y-81382004D01*
X226720781Y-81436521D01*
X226722000Y-81452008D01*
X226722000Y-87465992D01*
X226703093Y-87524183D01*
X226693004Y-87535996D01*
X226115996Y-88113004D01*
X226061479Y-88140781D01*
X226045992Y-88142000D01*
X224563000Y-88142000D01*
X223928000Y-88650000D01*
X223928000Y-92968000D01*
X224436000Y-93476000D01*
X225796378Y-93476000D01*
X225854569Y-93494907D01*
X225860806Y-93499834D01*
X225918784Y-93549529D01*
X226687429Y-94208367D01*
X226719305Y-94260591D01*
X226722000Y-94283532D01*
X226722000Y-99276992D01*
X226703093Y-99335183D01*
X226693004Y-99346996D01*
X225480996Y-100559004D01*
X225426479Y-100586781D01*
X225410992Y-100588000D01*
X224944000Y-100588000D01*
X224055000Y-101477000D01*
X224055000Y-101477001D01*
X224055000Y-102648000D01*
X224036093Y-102706191D01*
X223986593Y-102742155D01*
X223956000Y-102747000D01*
X222630000Y-102747000D01*
X222571809Y-102728093D01*
X222535845Y-102678593D01*
X222531000Y-102648000D01*
X222531000Y-101604001D01*
X222531000Y-101604000D01*
X221515000Y-100588000D01*
X221514999Y-100588000D01*
X218340001Y-100588000D01*
X218340000Y-100588000D01*
X214149000Y-104779000D01*
X212145996Y-106782004D01*
X212091479Y-106809781D01*
X212075992Y-106811000D01*
X205894000Y-106811000D01*
X203100000Y-109605000D01*
X203100000Y-109605001D01*
X203100000Y-110960992D01*
X203081093Y-111019183D01*
X203071004Y-111030996D01*
X201604996Y-112497004D01*
X201550479Y-112524781D01*
X201534992Y-112526000D01*
X191711008Y-112526000D01*
X191652817Y-112507093D01*
X191641004Y-112497004D01*
X191133004Y-111989004D01*
X190527000Y-111383000D01*
X190526999Y-111383000D01*
X180154008Y-111383000D01*
X180095817Y-111364093D01*
X180084005Y-111354004D01*
X179732000Y-111002000D01*
X178843000Y-111002000D01*
X178208001Y-111636999D01*
X177855996Y-111989004D01*
X177801479Y-112016781D01*
X177785992Y-112018000D01*
X175328008Y-112018000D01*
X175269817Y-111999093D01*
X175258004Y-111989004D01*
X172902996Y-109633996D01*
X172875219Y-109579479D01*
X172874000Y-109563992D01*
X172874000Y-109265008D01*
X172892907Y-109206817D01*
X172902996Y-109195004D01*
X173099004Y-108998996D01*
X173153521Y-108971219D01*
X173169008Y-108970000D01*
X182611992Y-108970000D01*
X182670183Y-108988907D01*
X182681996Y-108998996D01*
X184558000Y-110875000D01*
X191755992Y-110875000D01*
X191814183Y-110893907D01*
X191825996Y-110903996D01*
X192940000Y-112018000D01*
X194463999Y-112018000D01*
X194464000Y-112018000D01*
X194845000Y-111637000D01*
X194845000Y-109011008D01*
X194863907Y-108952817D01*
X194873996Y-108941004D01*
X197229004Y-106585996D01*
X197283521Y-106558219D01*
X197299008Y-106557000D01*
X201194999Y-106557000D01*
X201195000Y-106557000D01*
X202944004Y-104807996D01*
X202998521Y-104780219D01*
X203014008Y-104779000D01*
X205512999Y-104779000D01*
X205513000Y-104779000D01*
X206881004Y-103410996D01*
X206935521Y-103383219D01*
X206951008Y-103382000D01*
X208941999Y-103382000D01*
X208942000Y-103382000D01*
X210056004Y-102267996D01*
X210110521Y-102240219D01*
X210126008Y-102239000D01*
X212751999Y-102239000D01*
X212752000Y-102239000D01*
X213260000Y-101731000D01*
X213260000Y-100334000D01*
X211355000Y-98429000D01*
X211354999Y-98429000D01*
X193616008Y-98429000D01*
X193557817Y-98410093D01*
X193546004Y-98400004D01*
X192965622Y-97819622D01*
X192221230Y-97075230D01*
X219347500Y-97075230D01*
X219347500Y-97242769D01*
X219380183Y-97407079D01*
X219380185Y-97407085D01*
X219444296Y-97561862D01*
X219444297Y-97561863D01*
X219537374Y-97701162D01*
X219655838Y-97819626D01*
X219795137Y-97912703D01*
X219949918Y-97976816D01*
X220114233Y-98009500D01*
X220114234Y-98009500D01*
X220281766Y-98009500D01*
X220281767Y-98009500D01*
X220446082Y-97976816D01*
X220600863Y-97912703D01*
X220740162Y-97819626D01*
X220858626Y-97701162D01*
X220951703Y-97561863D01*
X221015816Y-97407082D01*
X221048500Y-97242767D01*
X221048500Y-97075233D01*
X221015816Y-96910918D01*
X220951703Y-96756137D01*
X220858626Y-96616838D01*
X220740162Y-96498374D01*
X220600863Y-96405297D01*
X220600864Y-96405297D01*
X220600862Y-96405296D01*
X220446085Y-96341185D01*
X220446079Y-96341183D01*
X220281769Y-96308500D01*
X220281767Y-96308500D01*
X220114233Y-96308500D01*
X220114230Y-96308500D01*
X219949920Y-96341183D01*
X219949914Y-96341185D01*
X219795137Y-96405296D01*
X219655838Y-96498374D01*
X219655834Y-96498377D01*
X219537377Y-96616834D01*
X219537374Y-96616838D01*
X219444296Y-96756137D01*
X219380185Y-96910914D01*
X219380183Y-96910920D01*
X219347500Y-97075230D01*
X192221230Y-97075230D01*
X192051000Y-96905000D01*
X192050999Y-96905000D01*
X188241001Y-96905000D01*
X188241000Y-96905000D01*
X187903235Y-97242765D01*
X187634996Y-97511004D01*
X187580479Y-97538781D01*
X187564992Y-97540000D01*
X169318000Y-97540000D01*
X168945297Y-97912703D01*
X168711996Y-98146004D01*
X168657479Y-98173781D01*
X168641992Y-98175000D01*
X167962008Y-98175000D01*
X167903817Y-98156093D01*
X167892004Y-98146004D01*
X167153079Y-97407079D01*
X166397000Y-96651000D01*
X166396999Y-96651000D01*
X164025008Y-96651000D01*
X163966817Y-96632093D01*
X163955004Y-96622004D01*
X163377996Y-96044996D01*
X163350219Y-95990479D01*
X163349000Y-95974992D01*
X163349000Y-93882400D01*
X167286000Y-93882400D01*
X167286000Y-94898400D01*
X167438400Y-95050800D01*
X167438401Y-95050800D01*
X171908799Y-95050800D01*
X171908800Y-95050800D01*
X173737600Y-93222000D01*
X173737600Y-92630230D01*
X174269500Y-92630230D01*
X174269500Y-92797769D01*
X174302183Y-92962079D01*
X174302185Y-92962085D01*
X174366296Y-93116862D01*
X174366297Y-93116863D01*
X174459374Y-93256162D01*
X174577838Y-93374626D01*
X174717137Y-93467703D01*
X174871918Y-93531816D01*
X175036233Y-93564500D01*
X175036234Y-93564500D01*
X175203766Y-93564500D01*
X175203767Y-93564500D01*
X175368082Y-93531816D01*
X175522863Y-93467703D01*
X175662162Y-93374626D01*
X175780626Y-93256162D01*
X175873703Y-93116863D01*
X175937816Y-92962082D01*
X175970500Y-92797767D01*
X175970500Y-92630233D01*
X175937816Y-92465918D01*
X175873703Y-92311137D01*
X175823068Y-92235357D01*
X178119500Y-92235357D01*
X178119500Y-93192642D01*
X178134470Y-93287158D01*
X178134471Y-93287160D01*
X178190084Y-93396306D01*
X178192515Y-93401077D01*
X178282923Y-93491485D01*
X178396843Y-93549530D01*
X178452587Y-93558359D01*
X178491357Y-93564500D01*
X178491360Y-93564500D01*
X179448643Y-93564500D01*
X179482748Y-93559097D01*
X179543157Y-93549530D01*
X179657077Y-93491485D01*
X179747485Y-93401077D01*
X179805530Y-93287157D01*
X179820500Y-93192640D01*
X179820500Y-92630230D01*
X180619500Y-92630230D01*
X180619500Y-92797769D01*
X180652183Y-92962079D01*
X180652185Y-92962085D01*
X180716296Y-93116862D01*
X180716297Y-93116863D01*
X180809374Y-93256162D01*
X180927838Y-93374626D01*
X181067137Y-93467703D01*
X181221918Y-93531816D01*
X181386233Y-93564500D01*
X181386234Y-93564500D01*
X181553766Y-93564500D01*
X181553767Y-93564500D01*
X181718082Y-93531816D01*
X181872863Y-93467703D01*
X182012162Y-93374626D01*
X182130626Y-93256162D01*
X182223703Y-93116863D01*
X182287816Y-92962082D01*
X182320500Y-92797767D01*
X182320500Y-92630233D01*
X182287816Y-92465918D01*
X182223703Y-92311137D01*
X182130626Y-92171838D01*
X182012162Y-92053374D01*
X181872863Y-91960297D01*
X181872864Y-91960297D01*
X181872862Y-91960296D01*
X181718085Y-91896185D01*
X181718079Y-91896183D01*
X181553769Y-91863500D01*
X181553767Y-91863500D01*
X181386233Y-91863500D01*
X181386230Y-91863500D01*
X181221920Y-91896183D01*
X181221914Y-91896185D01*
X181067137Y-91960296D01*
X180927838Y-92053374D01*
X180927834Y-92053377D01*
X180809377Y-92171834D01*
X180809374Y-92171838D01*
X180716296Y-92311137D01*
X180652185Y-92465914D01*
X180652183Y-92465920D01*
X180619500Y-92630230D01*
X179820500Y-92630230D01*
X179820500Y-92235360D01*
X179805530Y-92140843D01*
X179747485Y-92026923D01*
X179657077Y-91936515D01*
X179657074Y-91936513D01*
X179543160Y-91878471D01*
X179543158Y-91878470D01*
X179448643Y-91863500D01*
X179448640Y-91863500D01*
X178491360Y-91863500D01*
X178491357Y-91863500D01*
X178396841Y-91878470D01*
X178396839Y-91878471D01*
X178282925Y-91936513D01*
X178192513Y-92026925D01*
X178134471Y-92140839D01*
X178134470Y-92140841D01*
X178119500Y-92235357D01*
X175823068Y-92235357D01*
X175780626Y-92171838D01*
X175662162Y-92053374D01*
X175522863Y-91960297D01*
X175522864Y-91960297D01*
X175522862Y-91960296D01*
X175368085Y-91896185D01*
X175368079Y-91896183D01*
X175203769Y-91863500D01*
X175203767Y-91863500D01*
X175036233Y-91863500D01*
X175036230Y-91863500D01*
X174871920Y-91896183D01*
X174871914Y-91896185D01*
X174717137Y-91960296D01*
X174577838Y-92053374D01*
X174577834Y-92053377D01*
X174459377Y-92171834D01*
X174459374Y-92171838D01*
X174366296Y-92311137D01*
X174302185Y-92465914D01*
X174302183Y-92465920D01*
X174269500Y-92630230D01*
X173737600Y-92630230D01*
X173737600Y-91799600D01*
X173432800Y-91494800D01*
X172112000Y-91494800D01*
X171105192Y-92501608D01*
X170108996Y-93497804D01*
X170054479Y-93525581D01*
X170038992Y-93526800D01*
X167641600Y-93526800D01*
X167286000Y-93882400D01*
X163349000Y-93882400D01*
X163349000Y-92235357D01*
X164911500Y-92235357D01*
X164911500Y-93192642D01*
X164926470Y-93287158D01*
X164926471Y-93287160D01*
X164982084Y-93396306D01*
X164984515Y-93401077D01*
X165074923Y-93491485D01*
X165188843Y-93549530D01*
X165244587Y-93558359D01*
X165283357Y-93564500D01*
X165283360Y-93564500D01*
X166240643Y-93564500D01*
X166274748Y-93559097D01*
X166335157Y-93549530D01*
X166449077Y-93491485D01*
X166539485Y-93401077D01*
X166597530Y-93287157D01*
X166612500Y-93192640D01*
X166612500Y-92235360D01*
X166597530Y-92140843D01*
X166539485Y-92026923D01*
X166449077Y-91936515D01*
X166449074Y-91936513D01*
X166335160Y-91878471D01*
X166335158Y-91878470D01*
X166240643Y-91863500D01*
X166240640Y-91863500D01*
X165283360Y-91863500D01*
X165283357Y-91863500D01*
X165188841Y-91878470D01*
X165188839Y-91878471D01*
X165074925Y-91936513D01*
X164984513Y-92026925D01*
X164926471Y-92140839D01*
X164926470Y-92140841D01*
X164911500Y-92235357D01*
X163349000Y-92235357D01*
X163349000Y-91190000D01*
X184100800Y-91190000D01*
X184100800Y-93069600D01*
X184710400Y-93679200D01*
X184710401Y-93679200D01*
X185878799Y-93679200D01*
X185878800Y-93679200D01*
X187373804Y-92184196D01*
X187428321Y-92156419D01*
X187443808Y-92155200D01*
X189749392Y-92155200D01*
X189807583Y-92174107D01*
X189819396Y-92184196D01*
X190320204Y-92685004D01*
X190347981Y-92739521D01*
X190349200Y-92755008D01*
X190349200Y-94542800D01*
X190806400Y-95000000D01*
X191628992Y-95000000D01*
X191687183Y-95018907D01*
X191698996Y-95028996D01*
X192533600Y-95863600D01*
X192533601Y-95863600D01*
X197410399Y-95863600D01*
X197410400Y-95863600D01*
X198803804Y-94470196D01*
X198858321Y-94442419D01*
X198873808Y-94441200D01*
X203049199Y-94441200D01*
X203049200Y-94441200D01*
X203557200Y-93933200D01*
X203557200Y-92694725D01*
X210812500Y-92694725D01*
X210812500Y-94003274D01*
X210815353Y-94033694D01*
X210815355Y-94033703D01*
X210860207Y-94161883D01*
X210940845Y-94271144D01*
X210940847Y-94271146D01*
X210940850Y-94271150D01*
X210940853Y-94271152D01*
X210940855Y-94271154D01*
X211050116Y-94351792D01*
X211050117Y-94351792D01*
X211050118Y-94351793D01*
X211178301Y-94396646D01*
X211208725Y-94399499D01*
X211208727Y-94399500D01*
X211208734Y-94399500D01*
X212517273Y-94399500D01*
X212517273Y-94399499D01*
X212547699Y-94396646D01*
X212675882Y-94351793D01*
X212785150Y-94271150D01*
X212865793Y-94161882D01*
X212910646Y-94033699D01*
X212913499Y-94003273D01*
X212913500Y-94003273D01*
X212913500Y-92694727D01*
X212913499Y-92694725D01*
X212910646Y-92664301D01*
X212865793Y-92536118D01*
X212824007Y-92479500D01*
X212785154Y-92426855D01*
X212785152Y-92426853D01*
X212785150Y-92426850D01*
X212785146Y-92426847D01*
X212785144Y-92426845D01*
X212675883Y-92346207D01*
X212547703Y-92301355D01*
X212547694Y-92301353D01*
X212517274Y-92298500D01*
X212517266Y-92298500D01*
X211208734Y-92298500D01*
X211208725Y-92298500D01*
X211178305Y-92301353D01*
X211178296Y-92301355D01*
X211050116Y-92346207D01*
X210940855Y-92426845D01*
X210940845Y-92426855D01*
X210860207Y-92536116D01*
X210815355Y-92664296D01*
X210815353Y-92664305D01*
X210812500Y-92694725D01*
X203557200Y-92694725D01*
X203557200Y-92460000D01*
X203201600Y-92104400D01*
X203201599Y-92104400D01*
X193631008Y-92104400D01*
X193572817Y-92085493D01*
X193561004Y-92075404D01*
X192717208Y-91231608D01*
X191862800Y-90377200D01*
X184913600Y-90377200D01*
X184100800Y-91190000D01*
X163349000Y-91190000D01*
X163349000Y-91104007D01*
X163367907Y-91045816D01*
X163377990Y-91034009D01*
X165381000Y-89031000D01*
X165381000Y-88142000D01*
X165029357Y-87790357D01*
X190819500Y-87790357D01*
X190819500Y-88747642D01*
X190834470Y-88842158D01*
X190834471Y-88842160D01*
X190886880Y-88945018D01*
X190892515Y-88956077D01*
X190982923Y-89046485D01*
X191096843Y-89104530D01*
X191152587Y-89113359D01*
X191191357Y-89119500D01*
X191191360Y-89119500D01*
X192148643Y-89119500D01*
X192182748Y-89114097D01*
X192243157Y-89104530D01*
X192357077Y-89046485D01*
X192447485Y-88956077D01*
X192505530Y-88842157D01*
X192517246Y-88768184D01*
X192520500Y-88747642D01*
X192520500Y-88292532D01*
X210812500Y-88292532D01*
X210812500Y-88499467D01*
X210852869Y-88702418D01*
X210932058Y-88893597D01*
X211038495Y-89052892D01*
X211047023Y-89065655D01*
X211193345Y-89211977D01*
X211365402Y-89326941D01*
X211556580Y-89406130D01*
X211759535Y-89446500D01*
X211759536Y-89446500D01*
X211966464Y-89446500D01*
X211966465Y-89446500D01*
X212169420Y-89406130D01*
X212360598Y-89326941D01*
X212532655Y-89211977D01*
X212678977Y-89065655D01*
X212793941Y-88893598D01*
X212873130Y-88702420D01*
X212883557Y-88650000D01*
X218213000Y-88650000D01*
X218213000Y-92968000D01*
X218975000Y-93730000D01*
X218975001Y-93730000D01*
X222022999Y-93730000D01*
X222023000Y-93730000D01*
X222785000Y-92968000D01*
X222785000Y-88650000D01*
X222023000Y-87888000D01*
X218975000Y-87888000D01*
X218213000Y-88650000D01*
X212883557Y-88650000D01*
X212895471Y-88590107D01*
X212913499Y-88499468D01*
X212913500Y-88499467D01*
X212913500Y-88499465D01*
X212913500Y-88292535D01*
X212873130Y-88089580D01*
X212793941Y-87898402D01*
X212678977Y-87726345D01*
X212532655Y-87580023D01*
X212532651Y-87580020D01*
X212360597Y-87465058D01*
X212169418Y-87385869D01*
X211966467Y-87345500D01*
X211966465Y-87345500D01*
X211759535Y-87345500D01*
X211759532Y-87345500D01*
X211556581Y-87385869D01*
X211365402Y-87465058D01*
X211193348Y-87580020D01*
X211047020Y-87726348D01*
X210932058Y-87898402D01*
X210852869Y-88089581D01*
X210812500Y-88292532D01*
X192520500Y-88292532D01*
X192520500Y-87790357D01*
X192511257Y-87732004D01*
X192505530Y-87695843D01*
X192447485Y-87581923D01*
X192357077Y-87491515D01*
X192357074Y-87491513D01*
X192243160Y-87433471D01*
X192243158Y-87433470D01*
X192148643Y-87418500D01*
X192148640Y-87418500D01*
X191191360Y-87418500D01*
X191191357Y-87418500D01*
X191096841Y-87433470D01*
X191096839Y-87433471D01*
X190982925Y-87491513D01*
X190892513Y-87581925D01*
X190834471Y-87695839D01*
X190834470Y-87695841D01*
X190819500Y-87790357D01*
X165029357Y-87790357D01*
X165000000Y-87761000D01*
X164999999Y-87761000D01*
X164279008Y-87761000D01*
X164220817Y-87742093D01*
X164209004Y-87732004D01*
X160142474Y-83665474D01*
X160076357Y-83599357D01*
X171642500Y-83599357D01*
X171642500Y-84556642D01*
X171657470Y-84651158D01*
X171657471Y-84651160D01*
X171666951Y-84669765D01*
X171715515Y-84765077D01*
X171805923Y-84855485D01*
X171919843Y-84913530D01*
X171975587Y-84922359D01*
X172014357Y-84928500D01*
X172014360Y-84928500D01*
X172971643Y-84928500D01*
X173005748Y-84923097D01*
X173066157Y-84913530D01*
X173180077Y-84855485D01*
X173270485Y-84765077D01*
X173328530Y-84651157D01*
X173343500Y-84556640D01*
X173343500Y-83599360D01*
X173343426Y-83598894D01*
X173331168Y-83521500D01*
X173328530Y-83504843D01*
X173270485Y-83390923D01*
X173180077Y-83300515D01*
X173180074Y-83300513D01*
X173066160Y-83242471D01*
X173066158Y-83242470D01*
X172971643Y-83227500D01*
X172971640Y-83227500D01*
X172014360Y-83227500D01*
X172014357Y-83227500D01*
X171919841Y-83242470D01*
X171919839Y-83242471D01*
X171805925Y-83300513D01*
X171715513Y-83390925D01*
X171657471Y-83504839D01*
X171657470Y-83504841D01*
X171642500Y-83599357D01*
X160076357Y-83599357D01*
X159081799Y-82604799D01*
X157659400Y-81182400D01*
X174601200Y-81182400D01*
X174601200Y-82604800D01*
X175588205Y-83591805D01*
X175615981Y-83646320D01*
X175617200Y-83661807D01*
X175617200Y-84890800D01*
X176938000Y-86211600D01*
X176938001Y-86211600D01*
X180138399Y-86211600D01*
X180138400Y-86211600D01*
X180617404Y-85732596D01*
X180671921Y-85704819D01*
X180687408Y-85703600D01*
X194819599Y-85703600D01*
X194819600Y-85703600D01*
X196064200Y-84459000D01*
X197639000Y-84459000D01*
X197639000Y-85602000D01*
X198020000Y-85983000D01*
X198020001Y-85983000D01*
X203099999Y-85983000D01*
X203100000Y-85983000D01*
X203466000Y-85617000D01*
X203466000Y-84502230D01*
X219347500Y-84502230D01*
X219347500Y-84669769D01*
X219380183Y-84834079D01*
X219380185Y-84834085D01*
X219444296Y-84988862D01*
X219444297Y-84988863D01*
X219537374Y-85128162D01*
X219655838Y-85246626D01*
X219795137Y-85339703D01*
X219949918Y-85403816D01*
X220114233Y-85436500D01*
X220114234Y-85436500D01*
X220281766Y-85436500D01*
X220281767Y-85436500D01*
X220446082Y-85403816D01*
X220600863Y-85339703D01*
X220740162Y-85246626D01*
X220858626Y-85128162D01*
X220951703Y-84988863D01*
X221015816Y-84834082D01*
X221048500Y-84669767D01*
X221048500Y-84502233D01*
X221015816Y-84337918D01*
X220951703Y-84183137D01*
X220858626Y-84043838D01*
X220740162Y-83925374D01*
X220600863Y-83832297D01*
X220600864Y-83832297D01*
X220600862Y-83832296D01*
X220446085Y-83768185D01*
X220446079Y-83768183D01*
X220281769Y-83735500D01*
X220281767Y-83735500D01*
X220114233Y-83735500D01*
X220114230Y-83735500D01*
X219949920Y-83768183D01*
X219949914Y-83768185D01*
X219795137Y-83832296D01*
X219655838Y-83925374D01*
X219655834Y-83925377D01*
X219537377Y-84043834D01*
X219537374Y-84043838D01*
X219444296Y-84183137D01*
X219380185Y-84337914D01*
X219380183Y-84337920D01*
X219347500Y-84502230D01*
X203466000Y-84502230D01*
X203466000Y-84444000D01*
X203100000Y-84078000D01*
X198020000Y-84078000D01*
X197639000Y-84459000D01*
X196064200Y-84459000D01*
X197359600Y-83163600D01*
X197359600Y-82706400D01*
X196953200Y-82300000D01*
X196953199Y-82300000D01*
X193285808Y-82300000D01*
X193227617Y-82281093D01*
X193215804Y-82271004D01*
X192396808Y-81452008D01*
X191568400Y-80623600D01*
X185472400Y-80623600D01*
X184586996Y-81509004D01*
X183723396Y-82372604D01*
X183668879Y-82400381D01*
X183653392Y-82401600D01*
X180636608Y-82401600D01*
X180578417Y-82382693D01*
X180566604Y-82372604D01*
X179703004Y-81509004D01*
X178817600Y-80623600D01*
X175160000Y-80623600D01*
X174601200Y-81182400D01*
X157659400Y-81182400D01*
X156598725Y-80121725D01*
X210812500Y-80121725D01*
X210812500Y-81430274D01*
X210815353Y-81460694D01*
X210815355Y-81460703D01*
X210860207Y-81588883D01*
X210940845Y-81698144D01*
X210940847Y-81698146D01*
X210940850Y-81698150D01*
X210940853Y-81698152D01*
X210940855Y-81698154D01*
X211050116Y-81778792D01*
X211050117Y-81778792D01*
X211050118Y-81778793D01*
X211178301Y-81823646D01*
X211208725Y-81826499D01*
X211208727Y-81826500D01*
X211208734Y-81826500D01*
X212517273Y-81826500D01*
X212517273Y-81826499D01*
X212547699Y-81823646D01*
X212675882Y-81778793D01*
X212785150Y-81698150D01*
X212865793Y-81588882D01*
X212910646Y-81460699D01*
X212913499Y-81430273D01*
X212913500Y-81430273D01*
X212913500Y-80121727D01*
X212913499Y-80121725D01*
X212910646Y-80091301D01*
X212865793Y-79963118D01*
X212828528Y-79912626D01*
X212785154Y-79853855D01*
X212785152Y-79853853D01*
X212785150Y-79853850D01*
X212785146Y-79853847D01*
X212785144Y-79853845D01*
X212675883Y-79773207D01*
X212547703Y-79728355D01*
X212547694Y-79728353D01*
X212517274Y-79725500D01*
X212517266Y-79725500D01*
X211208734Y-79725500D01*
X211208725Y-79725500D01*
X211178305Y-79728353D01*
X211178296Y-79728355D01*
X211050116Y-79773207D01*
X210940855Y-79853845D01*
X210940845Y-79853855D01*
X210860207Y-79963116D01*
X210815355Y-80091296D01*
X210815353Y-80091305D01*
X210812500Y-80121725D01*
X156598725Y-80121725D01*
X155983000Y-79506000D01*
X155982999Y-79506000D01*
X152341008Y-79506000D01*
X152282817Y-79487093D01*
X152271004Y-79477004D01*
X152046000Y-79252000D01*
X150903000Y-78109000D01*
X150902999Y-78109000D01*
X149125001Y-78109000D01*
X149125000Y-78109000D01*
X148645996Y-78588004D01*
X148591479Y-78615781D01*
X148575992Y-78617000D01*
X137568000Y-78617000D01*
X136933000Y-79252000D01*
X136933000Y-80395000D01*
X137441000Y-80903000D01*
X142098992Y-80903000D01*
X142157183Y-80921907D01*
X142168996Y-80931996D01*
X142746004Y-81509004D01*
X142773781Y-81563521D01*
X142775000Y-81579008D01*
X142775000Y-84417992D01*
X142756093Y-84476183D01*
X142746004Y-84487996D01*
X139120996Y-88113004D01*
X139066479Y-88140781D01*
X139050992Y-88142000D01*
X135196008Y-88142000D01*
X135137817Y-88123093D01*
X135126004Y-88113004D01*
X130357996Y-83344996D01*
X130330219Y-83290479D01*
X130329000Y-83274992D01*
X130329000Y-76372008D01*
X130347907Y-76313817D01*
X130357996Y-76302004D01*
X130808004Y-75851996D01*
X130862521Y-75824219D01*
X130878008Y-75823000D01*
X132995999Y-75823000D01*
X132996000Y-75823000D01*
X133631000Y-75188000D01*
X133631000Y-73156000D01*
X132818200Y-72343200D01*
X135688400Y-72343200D01*
X135688400Y-74172000D01*
X136094800Y-74578400D01*
X137730192Y-74578400D01*
X137788383Y-74597307D01*
X137800196Y-74607396D01*
X138939600Y-75746800D01*
X145604192Y-75746800D01*
X145662383Y-75765707D01*
X145674196Y-75775796D01*
X146966000Y-77067600D01*
X146966001Y-77067600D01*
X167184399Y-77067600D01*
X167184400Y-77067600D01*
X167743200Y-76508800D01*
X167743200Y-74822607D01*
X167762107Y-74764416D01*
X167772190Y-74752609D01*
X168505200Y-74019600D01*
X168505200Y-73283000D01*
X171096000Y-73283000D01*
X171096000Y-75569000D01*
X171350000Y-75823000D01*
X171350001Y-75823000D01*
X172365999Y-75823000D01*
X172366000Y-75823000D01*
X172972004Y-75216996D01*
X173026521Y-75189219D01*
X173042008Y-75188000D01*
X178969999Y-75188000D01*
X178970000Y-75188000D01*
X180719004Y-73438996D01*
X180773521Y-73411219D01*
X180789008Y-73410000D01*
X183754992Y-73410000D01*
X183813183Y-73428907D01*
X183824996Y-73438996D01*
X185574000Y-75188000D01*
X185574001Y-75188000D01*
X189129999Y-75188000D01*
X189130000Y-75188000D01*
X190298400Y-74019600D01*
X197562800Y-74019600D01*
X197562800Y-75950000D01*
X197816800Y-76204000D01*
X197816801Y-76204000D01*
X199391599Y-76204000D01*
X199391600Y-76204000D01*
X199594800Y-76000800D01*
X199594800Y-74580155D01*
X201775500Y-74580155D01*
X201775500Y-75287844D01*
X201806263Y-75442496D01*
X201806263Y-75442498D01*
X201866603Y-75588174D01*
X201866609Y-75588185D01*
X201919312Y-75667059D01*
X201954211Y-75719289D01*
X202065711Y-75830789D01*
X202143876Y-75883017D01*
X202196814Y-75918390D01*
X202196825Y-75918396D01*
X202250638Y-75940685D01*
X202342503Y-75978737D01*
X202497158Y-76009500D01*
X202497159Y-76009500D01*
X202654841Y-76009500D01*
X202654842Y-76009500D01*
X202809497Y-75978737D01*
X202955179Y-75918394D01*
X203086289Y-75830789D01*
X203197789Y-75719289D01*
X203282485Y-75592532D01*
X210812500Y-75592532D01*
X210812500Y-75799467D01*
X210852869Y-76002418D01*
X210932058Y-76193597D01*
X210965244Y-76243263D01*
X211047023Y-76365655D01*
X211193345Y-76511977D01*
X211365402Y-76626941D01*
X211556580Y-76706130D01*
X211759535Y-76746500D01*
X211759536Y-76746500D01*
X211966464Y-76746500D01*
X211966465Y-76746500D01*
X212169420Y-76706130D01*
X212360598Y-76626941D01*
X212532655Y-76511977D01*
X212678977Y-76365655D01*
X212793941Y-76193598D01*
X212873130Y-76002420D01*
X212913500Y-75799465D01*
X212913500Y-75592535D01*
X212873130Y-75389580D01*
X212793941Y-75198402D01*
X212678977Y-75026345D01*
X212532655Y-74880023D01*
X212532651Y-74880020D01*
X212360597Y-74765058D01*
X212169418Y-74685869D01*
X211966467Y-74645500D01*
X211966465Y-74645500D01*
X211759535Y-74645500D01*
X211759532Y-74645500D01*
X211556581Y-74685869D01*
X211365402Y-74765058D01*
X211193348Y-74880020D01*
X211047020Y-75026348D01*
X210932058Y-75198402D01*
X210852869Y-75389581D01*
X210812500Y-75592532D01*
X203282485Y-75592532D01*
X203285394Y-75588179D01*
X203345737Y-75442497D01*
X203376500Y-75287842D01*
X203376500Y-74580158D01*
X203345737Y-74425503D01*
X203310324Y-74340007D01*
X203285396Y-74279825D01*
X203285390Y-74279814D01*
X203213350Y-74172000D01*
X203197789Y-74148711D01*
X203086289Y-74037211D01*
X203016682Y-73990701D01*
X202955185Y-73949609D01*
X202955174Y-73949603D01*
X202809497Y-73889263D01*
X202654844Y-73858500D01*
X202654842Y-73858500D01*
X202497158Y-73858500D01*
X202497155Y-73858500D01*
X202342503Y-73889263D01*
X202342501Y-73889263D01*
X202196825Y-73949603D01*
X202196814Y-73949609D01*
X202065711Y-74037211D01*
X202065707Y-74037214D01*
X201954214Y-74148707D01*
X201954211Y-74148711D01*
X201866609Y-74279814D01*
X201866603Y-74279825D01*
X201806263Y-74425501D01*
X201806263Y-74425503D01*
X201775500Y-74580155D01*
X199594800Y-74580155D01*
X199594800Y-74060151D01*
X199613707Y-74001960D01*
X199623247Y-73990701D01*
X199742555Y-73869500D01*
X200820218Y-72774731D01*
X201165912Y-72423550D01*
X201220209Y-72395344D01*
X201236465Y-72394000D01*
X206148000Y-72394000D01*
X207570400Y-70920800D01*
X207570400Y-69092001D01*
X207570400Y-69092000D01*
X207164000Y-68685600D01*
X205386000Y-68685600D01*
X204979600Y-69092000D01*
X204979600Y-69092001D01*
X204979600Y-70625792D01*
X204960693Y-70683983D01*
X204950604Y-70695796D01*
X204551396Y-71095004D01*
X204496879Y-71122781D01*
X204481392Y-71124000D01*
X200458400Y-71124000D01*
X197562800Y-74019600D01*
X190298400Y-74019600D01*
X191768004Y-72549996D01*
X191822521Y-72522219D01*
X191838008Y-72521000D01*
X196876999Y-72521000D01*
X196877000Y-72521000D01*
X197385000Y-72013000D01*
X197385000Y-71505000D01*
X197004000Y-71124000D01*
X197003999Y-71124000D01*
X185361008Y-71124000D01*
X185302817Y-71105093D01*
X185291004Y-71095004D01*
X184472008Y-70276008D01*
X183571357Y-69375357D01*
X185104500Y-69375357D01*
X185104500Y-70332642D01*
X185119470Y-70427158D01*
X185119471Y-70427160D01*
X185176303Y-70538699D01*
X185177515Y-70541077D01*
X185267923Y-70631485D01*
X185381843Y-70689530D01*
X185437587Y-70698359D01*
X185476357Y-70704500D01*
X185476360Y-70704500D01*
X186433643Y-70704500D01*
X186467748Y-70699097D01*
X186528157Y-70689530D01*
X186642077Y-70631485D01*
X186732485Y-70541077D01*
X186790530Y-70427157D01*
X186805500Y-70332640D01*
X186805500Y-69375360D01*
X186790530Y-69280843D01*
X186749198Y-69199725D01*
X197604500Y-69199725D01*
X197604500Y-70508274D01*
X197607353Y-70538694D01*
X197607355Y-70538703D01*
X197652207Y-70666883D01*
X197732845Y-70776144D01*
X197732847Y-70776146D01*
X197732850Y-70776150D01*
X197732853Y-70776152D01*
X197732855Y-70776154D01*
X197842116Y-70856792D01*
X197842117Y-70856792D01*
X197842118Y-70856793D01*
X197970301Y-70901646D01*
X198000725Y-70904499D01*
X198000727Y-70904500D01*
X198000734Y-70904500D01*
X199309273Y-70904500D01*
X199309273Y-70904499D01*
X199339699Y-70901646D01*
X199467882Y-70856793D01*
X199577150Y-70776150D01*
X199657793Y-70666882D01*
X199702646Y-70538699D01*
X199705499Y-70508273D01*
X199705500Y-70508273D01*
X199705500Y-69199727D01*
X199705499Y-69199725D01*
X199702646Y-69169305D01*
X199702646Y-69169301D01*
X199657793Y-69041118D01*
X199656293Y-69039086D01*
X199577154Y-68931855D01*
X199577152Y-68931853D01*
X199577150Y-68931850D01*
X199577146Y-68931847D01*
X199577144Y-68931845D01*
X199467883Y-68851207D01*
X199339703Y-68806355D01*
X199339694Y-68806353D01*
X199309274Y-68803500D01*
X199309266Y-68803500D01*
X198000734Y-68803500D01*
X198000725Y-68803500D01*
X197970305Y-68806353D01*
X197970296Y-68806355D01*
X197842116Y-68851207D01*
X197732855Y-68931845D01*
X197732845Y-68931855D01*
X197652207Y-69041116D01*
X197607355Y-69169296D01*
X197607353Y-69169305D01*
X197604500Y-69199725D01*
X186749198Y-69199725D01*
X186732485Y-69166923D01*
X186642077Y-69076515D01*
X186642074Y-69076513D01*
X186528160Y-69018471D01*
X186528158Y-69018470D01*
X186433643Y-69003500D01*
X186433640Y-69003500D01*
X185476360Y-69003500D01*
X185476357Y-69003500D01*
X185381841Y-69018470D01*
X185381839Y-69018471D01*
X185267925Y-69076513D01*
X185177513Y-69166925D01*
X185119471Y-69280839D01*
X185119470Y-69280841D01*
X185104500Y-69375357D01*
X183571357Y-69375357D01*
X182907000Y-68711000D01*
X178970000Y-68711000D01*
X178589000Y-69092000D01*
X178589000Y-69092001D01*
X178589000Y-71590992D01*
X178570093Y-71649183D01*
X178560004Y-71660996D01*
X178109996Y-72111004D01*
X178055479Y-72138781D01*
X178039992Y-72140000D01*
X172239000Y-72140000D01*
X171096000Y-73283000D01*
X168505200Y-73283000D01*
X168505200Y-69854000D01*
X168098800Y-69498400D01*
X151385600Y-69498400D01*
X150080670Y-70776144D01*
X148976064Y-71857737D01*
X148921258Y-71884939D01*
X148906801Y-71886000D01*
X143835508Y-71886000D01*
X143777317Y-71867093D01*
X143765505Y-71857004D01*
X143374040Y-71465540D01*
X143361538Y-71458322D01*
X143305516Y-71425978D01*
X143229093Y-71405500D01*
X143229091Y-71405500D01*
X139327803Y-71405500D01*
X139327800Y-71405500D01*
X139251377Y-71425978D01*
X139195356Y-71458322D01*
X139182853Y-71465540D01*
X138791389Y-71857004D01*
X138736873Y-71884781D01*
X138721386Y-71886000D01*
X136145600Y-71886000D01*
X135688400Y-72343200D01*
X132818200Y-72343200D01*
X132742000Y-72267000D01*
X132741999Y-72267000D01*
X127703008Y-72267000D01*
X127644817Y-72248093D01*
X127633004Y-72238004D01*
X127055996Y-71660996D01*
X127028219Y-71606479D01*
X127027000Y-71590992D01*
X127027000Y-67421725D01*
X210812500Y-67421725D01*
X210812500Y-68730274D01*
X210815353Y-68760694D01*
X210815355Y-68760703D01*
X210860207Y-68888883D01*
X210940845Y-68998144D01*
X210940847Y-68998146D01*
X210940850Y-68998150D01*
X210940853Y-68998152D01*
X210940855Y-68998154D01*
X211050116Y-69078792D01*
X211050117Y-69078792D01*
X211050118Y-69078793D01*
X211178301Y-69123646D01*
X211208725Y-69126499D01*
X211208727Y-69126500D01*
X211208734Y-69126500D01*
X212517273Y-69126500D01*
X212517273Y-69126499D01*
X212547699Y-69123646D01*
X212675882Y-69078793D01*
X212785150Y-68998150D01*
X212865793Y-68888882D01*
X212910646Y-68760699D01*
X212913499Y-68730273D01*
X212913500Y-68730273D01*
X212913500Y-67421727D01*
X212913499Y-67421725D01*
X212910646Y-67391305D01*
X212910646Y-67391301D01*
X212865793Y-67263118D01*
X212864290Y-67261082D01*
X212785154Y-67153855D01*
X212785152Y-67153853D01*
X212785150Y-67153850D01*
X212785146Y-67153847D01*
X212785144Y-67153845D01*
X212675883Y-67073207D01*
X212547703Y-67028355D01*
X212547694Y-67028353D01*
X212517274Y-67025500D01*
X212517266Y-67025500D01*
X211208734Y-67025500D01*
X211208725Y-67025500D01*
X211178305Y-67028353D01*
X211178296Y-67028355D01*
X211050116Y-67073207D01*
X210940855Y-67153845D01*
X210940845Y-67153855D01*
X210860207Y-67263116D01*
X210815355Y-67391296D01*
X210815353Y-67391305D01*
X210812500Y-67421725D01*
X127027000Y-67421725D01*
X127027000Y-64561008D01*
X127045907Y-64502817D01*
X127055996Y-64491004D01*
X127633004Y-63913996D01*
X127687521Y-63886219D01*
X127703008Y-63885000D01*
X217536992Y-63885000D01*
X217595183Y-63903907D01*
G37*
%TD.AperFunction*%
%TD*%
%TA.AperFunction,Conductor*%
%TO.N,+5VA*%
G36*
X156838383Y-83334907D02*
G01*
X156850196Y-83344996D01*
X162685004Y-89179804D01*
X162712781Y-89234321D01*
X162714000Y-89249808D01*
X162714000Y-97794000D01*
X163526800Y-98606800D01*
X166736992Y-98606800D01*
X166795183Y-98625707D01*
X166806995Y-98635796D01*
X167031999Y-98860799D01*
X167032000Y-98860800D01*
X174407792Y-98860800D01*
X174465983Y-98879707D01*
X174477796Y-98889796D01*
X175537404Y-99949404D01*
X175565181Y-100003921D01*
X175566400Y-100019408D01*
X175566400Y-100648592D01*
X175547493Y-100706783D01*
X175537404Y-100718596D01*
X175087396Y-101168604D01*
X175032879Y-101196381D01*
X175017392Y-101197600D01*
X174591408Y-101197600D01*
X174533217Y-101178693D01*
X174521404Y-101168604D01*
X173788400Y-100435600D01*
X173788399Y-100435600D01*
X163577601Y-100435600D01*
X163577600Y-100435600D01*
X162714000Y-101299200D01*
X162714000Y-102315200D01*
X163802605Y-103403805D01*
X163830381Y-103458320D01*
X163831600Y-103473807D01*
X163831600Y-107039600D01*
X163984000Y-107192000D01*
X167397392Y-107192000D01*
X167455583Y-107210907D01*
X167467396Y-107220996D01*
X169978400Y-109732000D01*
X172578992Y-109732000D01*
X172637183Y-109750907D01*
X172648996Y-109760996D01*
X175160000Y-112272000D01*
X189952592Y-112272000D01*
X190010783Y-112290907D01*
X190022596Y-112300996D01*
X191111200Y-113389600D01*
X200874592Y-113389600D01*
X200932783Y-113408507D01*
X200944596Y-113418596D01*
X201370833Y-113844833D01*
X201392293Y-113876950D01*
X201407059Y-113912598D01*
X201474520Y-114013562D01*
X201522023Y-114084655D01*
X201668345Y-114230977D01*
X201840402Y-114345941D01*
X201876048Y-114360706D01*
X201908165Y-114382165D01*
X203121804Y-115595804D01*
X203149581Y-115650321D01*
X203150800Y-115665808D01*
X203150800Y-116193392D01*
X203131893Y-116251583D01*
X203121804Y-116263396D01*
X202722596Y-116662604D01*
X202668079Y-116690381D01*
X202652592Y-116691600D01*
X197502208Y-116691600D01*
X197444017Y-116672693D01*
X197432204Y-116662604D01*
X196962992Y-116193392D01*
X195632400Y-114862800D01*
X195632399Y-114862800D01*
X190034608Y-114862800D01*
X189976417Y-114843893D01*
X189964604Y-114833804D01*
X189180800Y-114050000D01*
X189180799Y-114050000D01*
X174947008Y-114050000D01*
X174888817Y-114031093D01*
X174877004Y-114021004D01*
X174245600Y-113389600D01*
X172264400Y-111408400D01*
X172264399Y-111408400D01*
X168851008Y-111408400D01*
X168792817Y-111389493D01*
X168781004Y-111379404D01*
X166168400Y-108766800D01*
X166168399Y-108766800D01*
X161485008Y-108766800D01*
X161426817Y-108747893D01*
X161415004Y-108737804D01*
X160812596Y-108135396D01*
X160784819Y-108080879D01*
X160783600Y-108065392D01*
X160783600Y-89564401D01*
X160783600Y-89564400D01*
X156618000Y-85398800D01*
X156617999Y-85398800D01*
X154119008Y-85398800D01*
X154060817Y-85379893D01*
X154049004Y-85369804D01*
X153649796Y-84970596D01*
X153622019Y-84916079D01*
X153620800Y-84900592D01*
X153620800Y-83814208D01*
X153639707Y-83756017D01*
X153649796Y-83744204D01*
X154049004Y-83344996D01*
X154103521Y-83317219D01*
X154119008Y-83316000D01*
X156780192Y-83316000D01*
X156838383Y-83334907D01*
G37*
%TD.AperFunction*%
%TD*%
%TA.AperFunction,Conductor*%
%TO.N,+5V*%
G36*
X127044183Y-128546907D02*
G01*
X127055996Y-128556996D01*
X130935004Y-132436004D01*
X130962781Y-132490521D01*
X130964000Y-132506008D01*
X130964000Y-134271000D01*
X130945093Y-134329191D01*
X130895593Y-134365155D01*
X130865000Y-134370000D01*
X129481008Y-134370000D01*
X129422817Y-134351093D01*
X129411004Y-134341004D01*
X128014004Y-132944004D01*
X125884000Y-130814000D01*
X125883999Y-130814000D01*
X120845008Y-130814000D01*
X120786817Y-130795093D01*
X120775004Y-130785004D01*
X119915000Y-129925000D01*
X119914999Y-129925000D01*
X117756001Y-129925000D01*
X117756000Y-129925000D01*
X116867000Y-130814000D01*
X116006996Y-131674004D01*
X115952479Y-131701781D01*
X115936992Y-131703000D01*
X112549000Y-131703000D01*
X111815996Y-132436004D01*
X111307996Y-132944004D01*
X111253479Y-132971781D01*
X111237992Y-132973000D01*
X101668008Y-132973000D01*
X101609817Y-132954093D01*
X101598004Y-132944004D01*
X101090004Y-132436004D01*
X100103000Y-131449000D01*
X100102999Y-131449000D01*
X96550001Y-131449000D01*
X96550000Y-131449000D01*
X95054996Y-132944004D01*
X94292996Y-133706004D01*
X94238479Y-133733781D01*
X94222992Y-133735000D01*
X79910000Y-133735000D01*
X78485000Y-133735000D01*
X78426809Y-133716093D01*
X78390845Y-133666593D01*
X78386000Y-133636000D01*
X78386000Y-132125008D01*
X78404907Y-132066817D01*
X78414996Y-132055004D01*
X81786004Y-128683996D01*
X81840521Y-128656219D01*
X81856008Y-128655000D01*
X85710992Y-128655000D01*
X85769183Y-128673907D01*
X85780996Y-128683996D01*
X87403000Y-130306000D01*
X102220992Y-130306000D01*
X102279183Y-130324907D01*
X102290996Y-130334996D01*
X103278000Y-131322000D01*
X110008999Y-131322000D01*
X110009000Y-131322000D01*
X112774004Y-128556996D01*
X112828521Y-128529219D01*
X112844008Y-128528000D01*
X126985992Y-128528000D01*
X127044183Y-128546907D01*
G37*
%TD.AperFunction*%
%TD*%
%TA.AperFunction,Conductor*%
%TO.N,GND*%
G36*
X125774183Y-63903907D02*
G01*
X125785996Y-63913996D01*
X126363004Y-64491004D01*
X126390781Y-64545521D01*
X126392000Y-64561008D01*
X126392000Y-72013000D01*
X127281000Y-72902000D01*
X132573992Y-72902000D01*
X132632183Y-72920907D01*
X132643996Y-72930996D01*
X133094004Y-73381004D01*
X133121781Y-73435521D01*
X133123000Y-73451008D01*
X133123000Y-74765992D01*
X133104093Y-74824183D01*
X133094004Y-74835996D01*
X132770996Y-75159004D01*
X132716479Y-75186781D01*
X132700992Y-75188000D01*
X130456000Y-75188000D01*
X129694000Y-75950000D01*
X129694000Y-75950001D01*
X129694000Y-79337992D01*
X129675093Y-79396183D01*
X129665004Y-79407996D01*
X129087996Y-79985004D01*
X129033479Y-80012781D01*
X129017992Y-80014000D01*
X126265000Y-80014000D01*
X125023996Y-81255004D01*
X124969479Y-81282781D01*
X124953992Y-81284000D01*
X118686008Y-81284000D01*
X118627817Y-81265093D01*
X118616004Y-81255004D01*
X116994000Y-79633000D01*
X116993999Y-79633000D01*
X114241008Y-79633000D01*
X114182817Y-79614093D01*
X114171004Y-79604004D01*
X111660000Y-77093000D01*
X107469000Y-72902000D01*
X107468999Y-72902000D01*
X96801001Y-72902000D01*
X96801000Y-72902000D01*
X95404000Y-74299000D01*
X95178996Y-74524004D01*
X95124479Y-74551781D01*
X95108992Y-74553000D01*
X93499000Y-74553000D01*
X93118000Y-74934000D01*
X93118000Y-75823000D01*
X93499000Y-76204000D01*
X95743992Y-76204000D01*
X95802183Y-76222907D01*
X95813996Y-76232996D01*
X104011004Y-84430004D01*
X104038781Y-84484521D01*
X104040000Y-84500008D01*
X104040000Y-87211992D01*
X104021093Y-87270183D01*
X104011004Y-87281996D01*
X103687996Y-87605004D01*
X103633479Y-87632781D01*
X103617992Y-87634000D01*
X86682008Y-87634000D01*
X86623817Y-87615093D01*
X86612004Y-87605004D01*
X84002996Y-84995996D01*
X83975219Y-84941479D01*
X83974000Y-84925992D01*
X83974000Y-78785007D01*
X83992907Y-78726816D01*
X84002990Y-78715009D01*
X87149000Y-75569000D01*
X87149000Y-74299000D01*
X86514000Y-73664000D01*
X86513999Y-73664000D01*
X85244001Y-73664000D01*
X85244000Y-73664000D01*
X81688000Y-77220000D01*
X81688000Y-77220001D01*
X81688000Y-78575992D01*
X81669093Y-78634183D01*
X81659004Y-78645996D01*
X81208996Y-79096004D01*
X81154479Y-79123781D01*
X81138992Y-79125000D01*
X77411008Y-79125000D01*
X77352817Y-79106093D01*
X77341004Y-79096004D01*
X76820992Y-78575992D01*
X75338000Y-77093000D01*
X75337999Y-77093000D01*
X73941001Y-77093000D01*
X73941000Y-77093000D01*
X73560000Y-77474000D01*
X73560000Y-99318000D01*
X74801005Y-100559005D01*
X74828781Y-100613520D01*
X74830000Y-100629007D01*
X74830000Y-102070992D01*
X74811093Y-102129183D01*
X74801004Y-102140996D01*
X73560000Y-103382000D01*
X73560000Y-127893000D01*
X75465000Y-129798000D01*
X77115999Y-129798000D01*
X77116000Y-129798000D01*
X80135004Y-126778996D01*
X80189521Y-126751219D01*
X80205008Y-126750000D01*
X82703999Y-126750000D01*
X82704000Y-126750000D01*
X83183004Y-126270996D01*
X83237521Y-126243219D01*
X83253008Y-126242000D01*
X127493992Y-126242000D01*
X127552183Y-126260907D01*
X127563996Y-126270996D01*
X128170000Y-126877000D01*
X129525992Y-126877000D01*
X129584183Y-126895907D01*
X129595996Y-126905996D01*
X131062004Y-128372004D01*
X131089781Y-128426521D01*
X131091000Y-128442008D01*
X131091000Y-129883992D01*
X131072093Y-129942183D01*
X131062004Y-129953996D01*
X130865996Y-130150004D01*
X130811479Y-130177781D01*
X130795992Y-130179000D01*
X130116008Y-130179000D01*
X130057817Y-130160093D01*
X130046004Y-130150004D01*
X129099614Y-129203614D01*
X128043000Y-128147000D01*
X128042999Y-128147000D01*
X112168001Y-128147000D01*
X112168000Y-128147000D01*
X110754771Y-129560229D01*
X109656996Y-130658004D01*
X109602479Y-130685781D01*
X109586992Y-130687000D01*
X103700008Y-130687000D01*
X103641817Y-130668093D01*
X103630004Y-130658004D01*
X102770000Y-129798000D01*
X102769999Y-129798000D01*
X88587008Y-129798000D01*
X88528817Y-129779093D01*
X88517004Y-129769004D01*
X87829524Y-129081524D01*
X87764381Y-129016381D01*
X107915500Y-129016381D01*
X107915500Y-129203618D01*
X107952026Y-129387249D01*
X108023677Y-129560229D01*
X108023681Y-129560238D01*
X108084662Y-129651500D01*
X108127698Y-129715908D01*
X108260092Y-129848302D01*
X108313506Y-129883992D01*
X108415761Y-129952318D01*
X108415767Y-129952320D01*
X108415769Y-129952322D01*
X108588749Y-130023973D01*
X108772384Y-130060500D01*
X108772385Y-130060500D01*
X108959615Y-130060500D01*
X108959616Y-130060500D01*
X109143251Y-130023973D01*
X109316231Y-129952322D01*
X109316234Y-129952319D01*
X109316238Y-129952318D01*
X109361187Y-129922282D01*
X109471908Y-129848302D01*
X109604302Y-129715908D01*
X109706138Y-129563500D01*
X109708318Y-129560238D01*
X109708319Y-129560234D01*
X109708322Y-129560231D01*
X109779973Y-129387251D01*
X109816500Y-129203616D01*
X109816500Y-129016384D01*
X109779973Y-128832749D01*
X109708322Y-128659769D01*
X109708320Y-128659767D01*
X109708318Y-128659761D01*
X109625288Y-128535500D01*
X109604302Y-128504092D01*
X109471908Y-128371698D01*
X109416707Y-128334814D01*
X109316238Y-128267681D01*
X109316229Y-128267677D01*
X109143249Y-128196026D01*
X108959618Y-128159500D01*
X108959616Y-128159500D01*
X108772384Y-128159500D01*
X108772381Y-128159500D01*
X108588750Y-128196026D01*
X108415770Y-128267677D01*
X108415761Y-128267681D01*
X108260092Y-128371698D01*
X108260088Y-128371701D01*
X108127701Y-128504088D01*
X108127698Y-128504092D01*
X108023681Y-128659761D01*
X108023677Y-128659770D01*
X107952026Y-128832750D01*
X107915500Y-129016381D01*
X87764381Y-129016381D01*
X87407761Y-128659761D01*
X86895000Y-128147000D01*
X86894999Y-128147000D01*
X81434001Y-128147000D01*
X81434000Y-128147000D01*
X76268008Y-133312992D01*
X76255996Y-133325004D01*
X76201479Y-133352781D01*
X76185992Y-133354000D01*
X72924999Y-133354000D01*
X72572995Y-133706004D01*
X72518479Y-133733781D01*
X72502992Y-133735000D01*
X71061008Y-133735000D01*
X71002817Y-133716093D01*
X70991004Y-133706004D01*
X70667996Y-133382996D01*
X70640219Y-133328479D01*
X70639000Y-133312992D01*
X70639000Y-72226381D01*
X108423500Y-72226381D01*
X108423500Y-72413618D01*
X108460026Y-72597249D01*
X108531677Y-72770229D01*
X108531681Y-72770238D01*
X108606065Y-72881559D01*
X108635698Y-72925908D01*
X108768092Y-73058302D01*
X108834463Y-73102649D01*
X108923761Y-73162318D01*
X108923767Y-73162320D01*
X108923769Y-73162322D01*
X109096749Y-73233973D01*
X109280384Y-73270500D01*
X109280385Y-73270500D01*
X109467615Y-73270500D01*
X109467616Y-73270500D01*
X109651251Y-73233973D01*
X109824231Y-73162322D01*
X109824234Y-73162319D01*
X109824238Y-73162318D01*
X109872637Y-73129978D01*
X109979908Y-73058302D01*
X110112302Y-72925908D01*
X110186282Y-72815187D01*
X110216318Y-72770238D01*
X110216319Y-72770234D01*
X110216322Y-72770231D01*
X110287973Y-72597251D01*
X110324500Y-72413616D01*
X110324500Y-72226384D01*
X110287973Y-72042749D01*
X110216322Y-71869769D01*
X110216320Y-71869767D01*
X110216318Y-71869761D01*
X110137297Y-71751500D01*
X110112302Y-71714092D01*
X109979908Y-71581698D01*
X109935559Y-71552065D01*
X109824238Y-71477681D01*
X109824229Y-71477677D01*
X109651249Y-71406026D01*
X109467618Y-71369500D01*
X109467616Y-71369500D01*
X109280384Y-71369500D01*
X109280381Y-71369500D01*
X109096750Y-71406026D01*
X108923770Y-71477677D01*
X108923761Y-71477681D01*
X108768092Y-71581698D01*
X108768088Y-71581701D01*
X108635701Y-71714088D01*
X108635698Y-71714092D01*
X108531681Y-71869761D01*
X108531677Y-71869770D01*
X108460026Y-72042750D01*
X108423500Y-72226381D01*
X70639000Y-72226381D01*
X70639000Y-65196008D01*
X70657907Y-65137817D01*
X70667996Y-65126004D01*
X71880004Y-63913996D01*
X71934521Y-63886219D01*
X71950008Y-63885000D01*
X125715992Y-63885000D01*
X125774183Y-63903907D01*
G37*
%TD.AperFunction*%
%TD*%
%TA.AperFunction,Conductor*%
%TO.N,GND*%
G36*
X104438183Y-111782907D02*
G01*
X104449996Y-111792996D01*
X107850000Y-115193000D01*
X114412992Y-115193000D01*
X114471183Y-115211907D01*
X114482996Y-115221996D01*
X114806004Y-115545004D01*
X114833781Y-115599521D01*
X114835000Y-115615008D01*
X114835000Y-116555272D01*
X114816093Y-116613463D01*
X114813306Y-116617117D01*
X114356724Y-117187845D01*
X114305608Y-117221473D01*
X114279418Y-117225000D01*
X107088000Y-117225000D01*
X106481996Y-117831004D01*
X106427479Y-117858781D01*
X106411992Y-117860000D01*
X93032008Y-117860000D01*
X92973817Y-117841093D01*
X92962004Y-117831004D01*
X92102000Y-116971000D01*
X92101999Y-116971000D01*
X86936008Y-116971000D01*
X86877817Y-116952093D01*
X86866004Y-116942004D01*
X86034996Y-116110996D01*
X86007219Y-116056479D01*
X86006000Y-116040992D01*
X86006000Y-112440008D01*
X86024907Y-112381817D01*
X86034996Y-112370004D01*
X86612004Y-111792996D01*
X86666521Y-111765219D01*
X86682008Y-111764000D01*
X104379992Y-111764000D01*
X104438183Y-111782907D01*
G37*
%TD.AperFunction*%
%TD*%
%TA.AperFunction,Conductor*%
%TO.N,+5V*%
G36*
X150539183Y-81302907D02*
G01*
X150550996Y-81312996D01*
X151001004Y-81763004D01*
X151028781Y-81817521D01*
X151030000Y-81833008D01*
X151030000Y-82766992D01*
X151011093Y-82825183D01*
X151001004Y-82836996D01*
X150550996Y-83287004D01*
X150496479Y-83314781D01*
X150480992Y-83316000D01*
X146966000Y-83316000D01*
X139219000Y-91063000D01*
X136453996Y-93828004D01*
X136399479Y-93855781D01*
X136383992Y-93857000D01*
X117670008Y-93857000D01*
X117611817Y-93838093D01*
X117600004Y-93828004D01*
X117022996Y-93250996D01*
X116995219Y-93196479D01*
X116994000Y-93180992D01*
X116994000Y-91739008D01*
X117012907Y-91680817D01*
X117022996Y-91669004D01*
X117600004Y-91091996D01*
X117654521Y-91064219D01*
X117670008Y-91063000D01*
X136932999Y-91063000D01*
X136933000Y-91063000D01*
X146683004Y-81312996D01*
X146737521Y-81285219D01*
X146753008Y-81284000D01*
X150480992Y-81284000D01*
X150539183Y-81302907D01*
G37*
%TD.AperFunction*%
%TD*%
%TA.AperFunction,Conductor*%
%TO.N,+5V*%
G36*
X138855183Y-118793307D02*
G01*
X138866996Y-118803396D01*
X140819200Y-120755600D01*
X147016800Y-120755600D01*
X147154702Y-120617697D01*
X147292605Y-120479796D01*
X147347121Y-120452019D01*
X147362608Y-120450800D01*
X162815599Y-120450800D01*
X162815600Y-120450800D01*
X163345404Y-119920996D01*
X163399921Y-119893219D01*
X163415408Y-119892000D01*
X167803792Y-119892000D01*
X167861983Y-119910907D01*
X167873796Y-119920996D01*
X171756400Y-123803600D01*
X173493392Y-123803600D01*
X173551583Y-123822507D01*
X173563396Y-123832596D01*
X175769600Y-126038800D01*
X200645875Y-125988083D01*
X200704102Y-126006872D01*
X200716079Y-126017079D01*
X201674004Y-126975004D01*
X201701781Y-127029521D01*
X201703000Y-127045008D01*
X201703000Y-131915992D01*
X201684093Y-131974183D01*
X201674004Y-131985996D01*
X201096996Y-132563004D01*
X201042479Y-132590781D01*
X201026992Y-132592000D01*
X200093008Y-132592000D01*
X200034817Y-132573093D01*
X200023004Y-132563004D01*
X199445996Y-131985996D01*
X199418219Y-131931479D01*
X199417000Y-131915992D01*
X199417000Y-131169599D01*
X196597600Y-128324800D01*
X174286608Y-128324800D01*
X174228417Y-128305893D01*
X174216604Y-128295804D01*
X172874000Y-126953200D01*
X172873999Y-126953200D01*
X171441808Y-126953200D01*
X171383617Y-126934293D01*
X171371804Y-126924204D01*
X170435600Y-125988000D01*
X166981200Y-122533600D01*
X166981199Y-122533600D01*
X149242208Y-122533600D01*
X149184017Y-122514693D01*
X149172205Y-122504604D01*
X148845600Y-122178000D01*
X148134400Y-122178000D01*
X148134399Y-122178000D01*
X148010995Y-122301404D01*
X147956479Y-122329181D01*
X147940992Y-122330400D01*
X140961808Y-122330400D01*
X140903617Y-122311493D01*
X140891804Y-122301404D01*
X140333004Y-121742604D01*
X139346000Y-120755600D01*
X139345999Y-120755600D01*
X132691201Y-120755600D01*
X132691200Y-120755600D01*
X131704196Y-121742604D01*
X131649679Y-121770381D01*
X131634192Y-121771600D01*
X112615408Y-121771600D01*
X112557217Y-121752693D01*
X112545404Y-121742604D01*
X110745600Y-119942800D01*
X110745599Y-119942800D01*
X108703808Y-119942800D01*
X108696210Y-119940331D01*
X108688321Y-119941581D01*
X108667665Y-119931056D01*
X108645617Y-119923893D01*
X108633804Y-119913804D01*
X108539396Y-119819396D01*
X108511619Y-119764879D01*
X108510400Y-119749392D01*
X108510400Y-119323408D01*
X108529307Y-119265217D01*
X108539396Y-119253404D01*
X108633804Y-119158996D01*
X108688321Y-119131219D01*
X108703808Y-119130000D01*
X125233392Y-119130000D01*
X125291583Y-119148907D01*
X125303396Y-119158996D01*
X126392000Y-120247600D01*
X128728799Y-120247600D01*
X128728800Y-120247600D01*
X130173004Y-118803396D01*
X130227521Y-118775619D01*
X130243008Y-118774400D01*
X138796992Y-118774400D01*
X138855183Y-118793307D01*
G37*
%TD.AperFunction*%
%TD*%
%TA.AperFunction,Conductor*%
%TO.N,+5V_WT*%
G36*
X116884183Y-82318907D02*
G01*
X116895996Y-82328996D01*
X117756000Y-83189000D01*
X124445992Y-83189000D01*
X124504183Y-83207907D01*
X124515996Y-83217996D01*
X124712004Y-83414004D01*
X124739781Y-83468521D01*
X124741000Y-83484008D01*
X124741000Y-84036992D01*
X124722093Y-84095183D01*
X124712004Y-84106996D01*
X124515996Y-84303004D01*
X124461479Y-84330781D01*
X124445992Y-84332000D01*
X121439000Y-84332000D01*
X120959996Y-84811004D01*
X120905479Y-84838781D01*
X120889992Y-84840000D01*
X114368008Y-84840000D01*
X114309817Y-84821093D01*
X114298004Y-84811004D01*
X113523992Y-84036992D01*
X112549000Y-83062000D01*
X112548999Y-83062000D01*
X108399008Y-83062000D01*
X108391410Y-83059531D01*
X108383521Y-83060781D01*
X108362865Y-83050256D01*
X108340817Y-83043093D01*
X108329004Y-83033004D01*
X108259996Y-82963996D01*
X108232219Y-82909479D01*
X108231000Y-82893992D01*
X108231000Y-82468008D01*
X108249907Y-82409817D01*
X108259996Y-82398004D01*
X108329004Y-82328996D01*
X108383521Y-82301219D01*
X108399008Y-82300000D01*
X116825992Y-82300000D01*
X116884183Y-82318907D01*
G37*
%TD.AperFunction*%
%TD*%
M02*
