%TF.GenerationSoftware,KiCad,Pcbnew,9.0.9*%
%TF.CreationDate,2026-08-02T15:11:29+08:00*%
%TF.ProjectId,Audician 32 Plus Replica,41756469-6369-4616-9e20-333220506c75,0.1*%
%TF.SameCoordinates,Original*%
%TF.FileFunction,Legend,Bot*%
%TF.FilePolarity,Positive*%
%FSLAX46Y46*%
G04 Gerber Fmt 4.6, Leading zero omitted, Abs format (unit mm)*
G04 Created by KiCad (PCBNEW 9.0.9) date 2026-08-02 15:11:29*
%MOMM*%
%LPD*%
G01*
G04 APERTURE LIST*
G04 Aperture macros list*
%AMRoundRect*
0 Rectangle with rounded corners*
0 $1 Rounding radius*
0 $2 $3 $4 $5 $6 $7 $8 $9 X,Y pos of 4 corners*
0 Add a 4 corners polygon primitive as box body*
4,1,4,$2,$3,$4,$5,$6,$7,$8,$9,$2,$3,0*
0 Add four circle primitives for the rounded corners*
1,1,$1+$1,$2,$3*
1,1,$1+$1,$4,$5*
1,1,$1+$1,$6,$7*
1,1,$1+$1,$8,$9*
0 Add four rect primitives between the rounded corners*
20,1,$1+$1,$2,$3,$4,$5,0*
20,1,$1+$1,$4,$5,$6,$7,0*
20,1,$1+$1,$6,$7,$8,$9,0*
20,1,$1+$1,$8,$9,$2,$3,0*%
%AMFreePoly0*
4,1,23,0.500000,-0.750000,0.000000,-0.750000,0.000000,-0.745722,-0.065263,-0.745722,-0.191342,-0.711940,-0.304381,-0.646677,-0.396677,-0.554381,-0.461940,-0.441342,-0.495722,-0.315263,-0.495722,-0.250000,-0.500000,-0.250000,-0.500000,0.250000,-0.495722,0.250000,-0.495722,0.315263,-0.461940,0.441342,-0.396677,0.554381,-0.304381,0.646677,-0.191342,0.711940,-0.065263,0.745722,0.000000,0.745722,
0.000000,0.750000,0.500000,0.750000,0.500000,-0.750000,0.500000,-0.750000,$1*%
%AMFreePoly1*
4,1,23,0.000000,0.745722,0.065263,0.745722,0.191342,0.711940,0.304381,0.646677,0.396677,0.554381,0.461940,0.441342,0.495722,0.315263,0.495722,0.250000,0.500000,0.250000,0.500000,-0.250000,0.495722,-0.250000,0.495722,-0.315263,0.461940,-0.441342,0.396677,-0.554381,0.304381,-0.646677,0.191342,-0.711940,0.065263,-0.745722,0.000000,-0.745722,0.000000,-0.750000,-0.500000,-0.750000,
-0.500000,0.750000,0.000000,0.750000,0.000000,0.745722,0.000000,0.745722,$1*%
G04 Aperture macros list end*
%ADD10C,0.120000*%
%ADD11RoundRect,0.203125X0.446875X-0.446875X0.446875X0.446875X-0.446875X0.446875X-0.446875X-0.446875X0*%
%ADD12C,1.300000*%
%ADD13O,3.840000X1.300000*%
%ADD14RoundRect,0.203125X-0.446875X-0.446875X0.446875X-0.446875X0.446875X0.446875X-0.446875X0.446875X0*%
%ADD15C,1.500000*%
%ADD16RoundRect,0.250000X-0.350000X0.350000X-0.350000X-0.350000X0.350000X-0.350000X0.350000X0.350000X0*%
%ADD17RoundRect,0.220589X-0.529411X-0.529411X0.529411X-0.529411X0.529411X0.529411X-0.529411X0.529411X0*%
%ADD18C,1.200000*%
%ADD19O,2.200000X1.200000*%
%ADD20O,2.300000X1.600000*%
%ADD21O,1.200000X2.200000*%
%ADD22O,2.500000X1.600000*%
%ADD23RoundRect,0.216667X0.433333X0.433333X-0.433333X0.433333X-0.433333X-0.433333X0.433333X-0.433333X0*%
%ADD24C,4.000000*%
%ADD25RoundRect,0.250000X0.550000X-0.550000X0.550000X0.550000X-0.550000X0.550000X-0.550000X-0.550000X0*%
%ADD26C,1.600000*%
%ADD27RoundRect,0.250000X-0.600000X-0.600000X0.600000X-0.600000X0.600000X0.600000X-0.600000X0.600000X0*%
%ADD28C,1.700000*%
%ADD29R,1.700000X1.700000*%
%ADD30O,1.574800X7.620000*%
%ADD31RoundRect,0.250000X0.350000X0.625000X-0.350000X0.625000X-0.350000X-0.625000X0.350000X-0.625000X0*%
%ADD32O,1.200000X1.750000*%
%ADD33RoundRect,0.250000X0.350000X-0.350000X0.350000X0.350000X-0.350000X0.350000X-0.350000X-0.350000X0*%
%ADD34RoundRect,0.181818X-0.618182X0.618182X-0.618182X-0.618182X0.618182X-0.618182X0.618182X0.618182X0*%
%ADD35RoundRect,0.220588X-0.529412X0.529412X-0.529412X-0.529412X0.529412X-0.529412X0.529412X0.529412X0*%
%ADD36RoundRect,0.250000X0.625000X-0.350000X0.625000X0.350000X-0.625000X0.350000X-0.625000X-0.350000X0*%
%ADD37O,1.750000X1.200000*%
%ADD38RoundRect,0.250000X0.600000X-0.600000X0.600000X0.600000X-0.600000X0.600000X-0.600000X-0.600000X0*%
%ADD39FreePoly0,90.000000*%
%ADD40FreePoly1,90.000000*%
G04 APERTURE END LIST*
D10*
%TO.C,SJL5*%
X222293000Y-102174000D02*
X222293000Y-103574000D01*
X222993000Y-104274000D02*
X223593000Y-104274000D01*
X223593000Y-101474000D02*
X222993000Y-101474000D01*
X224293000Y-103574000D02*
X224293000Y-102174000D01*
X222293000Y-102174000D02*
G75*
G02*
X222993000Y-101474000I700000J0D01*
G01*
X222993000Y-104274000D02*
G75*
G02*
X222293000Y-103574000I-1J699999D01*
G01*
X223593000Y-101474000D02*
G75*
G02*
X224293000Y-102174000I0J-700000D01*
G01*
X224293000Y-103574000D02*
G75*
G02*
X223593000Y-104274000I-699999J-1D01*
G01*
%TO.C,SJL6*%
X215943000Y-102174000D02*
X215943000Y-103574000D01*
X216643000Y-104274000D02*
X217243000Y-104274000D01*
X217243000Y-101474000D02*
X216643000Y-101474000D01*
X217943000Y-103574000D02*
X217943000Y-102174000D01*
X215943000Y-102174000D02*
G75*
G02*
X216643000Y-101474000I700000J0D01*
G01*
X216643000Y-104274000D02*
G75*
G02*
X215943000Y-103574000I-1J699999D01*
G01*
X217243000Y-101474000D02*
G75*
G02*
X217943000Y-102174000I0J-700000D01*
G01*
X217943000Y-103574000D02*
G75*
G02*
X217243000Y-104274000I-699999J-1D01*
G01*
%TD*%
%LPC*%
G36*
X69496000Y-135065000D02*
G01*
X205335200Y-135065000D01*
X205335200Y-143449000D01*
X69496000Y-143449000D01*
X69496000Y-135065000D01*
G37*
%TO.C,SJL5*%
G36*
X224043000Y-103024000D02*
G01*
X222543000Y-103024000D01*
X222543000Y-102724000D01*
X224043000Y-102724000D01*
X224043000Y-103024000D01*
G37*
%TO.C,SJL6*%
G36*
X217693000Y-103024000D02*
G01*
X216193000Y-103024000D01*
X216193000Y-102724000D01*
X217693000Y-102724000D01*
X217693000Y-103024000D01*
G37*
%TD*%
D11*
%TO.C,U5*%
X173255000Y-81792000D03*
D12*
X175795000Y-81792000D03*
X178335000Y-81792000D03*
D13*
X182145000Y-81792000D03*
X182145000Y-81792000D03*
D12*
X185955000Y-81792000D03*
X188495000Y-81792000D03*
X191035000Y-81792000D03*
X191035000Y-74172000D03*
X188495000Y-74172000D03*
X185955000Y-74172000D03*
D13*
X182145000Y-74172000D03*
X182145000Y-74172000D03*
D12*
X178335000Y-74172000D03*
X175795000Y-74172000D03*
X173255000Y-74172000D03*
%TD*%
D14*
%TO.C,CT13*%
X200687000Y-105287000D03*
D12*
X203187000Y-105287000D03*
%TD*%
D14*
%TO.C,CT9*%
X191670000Y-93984000D03*
D12*
X194170000Y-93984000D03*
%TD*%
D14*
%TO.C,CT7*%
X178970000Y-92714000D03*
D12*
X181470000Y-92714000D03*
%TD*%
D14*
%TO.C,CT1*%
X179732000Y-69854000D03*
D12*
X182232000Y-69854000D03*
%TD*%
D11*
%TO.C,U9*%
X153062000Y-124210000D03*
D12*
X155602000Y-124210000D03*
X158142000Y-124210000D03*
X160682000Y-124210000D03*
X160682000Y-116590000D03*
X158142000Y-116590000D03*
X155602000Y-116590000D03*
X153062000Y-116590000D03*
%TD*%
D14*
%TO.C,CT2*%
X185955000Y-69854000D03*
D12*
X188455000Y-69854000D03*
%TD*%
D14*
%TO.C,CT8*%
X185320000Y-92714000D03*
D12*
X187820000Y-92714000D03*
%TD*%
D15*
%TO.C,X2*%
X108866000Y-109097000D03*
X108866000Y-113997000D03*
D16*
X99616000Y-105647000D03*
X99616000Y-117447000D03*
%TD*%
D17*
%TO.C,CN1*%
X74703000Y-78490000D03*
D15*
X77243000Y-78490000D03*
X74703000Y-81030000D03*
X77243000Y-81030000D03*
X74703000Y-83570000D03*
X77243000Y-83570000D03*
X74703000Y-86110000D03*
X77243000Y-86110000D03*
X74703000Y-88650000D03*
X77243000Y-88650000D03*
X74703000Y-91190000D03*
X77243000Y-91190000D03*
X74703000Y-93730000D03*
X77243000Y-93730000D03*
X74703000Y-96270000D03*
X77243000Y-96270000D03*
X74703000Y-98810000D03*
X77243000Y-98810000D03*
X74703000Y-101350000D03*
X77243000Y-101350000D03*
X74703000Y-103890000D03*
X77243000Y-103890000D03*
X74703000Y-106430000D03*
X77243000Y-106430000D03*
X74703000Y-108970000D03*
X77243000Y-108970000D03*
X74703000Y-111510000D03*
X77243000Y-111510000D03*
X74703000Y-114050000D03*
X77243000Y-114050000D03*
X74703000Y-116590000D03*
X77243000Y-116590000D03*
X74703000Y-119130000D03*
X77243000Y-119130000D03*
X74703000Y-121670000D03*
X77243000Y-121670000D03*
X74703000Y-124210000D03*
X77243000Y-124210000D03*
X74703000Y-126750000D03*
X77243000Y-126750000D03*
%TD*%
D18*
%TO.C,J4*%
X225198000Y-102159000D03*
X220198000Y-97159000D03*
X225198000Y-92159000D03*
D19*
X220198000Y-102159000D03*
D20*
X220198000Y-99659000D03*
D21*
X225198000Y-97159000D03*
D19*
X220198000Y-92159000D03*
D22*
X220198000Y-94659000D03*
%TD*%
D23*
%TO.C,Q1*%
X197258000Y-115955000D03*
D12*
X194718000Y-115955000D03*
X192178000Y-115955000D03*
%TD*%
D14*
%TO.C,CT4*%
X191670000Y-88269000D03*
D12*
X194170000Y-88269000D03*
%TD*%
D24*
%TO.C,J5*%
X218744000Y-140268000D03*
X218744000Y-106968000D03*
D25*
X217324000Y-113923000D03*
D26*
X217324000Y-116693000D03*
X217324000Y-119463000D03*
X217324000Y-122233000D03*
X217324000Y-125003000D03*
X217324000Y-127773000D03*
X217324000Y-130543000D03*
X217324000Y-133313000D03*
X220164000Y-115308000D03*
X220164000Y-118078000D03*
X220164000Y-120848000D03*
X220164000Y-123618000D03*
X220164000Y-126388000D03*
X220164000Y-129158000D03*
X220164000Y-131928000D03*
%TD*%
D14*
%TO.C,CT14*%
X193575000Y-111002000D03*
D12*
X196075000Y-111002000D03*
%TD*%
%TO.C,L1*%
X129059000Y-79252000D03*
X129059000Y-69092000D03*
%TD*%
D27*
%TO.C,JP2*%
X202338000Y-110875000D03*
D28*
X202338000Y-113415000D03*
X202338000Y-115955000D03*
%TD*%
D11*
%TO.C,U4*%
X172493000Y-84078000D03*
D12*
X175033000Y-84078000D03*
X177573000Y-84078000D03*
X180113000Y-84078000D03*
X182653000Y-84078000D03*
X185193000Y-84078000D03*
X187733000Y-84078000D03*
X190273000Y-84078000D03*
X192813000Y-84078000D03*
%TD*%
D29*
%TO.C,JP1*%
X189130000Y-98302000D03*
D28*
X189130000Y-100842000D03*
X189130000Y-103382000D03*
X191670000Y-98302000D03*
X191670000Y-100842000D03*
X191670000Y-103382000D03*
%TD*%
D27*
%TO.C,J8*%
X211863000Y-80776000D03*
D28*
X211863000Y-83316000D03*
X211863000Y-85856000D03*
X211863000Y-88396000D03*
%TD*%
D27*
%TO.C,J9*%
X211863000Y-93349000D03*
D28*
X211863000Y-95889000D03*
X211863000Y-98429000D03*
X211863000Y-100969000D03*
%TD*%
D30*
%TO.C,J1*%
X201322000Y-138815000D03*
X198782000Y-138815000D03*
X196242000Y-138815000D03*
X193702000Y-138815000D03*
X186082000Y-138815000D03*
X181002000Y-138815000D03*
X178462000Y-138815000D03*
X170842000Y-138815000D03*
X168302000Y-138815000D03*
X165762000Y-138815000D03*
X163222000Y-138815000D03*
X160682000Y-138815000D03*
X158142000Y-138815000D03*
X150522000Y-138815000D03*
X145442000Y-138815000D03*
X140362000Y-138815000D03*
X130202000Y-138815000D03*
X127662000Y-138815000D03*
X125122000Y-138815000D03*
X112422000Y-138815000D03*
X109882000Y-138815000D03*
X107342000Y-138815000D03*
X97182000Y-138815000D03*
X94642000Y-138815000D03*
X76862000Y-138815000D03*
X71782000Y-138815000D03*
%TD*%
D12*
%TO.C,L2*%
X150014000Y-79125000D03*
X150014000Y-89285000D03*
%TD*%
D14*
%TO.C,CT5*%
X165762000Y-92714000D03*
D12*
X168262000Y-92714000D03*
%TD*%
D14*
%TO.C,CT3*%
X198655000Y-85094000D03*
D12*
X202155000Y-85094000D03*
%TD*%
D31*
%TO.C,J11*%
X198576000Y-74934000D03*
D32*
X200576000Y-74934000D03*
X202576000Y-74934000D03*
X204576000Y-74934000D03*
%TD*%
D15*
%TO.C,X1*%
X109374000Y-77220000D03*
X109374000Y-72320000D03*
D33*
X118624000Y-80670000D03*
X118624000Y-68870000D03*
%TD*%
D14*
%TO.C,CT10*%
X198655000Y-93222000D03*
D12*
X202155000Y-93222000D03*
%TD*%
D15*
%TO.C,X3*%
X108866000Y-124210000D03*
X108866000Y-129110000D03*
D16*
X99616000Y-120760000D03*
X99616000Y-132560000D03*
%TD*%
D34*
%TO.C,D2*%
X185320000Y-109732000D03*
D26*
X185320000Y-119892000D03*
%TD*%
D14*
%TO.C,CT11*%
X165762000Y-97667000D03*
D12*
X168262000Y-97667000D03*
%TD*%
D35*
%TO.C,CN2*%
X167413000Y-70616000D03*
D15*
X167413000Y-73156000D03*
X164873000Y-70616000D03*
X164873000Y-73156000D03*
X162333000Y-70616000D03*
X162333000Y-73156000D03*
X159793000Y-70616000D03*
X159793000Y-73156000D03*
X157253000Y-70616000D03*
X157253000Y-73156000D03*
X154713000Y-70616000D03*
X154713000Y-73156000D03*
X152173000Y-70616000D03*
X152173000Y-73156000D03*
X149633000Y-70616000D03*
X149633000Y-73156000D03*
X147093000Y-70616000D03*
X147093000Y-73156000D03*
X144553000Y-70616000D03*
X144553000Y-73156000D03*
X142013000Y-70616000D03*
X142013000Y-73156000D03*
X139473000Y-70616000D03*
X139473000Y-73156000D03*
X136933000Y-70616000D03*
X136933000Y-73156000D03*
%TD*%
D14*
%TO.C,CT15*%
X86006000Y-129290000D03*
D12*
X88506000Y-129290000D03*
%TD*%
D14*
%TO.C,CT6*%
X172620000Y-92714000D03*
D12*
X175120000Y-92714000D03*
%TD*%
D34*
%TO.C,D1*%
X189130000Y-109732000D03*
D26*
X189130000Y-119892000D03*
%TD*%
D18*
%TO.C,J3*%
X225198000Y-89586000D03*
X220198000Y-84586000D03*
X225198000Y-79586000D03*
D19*
X220198000Y-89586000D03*
D20*
X220198000Y-87086000D03*
D21*
X225198000Y-84586000D03*
D19*
X220198000Y-79586000D03*
D22*
X220198000Y-82086000D03*
%TD*%
D36*
%TO.C,J13*%
X206783000Y-102112000D03*
D37*
X206783000Y-104112000D03*
X206783000Y-106112000D03*
X206783000Y-108112000D03*
%TD*%
D27*
%TO.C,J7*%
X211863000Y-68076000D03*
D28*
X211863000Y-70616000D03*
X211863000Y-73156000D03*
X211863000Y-75696000D03*
%TD*%
D14*
%TO.C,CT12*%
X200687000Y-100207000D03*
D12*
X203187000Y-100207000D03*
%TD*%
D18*
%TO.C,J2*%
X225198000Y-77013000D03*
X220198000Y-72013000D03*
X225198000Y-67013000D03*
D19*
X220198000Y-77013000D03*
D20*
X220198000Y-74513000D03*
D21*
X225198000Y-72013000D03*
D19*
X220198000Y-67013000D03*
D22*
X220198000Y-69513000D03*
%TD*%
D14*
%TO.C,CT16*%
X127916000Y-129925000D03*
D12*
X130416000Y-129925000D03*
%TD*%
%TO.C,L3*%
X200560000Y-131830000D03*
X210720000Y-131830000D03*
%TD*%
D38*
%TO.C,J10*%
X198655000Y-69854000D03*
D28*
X201195000Y-69854000D03*
X203735000Y-69854000D03*
X206275000Y-69854000D03*
%TD*%
D39*
%TO.C,SJL5*%
X223293000Y-103524000D03*
D40*
X223293000Y-102224000D03*
%TD*%
D39*
%TO.C,SJL6*%
X216943000Y-103524000D03*
D40*
X216943000Y-102224000D03*
%TD*%
%LPD*%
M02*
